<svg xmlns="http://www.w3.org/2000/svg" xmlns:xlink="http://www.w3.org/1999/xlink" viewBox="0 0 330 504.38"><defs><style>.cls-1,.cls-10,.cls-100,.cls-101,.cls-102,.cls-103,.cls-104,.cls-105,.cls-106,.cls-107,.cls-108,.cls-109,.cls-11,.cls-110,.cls-111,.cls-112,.cls-113,.cls-114,.cls-115,.cls-116,.cls-117,.cls-118,.cls-119,.cls-12,.cls-120,.cls-121,.cls-122,.cls-123,.cls-124,.cls-125,.cls-126,.cls-127,.cls-128,.cls-129,.cls-13,.cls-130,.cls-131,.cls-132,.cls-133,.cls-134,.cls-135,.cls-136,.cls-137,.cls-14,.cls-140,.cls-15,.cls-16,.cls-17,.cls-18,.cls-19,.cls-2,.cls-20,.cls-21,.cls-22,.cls-23,.cls-24,.cls-25,.cls-26,.cls-27,.cls-28,.cls-29,.cls-3,.cls-30,.cls-31,.cls-32,.cls-33,.cls-34,.cls-35,.cls-36,.cls-37,.cls-38,.cls-39,.cls-4,.cls-40,.cls-41,.cls-42,.cls-43,.cls-44,.cls-45,.cls-46,.cls-47,.cls-48,.cls-49,.cls-5,.cls-50,.cls-51,.cls-52,.cls-53,.cls-54,.cls-55,.cls-56,.cls-57,.cls-58,.cls-59,.cls-6,.cls-60,.cls-61,.cls-62,.cls-63,.cls-64,.cls-65,.cls-66,.cls-67,.cls-68,.cls-69,.cls-7,.cls-70,.cls-71,.cls-72,.cls-73,.cls-74,.cls-75,.cls-76,.cls-77,.cls-78,.cls-79,.cls-8,.cls-80,.cls-81,.cls-82,.cls-83,.cls-84,.cls-85,.cls-86,.cls-87,.cls-88,.cls-89,.cls-9,.cls-90,.cls-91,.cls-92,.cls-93,.cls-94,.cls-95,.cls-96,.cls-97,.cls-98,.cls-99{fill:none;}.cls-1,.cls-10,.cls-100,.cls-101,.cls-102,.cls-103,.cls-104,.cls-105,.cls-106,.cls-107,.cls-108,.cls-109,.cls-11,.cls-110,.cls-111,.cls-112,.cls-113,.cls-114,.cls-115,.cls-116,.cls-117,.cls-118,.cls-119,.cls-12,.cls-120,.cls-121,.cls-122,.cls-123,.cls-124,.cls-125,.cls-126,.cls-127,.cls-128,.cls-129,.cls-13,.cls-130,.cls-131,.cls-132,.cls-133,.cls-134,.cls-135,.cls-136,.cls-137,.cls-14,.cls-15,.cls-16,.cls-17,.cls-18,.cls-19,.cls-2,.cls-20,.cls-21,.cls-22,.cls-23,.cls-24,.cls-25,.cls-26,.cls-27,.cls-28,.cls-29,.cls-3,.cls-30,.cls-31,.cls-32,.cls-33,.cls-34,.cls-35,.cls-36,.cls-37,.cls-38,.cls-39,.cls-4,.cls-40,.cls-41,.cls-42,.cls-43,.cls-44,.cls-45,.cls-46,.cls-47,.cls-48,.cls-49,.cls-5,.cls-50,.cls-51,.cls-52,.cls-53,.cls-54,.cls-55,.cls-56,.cls-57,.cls-58,.cls-59,.cls-6,.cls-60,.cls-61,.cls-62,.cls-63,.cls-64,.cls-65,.cls-66,.cls-67,.cls-68,.cls-69,.cls-7,.cls-70,.cls-71,.cls-72,.cls-73,.cls-74,.cls-75,.cls-76,.cls-77,.cls-78,.cls-79,.cls-8,.cls-80,.cls-81,.cls-82,.cls-83,.cls-84,.cls-85,.cls-86,.cls-87,.cls-88,.cls-89,.cls-9,.cls-90,.cls-91,.cls-92,.cls-93,.cls-94,.cls-95,.cls-96,.cls-97,.cls-98,.cls-99{stroke-miterlimit:10;stroke-width:0.25px;}.cls-1{stroke:url(#linear-gradient);}.cls-2{stroke:url(#linear-gradient-2);}.cls-3{stroke:url(#linear-gradient-3);}.cls-4{stroke:url(#linear-gradient-4);}.cls-5{stroke:url(#linear-gradient-5);}.cls-6{stroke:url(#linear-gradient-6);}.cls-7{stroke:url(#linear-gradient-7);}.cls-8{stroke:url(#linear-gradient-8);}.cls-9{stroke:url(#linear-gradient-9);}.cls-10{stroke:url(#linear-gradient-10);}.cls-11{stroke:url(#linear-gradient-11);}.cls-12{stroke:url(#linear-gradient-12);}.cls-13{stroke:url(#linear-gradient-13);}.cls-14{stroke:url(#linear-gradient-14);}.cls-15{stroke:url(#linear-gradient-15);}.cls-16{stroke:url(#linear-gradient-16);}.cls-17{stroke:url(#linear-gradient-17);}.cls-18{stroke:url(#linear-gradient-18);}.cls-19{stroke:url(#linear-gradient-19);}.cls-20{stroke:url(#linear-gradient-20);}.cls-21{stroke:url(#linear-gradient-21);}.cls-22{stroke:url(#linear-gradient-22);}.cls-23{stroke:url(#linear-gradient-23);}.cls-24{stroke:url(#linear-gradient-24);}.cls-25{stroke:url(#linear-gradient-25);}.cls-26{stroke:url(#linear-gradient-26);}.cls-27{stroke:url(#linear-gradient-27);}.cls-28{stroke:url(#linear-gradient-28);}.cls-29{stroke:url(#linear-gradient-29);}.cls-30{stroke:url(#linear-gradient-30);}.cls-31{stroke:url(#linear-gradient-31);}.cls-32{stroke:url(#linear-gradient-32);}.cls-33{stroke:url(#linear-gradient-33);}.cls-34{stroke:url(#linear-gradient-34);}.cls-35{stroke:url(#linear-gradient-35);}.cls-36{stroke:url(#linear-gradient-36);}.cls-37{stroke:url(#linear-gradient-37);}.cls-38{stroke:url(#linear-gradient-38);}.cls-39{stroke:url(#linear-gradient-39);}.cls-40{stroke:url(#linear-gradient-40);}.cls-41{stroke:url(#linear-gradient-41);}.cls-42{stroke:url(#linear-gradient-42);}.cls-43{stroke:url(#linear-gradient-43);}.cls-44{stroke:url(#linear-gradient-44);}.cls-45{stroke:url(#linear-gradient-45);}.cls-46{stroke:url(#linear-gradient-46);}.cls-47{stroke:url(#linear-gradient-47);}.cls-48{stroke:url(#linear-gradient-48);}.cls-49{stroke:url(#linear-gradient-49);}.cls-50{stroke:url(#linear-gradient-50);}.cls-51{stroke:url(#linear-gradient-51);}.cls-52{stroke:url(#linear-gradient-52);}.cls-53{stroke:url(#linear-gradient-53);}.cls-54{stroke:url(#linear-gradient-54);}.cls-55{stroke:url(#linear-gradient-55);}.cls-56{stroke:url(#linear-gradient-56);}.cls-57{stroke:url(#linear-gradient-57);}.cls-58{stroke:url(#linear-gradient-58);}.cls-59{stroke:url(#linear-gradient-59);}.cls-60{stroke:url(#linear-gradient-60);}.cls-61{stroke:url(#linear-gradient-61);}.cls-62{stroke:url(#linear-gradient-62);}.cls-63{stroke:url(#linear-gradient-63);}.cls-64{stroke:url(#linear-gradient-64);}.cls-65{stroke:url(#linear-gradient-65);}.cls-66{stroke:url(#linear-gradient-66);}.cls-67{stroke:url(#linear-gradient-67);}.cls-68{stroke:url(#linear-gradient-68);}.cls-69{stroke:url(#linear-gradient-69);}.cls-70{stroke:url(#linear-gradient-70);}.cls-71{stroke:url(#linear-gradient-71);}.cls-72{stroke:url(#linear-gradient-72);}.cls-73{stroke:url(#linear-gradient-73);}.cls-74{stroke:url(#linear-gradient-74);}.cls-75{stroke:url(#linear-gradient-75);}.cls-76{stroke:url(#linear-gradient-76);}.cls-77{stroke:url(#linear-gradient-77);}.cls-78{stroke:url(#linear-gradient-78);}.cls-79{stroke:url(#linear-gradient-79);}.cls-80{stroke:url(#linear-gradient-80);}.cls-81{stroke:url(#linear-gradient-81);}.cls-82{stroke:url(#linear-gradient-82);}.cls-83{stroke:url(#linear-gradient-83);}.cls-84{stroke:url(#linear-gradient-87);}.cls-85{stroke:url(#linear-gradient-90);}.cls-86{stroke:url(#linear-gradient-91);}.cls-87{stroke:url(#linear-gradient-94);}.cls-88{stroke:url(#linear-gradient-95);}.cls-89{stroke:url(#linear-gradient-96);}.cls-90{stroke:url(#linear-gradient-97);}.cls-91{stroke:url(#linear-gradient-98);}.cls-92{stroke:url(#linear-gradient-99);}.cls-93{stroke:url(#linear-gradient-100);}.cls-94{stroke:url(#linear-gradient-101);}.cls-95{stroke:url(#linear-gradient-102);}.cls-96{stroke:url(#linear-gradient-103);}.cls-97{stroke:url(#linear-gradient-104);}.cls-98{stroke:url(#linear-gradient-105);}.cls-99{stroke:url(#linear-gradient-106);}.cls-100{stroke:url(#linear-gradient-107);}.cls-101{stroke:url(#linear-gradient-108);}.cls-102{stroke:url(#linear-gradient-109);}.cls-103{stroke:url(#linear-gradient-110);}.cls-104{stroke:url(#linear-gradient-111);}.cls-105{stroke:url(#linear-gradient-112);}.cls-106{stroke:url(#linear-gradient-113);}.cls-107{stroke:url(#linear-gradient-114);}.cls-108{stroke:url(#linear-gradient-115);}.cls-109{stroke:url(#linear-gradient-120);}.cls-110{stroke:url(#linear-gradient-121);}.cls-111{stroke:url(#linear-gradient-132);}.cls-112{stroke:url(#linear-gradient-133);}.cls-113{stroke:url(#linear-gradient-134);}.cls-114{stroke:url(#linear-gradient-135);}.cls-115{stroke:url(#linear-gradient-136);}.cls-116{stroke:url(#linear-gradient-137);}.cls-117{stroke:url(#linear-gradient-138);}.cls-118{stroke:url(#linear-gradient-139);}.cls-119{stroke:url(#linear-gradient-144);}.cls-120{stroke:url(#linear-gradient-145);}.cls-121{stroke:url(#linear-gradient-146);}.cls-122{stroke:url(#linear-gradient-147);}.cls-123{stroke:url(#linear-gradient-148);}.cls-124{stroke:url(#linear-gradient-149);}.cls-125{stroke:url(#linear-gradient-150);}.cls-126{stroke:url(#linear-gradient-151);}.cls-127{stroke:url(#linear-gradient-152);}.cls-128{stroke:url(#linear-gradient-153);}.cls-129{stroke:url(#linear-gradient-154);}.cls-130{stroke:url(#linear-gradient-157);}.cls-131{stroke:url(#linear-gradient-166);}.cls-132{stroke:url(#linear-gradient-168);}.cls-133{stroke:url(#linear-gradient-169);}.cls-134{stroke:url(#linear-gradient-170);}.cls-135{stroke:url(#linear-gradient-171);}.cls-136{stroke:url(#linear-gradient-172);}.cls-137{stroke:url(#linear-gradient-178);}.cls-138{fill:#59f0fe;}.cls-139{fill:#ff11c8;}.cls-141{fill:url(#radial-gradient);}</style><linearGradient id="linear-gradient" x1="178.22" y1="154.75" x2="409.75" y2="154.75" gradientTransform="translate(315.27 68.48) rotate(90)" gradientUnits="userSpaceOnUse"><stop offset="0" stop-color="#59f0fe"/><stop offset="0.73" stop-color="#ff11c8"/></linearGradient><linearGradient id="linear-gradient-2" x1="178.3" y1="156.42" x2="414.33" y2="156.42" xlink:href="#linear-gradient"/><linearGradient id="linear-gradient-3" x1="5.76" y1="320.44" x2="305.3" y2="320.44" gradientTransform="matrix(1, 0, 0, 1, 0, 0)" xlink:href="#linear-gradient"/><linearGradient id="linear-gradient-4" x1="5.73" y1="323.17" x2="302.82" y2="323.17" gradientTransform="matrix(1, 0, 0, 1, 0, 0)" xlink:href="#linear-gradient"/><linearGradient id="linear-gradient-5" x1="180.46" y1="157.02" x2="279.27" y2="157.02" xlink:href="#linear-gradient"/><linearGradient id="linear-gradient-6" x1="180.51" y1="157.9" x2="284.78" y2="157.9" xlink:href="#linear-gradient"/><linearGradient id="linear-gradient-7" x1="180.32" y1="152.75" x2="265.82" y2="152.75" xlink:href="#linear-gradient"/><linearGradient id="linear-gradient-8" x1="180.38" y1="153.49" x2="271.26" y2="153.49" xlink:href="#linear-gradient"/><linearGradient id="linear-gradient-9" x1="167.69" y1="155.75" x2="178.91" y2="155.75" gradientTransform="translate(315.27 68.48) rotate(90)" gradientUnits="userSpaceOnUse"><stop offset="0.12" stop-color="#3533fb"/><stop offset="0.32" stop-color="#ed14cd"/><stop offset="0.59" stop-color="#59f0fe"/></linearGradient><linearGradient id="linear-gradient-10" x1="173.36" y1="155.67" x2="178.98" y2="155.67" xlink:href="#linear-gradient"/><linearGradient id="linear-gradient-11" x1="167.05" y1="155.5" x2="178.9" y2="155.5" xlink:href="#linear-gradient-9"/><linearGradient id="linear-gradient-12" x1="161.24" y1="155.64" x2="178.84" y2="155.64" xlink:href="#linear-gradient-9"/><linearGradient id="linear-gradient-13" x1="150.7" y1="150.03" x2="178.72" y2="150.03" xlink:href="#linear-gradient-9"/><linearGradient id="linear-gradient-14" x1="156.35" y1="149.81" x2="178.78" y2="149.81" xlink:href="#linear-gradient-9"/><linearGradient id="linear-gradient-15" x1="155.37" y1="154.53" x2="178.77" y2="154.53" xlink:href="#linear-gradient-9"/><linearGradient id="linear-gradient-16" x1="160.99" y1="154.35" x2="178.84" y2="154.35" xlink:href="#linear-gradient-9"/><linearGradient id="linear-gradient-17" x1="147.77" y1="151.15" x2="178.69" y2="151.15" xlink:href="#linear-gradient-9"/><linearGradient id="linear-gradient-18" x1="139.01" y1="155.23" x2="180.59" y2="155.23" xlink:href="#linear-gradient-9"/><linearGradient id="linear-gradient-19" x1="132.72" y1="148.9" x2="179.78" y2="148.9" xlink:href="#linear-gradient-9"/><linearGradient id="linear-gradient-20" x1="131.47" y1="148.3" x2="179.75" y2="148.3" xlink:href="#linear-gradient-9"/><linearGradient id="linear-gradient-21" x1="125.74" y1="148.79" x2="179.64" y2="148.79" xlink:href="#linear-gradient-9"/><linearGradient id="linear-gradient-22" x1="127.42" y1="145.66" x2="179.67" y2="145.66" xlink:href="#linear-gradient-9"/><linearGradient id="linear-gradient-23" x1="121.84" y1="146.16" x2="179.56" y2="146.16" xlink:href="#linear-gradient-9"/><linearGradient id="linear-gradient-24" x1="125.71" y1="142.83" x2="179.64" y2="142.83" xlink:href="#linear-gradient-9"/><linearGradient id="linear-gradient-25" x1="120.01" y1="143.34" x2="179.52" y2="143.34" xlink:href="#linear-gradient-9"/><linearGradient id="linear-gradient-26" x1="6.74" y1="211.28" x2="313.16" y2="211.28" gradientTransform="matrix(1, 0, 0, 1, 0, 0)" xlink:href="#linear-gradient-9"/><linearGradient id="linear-gradient-27" x1="96.87" y1="157.84" x2="179.39" y2="157.84" xlink:href="#linear-gradient-9"/><linearGradient id="linear-gradient-28" x1="6.65" y1="210.26" x2="319.28" y2="210.26" gradientTransform="matrix(1, 0, 0, 1, 0, 0)" xlink:href="#linear-gradient-9"/><linearGradient id="linear-gradient-29" x1="5.86" y1="205.71" x2="315.39" y2="205.71" gradientTransform="matrix(1, 0, 0, 1, 0, 0)" xlink:href="#linear-gradient-9"/><linearGradient id="linear-gradient-30" x1="5.81" y1="202.32" x2="317.03" y2="202.32" gradientTransform="matrix(1, 0, 0, 1, 0, 0)" xlink:href="#linear-gradient-9"/><linearGradient id="linear-gradient-31" x1="5.71" y1="199.49" x2="315.4" y2="199.49" gradientTransform="matrix(1, 0, 0, 1, 0, 0)" xlink:href="#linear-gradient-9"/><linearGradient id="linear-gradient-32" x1="86.24" y1="159.39" x2="179.21" y2="159.39" xlink:href="#linear-gradient-9"/><linearGradient id="linear-gradient-33" x1="80.81" y1="160.24" x2="179.12" y2="160.24" xlink:href="#linear-gradient-9"/><linearGradient id="linear-gradient-34" x1="65" y1="156.92" x2="178.85" y2="156.92" xlink:href="#linear-gradient-9"/><linearGradient id="linear-gradient-35" x1="59.54" y1="157.95" x2="178.75" y2="157.95" xlink:href="#linear-gradient-9"/><linearGradient id="linear-gradient-36" x1="5.59" y1="186.19" x2="305.28" y2="186.19" gradientTransform="matrix(1, 0, 0, 1, 0, 0)" xlink:href="#linear-gradient-9"/><linearGradient id="linear-gradient-37" x1="5.58" y1="183.47" x2="303.17" y2="183.47" gradientTransform="matrix(1, 0, 0, 1, 0, 0)" xlink:href="#linear-gradient-9"/><linearGradient id="linear-gradient-38" x1="5.53" y1="183.54" x2="309.26" y2="183.54" gradientTransform="matrix(1, 0, 0, 1, 0, 0)" xlink:href="#linear-gradient-9"/><linearGradient id="linear-gradient-39" x1="48.28" y1="156.11" x2="178.98" y2="156.11" xlink:href="#linear-gradient-9"/><linearGradient id="linear-gradient-40" x1="45.03" y1="157.49" x2="178.92" y2="157.49" xlink:href="#linear-gradient-9"/><linearGradient id="linear-gradient-41" x1="39.7" y1="158.67" x2="178.83" y2="158.67" gradientTransform="translate(315.27 68.48) rotate(90)" gradientUnits="userSpaceOnUse"><stop offset="0.19" stop-color="#ff11c8"/><stop offset="0.31" stop-color="#e435d1"/><stop offset="0.9" stop-color="#59f0fe"/></linearGradient><linearGradient id="linear-gradient-42" x1="34.21" y1="154.85" x2="178.74" y2="154.85" xlink:href="#linear-gradient-41"/><linearGradient id="linear-gradient-43" x1="29.03" y1="156.08" x2="178.65" y2="156.08" xlink:href="#linear-gradient-41"/><linearGradient id="linear-gradient-44" x1="32.43" y1="151.76" x2="178.51" y2="151.76" xlink:href="#linear-gradient-41"/><linearGradient id="linear-gradient-45" x1="27.27" y1="152.98" x2="178.42" y2="152.98" xlink:href="#linear-gradient-41"/><linearGradient id="linear-gradient-46" x1="20.57" y1="155.94" x2="178.51" y2="155.94" xlink:href="#linear-gradient-41"/><linearGradient id="linear-gradient-47" x1="14.49" y1="155.88" x2="177.54" y2="155.88" xlink:href="#linear-gradient-41"/><linearGradient id="linear-gradient-48" x1="-0.32" y1="151.68" x2="177.04" y2="151.68" xlink:href="#linear-gradient-41"/><linearGradient id="linear-gradient-49" x1="-6.22" y1="152.96" x2="177.18" y2="152.96" xlink:href="#linear-gradient-41"/><linearGradient id="linear-gradient-50" x1="-15.57" y1="151.81" x2="176.76" y2="151.81" xlink:href="#linear-gradient-41"/><linearGradient id="linear-gradient-51" x1="-21.41" y1="153.17" x2="176.92" y2="153.17" xlink:href="#linear-gradient-41"/><linearGradient id="linear-gradient-52" x1="-14.38" y1="150.75" x2="176.78" y2="150.75" xlink:href="#linear-gradient-41"/><linearGradient id="linear-gradient-53" x1="-19.25" y1="152.26" x2="176.69" y2="152.26" xlink:href="#linear-gradient-41"/><linearGradient id="linear-gradient-54" x1="-32.49" y1="154.46" x2="176.73" y2="154.46" xlink:href="#linear-gradient-41"/><linearGradient id="linear-gradient-55" x1="-37.24" y1="156.1" x2="176.65" y2="156.1" xlink:href="#linear-gradient-41"/><linearGradient id="linear-gradient-56" x1="-43.64" y1="151.31" x2="176.24" y2="151.31" xlink:href="#linear-gradient-41"/><linearGradient id="linear-gradient-57" x1="-49.52" y1="152.84" x2="176.44" y2="152.84" xlink:href="#linear-gradient-41"/><linearGradient id="linear-gradient-58" x1="-58" y1="150.44" x2="175.98" y2="150.44" xlink:href="#linear-gradient-41"/><linearGradient id="linear-gradient-59" x1="-62.01" y1="154.29" x2="176.23" y2="154.29" xlink:href="#linear-gradient-41"/><linearGradient id="linear-gradient-60" x1="-66.59" y1="156.08" x2="176.15" y2="156.08" xlink:href="#linear-gradient-41"/><linearGradient id="linear-gradient-61" x1="6.93" y1="284.27" x2="310.7" y2="284.27" gradientTransform="matrix(1, 0, 0, 1, 0, 0)" xlink:href="#linear-gradient"/><linearGradient id="linear-gradient-62" x1="6.99" y1="287.56" x2="309.42" y2="287.56" gradientTransform="matrix(1, 0, 0, 1, 0, 0)" xlink:href="#linear-gradient"/><linearGradient id="linear-gradient-63" x1="6.92" y1="282.75" x2="313.93" y2="282.75" gradientTransform="matrix(1, 0, 0, 1, 0, 0)" xlink:href="#linear-gradient"/><linearGradient id="linear-gradient-64" x1="7.12" y1="285.6" x2="312.7" y2="285.6" gradientTransform="matrix(1, 0, 0, 1, 0, 0)" xlink:href="#linear-gradient"/><linearGradient id="linear-gradient-65" x1="6.9" y1="277.39" x2="309.12" y2="277.39" gradientTransform="matrix(1, 0, 0, 1, 0, 0)" xlink:href="#linear-gradient"/><linearGradient id="linear-gradient-66" x1="7.4" y1="280.34" x2="308.06" y2="280.34" gradientTransform="matrix(1, 0, 0, 1, 0, 0)" xlink:href="#linear-gradient"/><linearGradient id="linear-gradient-67" x1="7.19" y1="276.81" x2="313.05" y2="276.81" gradientTransform="matrix(1, 0, 0, 1, 0, 0)" xlink:href="#linear-gradient"/><linearGradient id="linear-gradient-68" x1="7.12" y1="279.71" x2="312.03" y2="279.71" gradientTransform="matrix(1, 0, 0, 1, 0, 0)" xlink:href="#linear-gradient"/><linearGradient id="linear-gradient-69" x1="6.47" y1="268.11" x2="302.3" y2="268.11" gradientTransform="matrix(1, 0, 0, 1, 0, 0)" xlink:href="#linear-gradient"/><linearGradient id="linear-gradient-70" x1="7.07" y1="272.63" x2="304.17" y2="272.63" gradientTransform="matrix(1, 0, 0, 1, 0, 0)" xlink:href="#linear-gradient"/><linearGradient id="linear-gradient-71" x1="5.98" y1="262.52" x2="310.84" y2="262.52" gradientTransform="matrix(1, 0, 0, 1, 0, 0)" xlink:href="#linear-gradient"/><linearGradient id="linear-gradient-72" x1="6" y1="265.5" x2="310.26" y2="265.5" gradientTransform="matrix(1, 0, 0, 1, 0, 0)" xlink:href="#linear-gradient"/><linearGradient id="linear-gradient-73" x1="5.96" y1="263.51" x2="304.29" y2="263.51" gradientTransform="matrix(1, 0, 0, 1, 0, 0)" xlink:href="#linear-gradient"/><linearGradient id="linear-gradient-74" x1="6.05" y1="266.41" x2="303.65" y2="266.41" gradientTransform="matrix(1, 0, 0, 1, 0, 0)" xlink:href="#linear-gradient"/><linearGradient id="linear-gradient-75" x1="6.05" y1="260.14" x2="308.81" y2="260.14" gradientTransform="matrix(1, 0, 0, 1, 0, 0)" xlink:href="#linear-gradient"/><linearGradient id="linear-gradient-76" x1="6.24" y1="257.61" x2="312.84" y2="257.61" gradientTransform="matrix(1, 0, 0, 1, 0, 0)" xlink:href="#linear-gradient"/><linearGradient id="linear-gradient-77" x1="180.34" y1="156.97" x2="201.8" y2="156.97" xlink:href="#linear-gradient"/><linearGradient id="linear-gradient-78" x1="180" y1="156.8" x2="195.84" y2="156.8" xlink:href="#linear-gradient"/><linearGradient id="linear-gradient-79" x1="6.05" y1="251.74" x2="310.29" y2="251.74" gradientTransform="matrix(1, 0, 0, 1, 0, 0)" xlink:href="#linear-gradient"/><linearGradient id="linear-gradient-80" x1="179.73" y1="152.83" x2="182.87" y2="152.83" xlink:href="#linear-gradient"/><linearGradient id="linear-gradient-81" x1="180.73" y1="156.24" x2="186.72" y2="156.24" xlink:href="#linear-gradient"/><linearGradient id="linear-gradient-82" x1="6.13" y1="253.29" x2="303.35" y2="253.29" gradientTransform="matrix(1, 0, 0, 1, 0, 0)" xlink:href="#linear-gradient"/><linearGradient id="linear-gradient-83" x1="137.62" y1="156.33" x2="179.21" y2="156.33" xlink:href="#linear-gradient-9"/><linearGradient id="linear-gradient-87" x1="83.25" y1="156.35" x2="179.16" y2="156.35" xlink:href="#linear-gradient-9"/><linearGradient id="linear-gradient-90" x1="5.6" y1="186.28" x2="315.19" y2="186.28" gradientTransform="matrix(1, 0, 0, 1, 0, 0)" xlink:href="#linear-gradient-9"/><linearGradient id="linear-gradient-91" x1="5.48" y1="182.37" x2="311.81" y2="182.37" gradientTransform="matrix(1, 0, 0, 1, 0, 0)" xlink:href="#linear-gradient-9"/><linearGradient id="linear-gradient-94" x1="13.31" y1="154.09" x2="177.51" y2="154.09" xlink:href="#linear-gradient-41"/><linearGradient id="linear-gradient-95" x1="8.24" y1="155.46" x2="177.43" y2="155.46" xlink:href="#linear-gradient-41"/><linearGradient id="linear-gradient-96" x1="178.03" y1="152.77" x2="397.84" y2="152.77" xlink:href="#linear-gradient"/><linearGradient id="linear-gradient-97" x1="178.11" y1="154.39" x2="402.59" y2="154.39" xlink:href="#linear-gradient"/><linearGradient id="linear-gradient-98" x1="178.04" y1="154.91" x2="398.34" y2="154.91" xlink:href="#linear-gradient"/><linearGradient id="linear-gradient-99" x1="178.11" y1="156.53" x2="403.02" y2="156.53" xlink:href="#linear-gradient"/><linearGradient id="linear-gradient-100" x1="178.68" y1="153.85" x2="370.96" y2="153.85" xlink:href="#linear-gradient"/><linearGradient id="linear-gradient-101" x1="178.76" y1="155.28" x2="375.79" y2="155.28" xlink:href="#linear-gradient"/><linearGradient id="linear-gradient-102" x1="5.81" y1="337.68" x2="315.88" y2="337.68" gradientTransform="matrix(1, 0, 0, 1, 0, 0)" xlink:href="#linear-gradient"/><linearGradient id="linear-gradient-103" x1="178.62" y1="155.88" x2="366.96" y2="155.88" xlink:href="#linear-gradient"/><linearGradient id="linear-gradient-104" x1="5.84" y1="308.42" x2="306.56" y2="308.42" gradientTransform="matrix(1, 0, 0, 1, 0, 0)" xlink:href="#linear-gradient"/><linearGradient id="linear-gradient-105" x1="6" y1="311.2" x2="304.4" y2="311.2" gradientTransform="matrix(1, 0, 0, 1, 0, 0)" xlink:href="#linear-gradient"/><linearGradient id="linear-gradient-106" x1="5.6" y1="309.72" x2="312.46" y2="309.72" gradientTransform="matrix(1, 0, 0, 1, 0, 0)" xlink:href="#linear-gradient"/><linearGradient id="linear-gradient-107" x1="6.21" y1="312.73" x2="310.36" y2="312.73" gradientTransform="matrix(1, 0, 0, 1, 0, 0)" xlink:href="#linear-gradient"/><linearGradient id="linear-gradient-108" x1="180.66" y1="152.92" x2="299.15" y2="152.92" xlink:href="#linear-gradient"/><linearGradient id="linear-gradient-109" x1="5.92" y1="308.09" x2="308.37" y2="308.09" gradientTransform="matrix(1, 0, 0, 1, 0, 0)" xlink:href="#linear-gradient"/><linearGradient id="linear-gradient-110" x1="180.63" y1="156.93" x2="296.03" y2="156.93" xlink:href="#linear-gradient"/><linearGradient id="linear-gradient-111" x1="5.73" y1="306.7" x2="300.17" y2="306.7" gradientTransform="matrix(1, 0, 0, 1, 0, 0)" xlink:href="#linear-gradient"/><linearGradient id="linear-gradient-112" x1="180.54" y1="154.99" x2="286.81" y2="154.99" xlink:href="#linear-gradient"/><linearGradient id="linear-gradient-113" x1="180.59" y1="155.96" x2="292.49" y2="155.96" xlink:href="#linear-gradient"/><linearGradient id="linear-gradient-114" x1="180.46" y1="156.92" x2="279.27" y2="156.92" xlink:href="#linear-gradient"/><linearGradient id="linear-gradient-115" x1="180.52" y1="157.85" x2="285.07" y2="157.85" xlink:href="#linear-gradient"/><linearGradient id="linear-gradient-120" x1="6.74" y1="214.61" x2="313.57" y2="214.61" gradientTransform="matrix(1, 0, 0, 1, 0, 0)" xlink:href="#linear-gradient-9"/><linearGradient id="linear-gradient-121" x1="6.73" y1="211.78" x2="312.27" y2="211.78" gradientTransform="matrix(1, 0, 0, 1, 0, 0)" xlink:href="#linear-gradient-9"/><linearGradient id="linear-gradient-132" x1="178.55" y1="154.01" x2="430.12" y2="154.01" xlink:href="#linear-gradient"/><linearGradient id="linear-gradient-133" x1="178.63" y1="155.76" x2="434.57" y2="155.76" xlink:href="#linear-gradient"/><linearGradient id="linear-gradient-134" x1="178.36" y1="152.95" x2="418.45" y2="152.95" xlink:href="#linear-gradient"/><linearGradient id="linear-gradient-135" x1="178.44" y1="154.64" x2="422.99" y2="154.64" xlink:href="#linear-gradient"/><linearGradient id="linear-gradient-136" x1="6.35" y1="353.3" x2="311.09" y2="353.3" gradientTransform="matrix(1, 0, 0, 1, 0, 0)" xlink:href="#linear-gradient"/><linearGradient id="linear-gradient-137" x1="177.96" y1="155.2" x2="393.37" y2="155.2" xlink:href="#linear-gradient"/><linearGradient id="linear-gradient-138" x1="178.94" y1="153.9" x2="386.78" y2="153.9" xlink:href="#linear-gradient"/><linearGradient id="linear-gradient-139" x1="179.5" y1="152.76" x2="392.13" y2="152.76" xlink:href="#linear-gradient"/><linearGradient id="linear-gradient-144" x1="5.78" y1="336.13" x2="319.13" y2="336.13" gradientTransform="matrix(1, 0, 0, 1, 0, 0)" xlink:href="#linear-gradient"/><linearGradient id="linear-gradient-145" x1="6.63" y1="340.76" x2="311.18" y2="340.76" gradientTransform="matrix(1, 0, 0, 1, 0, 0)" xlink:href="#linear-gradient"/><linearGradient id="linear-gradient-146" x1="5.6" y1="333.07" x2="307.45" y2="333.07" gradientTransform="matrix(1, 0, 0, 1, 0, 0)" xlink:href="#linear-gradient"/><linearGradient id="linear-gradient-147" x1="5.64" y1="335.74" x2="306.94" y2="335.74" gradientTransform="matrix(1, 0, 0, 1, 0, 0)" xlink:href="#linear-gradient"/><linearGradient id="linear-gradient-148" x1="6.02" y1="326.47" x2="310.56" y2="326.47" gradientTransform="matrix(1, 0, 0, 1, 0, 0)" xlink:href="#linear-gradient"/><linearGradient id="linear-gradient-149" x1="5.69" y1="328.97" x2="308.02" y2="328.97" gradientTransform="matrix(1, 0, 0, 1, 0, 0)" xlink:href="#linear-gradient"/><linearGradient id="linear-gradient-150" x1="5.78" y1="328.61" x2="307.54" y2="328.61" gradientTransform="matrix(1, 0, 0, 1, 0, 0)" xlink:href="#linear-gradient"/><linearGradient id="linear-gradient-151" x1="5.82" y1="331.1" x2="304.84" y2="331.1" gradientTransform="matrix(1, 0, 0, 1, 0, 0)" xlink:href="#linear-gradient"/><linearGradient id="linear-gradient-152" x1="5.78" y1="325.25" x2="304.97" y2="325.25" gradientTransform="matrix(1, 0, 0, 1, 0, 0)" xlink:href="#linear-gradient"/><linearGradient id="linear-gradient-153" x1="6.07" y1="328.57" x2="301.52" y2="328.57" gradientTransform="matrix(1, 0, 0, 1, 0, 0)" xlink:href="#linear-gradient"/><linearGradient id="linear-gradient-154" x1="5.7" y1="319.79" x2="305.11" y2="319.79" gradientTransform="matrix(1, 0, 0, 1, 0, 0)" xlink:href="#linear-gradient"/><linearGradient id="linear-gradient-157" x1="176.51" y1="152.4" x2="251.67" y2="152.4" xlink:href="#linear-gradient"/><linearGradient id="linear-gradient-166" x1="180.01" y1="152.62" x2="210.04" y2="152.62" xlink:href="#linear-gradient"/><linearGradient id="linear-gradient-168" x1="180.02" y1="156.25" x2="211.71" y2="156.25" xlink:href="#linear-gradient"/><linearGradient id="linear-gradient-169" x1="180.08" y1="156.18" x2="217.49" y2="156.18" xlink:href="#linear-gradient"/><linearGradient id="linear-gradient-170" x1="6.46" y1="260.92" x2="313.27" y2="260.92" gradientTransform="matrix(1, 0, 0, 1, 0, 0)" xlink:href="#linear-gradient"/><linearGradient id="linear-gradient-171" x1="180.06" y1="156.97" x2="201.52" y2="156.97" xlink:href="#linear-gradient"/><linearGradient id="linear-gradient-172" x1="6.44" y1="254.94" x2="306.56" y2="254.94" gradientTransform="matrix(1, 0, 0, 1, 0, 0)" xlink:href="#linear-gradient"/><linearGradient id="linear-gradient-178" x1="50.29" y1="151.94" x2="176.99" y2="151.94" xlink:href="#linear-gradient-9"/><radialGradient id="radial-gradient" cx="5.41" cy="247.73" r="5.41" gradientUnits="userSpaceOnUse"><stop offset="0" stop-color="#bebdfe"/><stop offset="0" stop-color="#aaa9fe"/><stop offset="0.01" stop-color="#8b8afd"/><stop offset="0.01" stop-color="#706efc"/><stop offset="0.02" stop-color="#5a58fc"/><stop offset="0.03" stop-color="#4947fb"/><stop offset="0.04" stop-color="#3e3cfb"/><stop offset="0.05" stop-color="#3735fb"/><stop offset="0.09" stop-color="#3533fb"/><stop offset="0.14" stop-color="#8b8afd"/><stop offset="0.19" stop-color="#c9c9fe"/><stop offset="0.22" stop-color="#f0f0ff"/><stop offset="0.24" stop-color="#fff"/><stop offset="0.39" stop-color="#fdffff"/><stop offset="0.44" stop-color="#f6feff"/><stop offset="0.48" stop-color="#ebfdff"/><stop offset="0.51" stop-color="#dafcff"/><stop offset="0.54" stop-color="#c4faff"/><stop offset="0.56" stop-color="#a8f7fe"/><stop offset="0.58" stop-color="#89f4fe"/><stop offset="0.6" stop-color="#71f2fe"/></radialGradient></defs><g id="Layer_2" data-name="Layer 2"><g id="Layer_1-2" data-name="Layer 1"><path class="cls-1" d="M8.43,247.5c1-4.81,21,17.4,52.63,29.09,34.13,14.46,63.64,38,78.39,57.44,16,19.62,23.8,50.56,45.1,60.2,10.59,6.23,22.14,12.38,42.85,26.26,10.53,6.88,23.89,14.72,39.68,23.45,15.47,8.93,33.37,18.75,45.55,34.21"/><path class="cls-2" d="M8.46,247.59c1-4.9,20.77,17.74,52.05,29.65C94.25,292,123.43,316,138,335.81c15.86,20,23.54,51.55,44.61,61.37,10.47,6.35,21.89,12.63,42.36,26.77,10.42,7,23.63,15,39.25,23.91,15.29,9.1,33,19.12,45,34.88"/><path class="cls-3" d="M5.76,246.77c41.43-.18,87.43-.18,119.43,30.82,4,4,7,9,10,13a206.52,206.52,0,0,1,15,34,75.16,75.16,0,0,0,30,36c26,17,53,27,83,30,8,0,15,1,23,2h9c3,0,7,1,10.09,1.55"/><path class="cls-4" d="M5.74,247c17.45,1.57,34.45.57,52.45,2.57,10,2,20,4,30,7a86.1,86.1,0,0,1,49,41c8,15,11,30,21,45,4,6,10,12,16,17a202.78,202.78,0,0,0,18,13,243.25,243.25,0,0,0,47,19c21,5,42,7,63.63,7.73"/><path class="cls-5" d="M7.19,250c4.86-1.87,5.69-.24,16,0,9.37.47,28.67.14,48,2.44,42.36,4.39,63.89,19.39,73.16,31,10.32,12.12,13.44,24.69,31.05,35.18,9.17,5.2,20.33,10.24,42.15,16.55,19.63,6.54,63.48,11.88,91.85,12.51"/><path class="cls-6" d="M7.21,250.06c4.83-2,5.65-.26,15.86-.05,9.31.5,28.49.15,47.73,2.58,42.1,4.63,63.51,20.47,72.72,32.74,10.25,12.8,13.36,26.06,30.87,37.14,9.11,5.48,20.21,10.81,41.89,17.46,19.52,6.91,63.1,12.54,91.3,13.21"/><path class="cls-7" d="M7.11,249.7c5-1.62,5.85-.22,16.41,0,9.64.4,29.48.12,49.39,2.11,43.58,3.8,65.73,16.77,75.27,26.83C158.79,289.09,162,300,180.13,309c9.43,4.5,20.91,8.86,43.36,14.32,20.19,5.66,65.3,10.28,94.48,10.82"/><path class="cls-8" d="M7.12,249.8c5-1.72,5.83-.23,16.33,0,9.6.43,29.35.13,49.16,2.24,43.37,4,65.41,17.84,74.91,28.53,10.55,11.16,13.75,22.71,31.79,32.36,9.38,4.78,20.81,9.42,43.15,15.22,20.1,6,65,10.92,94,11.5"/><path class="cls-9" d="M8.59,247.17c-1.75.19,3.82.07,16.54-.08,12.4-.15,30.81-.37,46.56-.74,34.12-.71,50.53-2.16,62-3.18,11.37-1.37,22.55-2.23,40.26-3.17,8.24-.5,20.31-1,37.64-1.69,18.44-.65,42.14-1.42,99.3-2"/><path class="cls-10" d="M8.6,247.28c-1.76.09,3.81,0,16.53,0,12.4-.08,30.83-.19,46.58-.37,34.15-.34,50.57-1.06,62-1.55,11.38-.67,22.57-1.1,40.28-1.56,8.25-.24,20.32-.5,37.66-.82,18.45-.32,42.15-.7,99.35-1"/><path class="cls-11" d="M10.34,247.16c-1.74.19,3.78.07,16.37-.08,12.28-.17,30.51-.4,46.1-.79,33.79-.75,50-2.29,61.38-3.36,11.26-1.45,22.34-2.36,39.87-3.36,8.16-.52,20.11-1.09,37.27-1.79,18.26-.68,41.72-1.5,98.32-2.12"/><path class="cls-12" d="M10.34,247c-1.74.3,3.77.11,16.35-.12,12.27-.25,30.48-.59,46.06-1.18,33.75-1.12,50-3.41,61.33-5,11.24-2.17,22.31-3.53,39.83-5,8.15-.78,20.09-1.63,37.23-2.67,18.24-1,41.69-2.25,98.23-3.19"/><path class="cls-13" d="M10.48,246.83c-1.81.47,3.91.17,17-.19,12.72-.4,31.6-.94,47.74-1.89,35-1.79,51.82-5.47,63.58-8,11.66-3.46,23.13-5.65,41.29-8,8.44-1.26,20.82-2.61,38.59-4.28,18.91-1.63,43.21-3.59,101.83-5.09"/><path class="cls-14" d="M10.48,246.94c-1.8.38,3.92.14,17-.15,12.74-.32,31.64-.75,47.81-1.51,35-1.43,51.89-4.36,63.66-6.42,11.68-2.77,23.17-4.51,41.35-6.42,8.46-1,20.86-2.08,38.65-3.42,18.94-1.3,43.27-2.86,102-4.06"/><path class="cls-15" d="M10.36,246.92c-1.75.4,3.81.14,16.48-.16,12.35-.33,30.7-.78,46.38-1.57,34-1.49,50.35-4.56,61.78-6.71,11.33-2.89,22.47-4.71,40.11-6.69,8.21-1,20.24-2.18,37.51-3.57,18.37-1.36,42-3,98.93-4.25"/><path class="cls-16" d="M10.37,247c-1.75.3,3.8.1,16.49-.13,12.37-.25,30.74-.59,46.45-1.19,34-1.13,50.4-3.46,61.84-5.1,11.35-2.19,22.5-3.57,40.17-5.08,8.22-.8,20.26-1.66,37.55-2.72,18.39-1,42-2.27,99.05-3.22"/><path class="cls-17" d="M10.45,246.77c-1.79.52,3.88.19,16.83-.21,12.63-.44,31.38-1,47.41-2.08,34.74-2,51.44-6,63.12-8.89,11.58-3.82,23-6.23,41-8.86,8.38-1.39,20.68-2.88,38.32-4.73,18.77-1.8,42.9-4,101.1-5.62"/><path class="cls-18" d="M9.14,249c-2.56-.19,24.26.35,61.92-2.6,17.44-1.34,32.23-3.93,41.64-6.65,9.76-2.72,15.14-5.45,21.52-7,11.55-5.2,23.58-4.95,40.35-10.19,8.69-2.12,20.35-5.89,42.94-9.07,21.33-3.29,59.47-5.1,93.73-5.83"/><path class="cls-19" d="M15.87,248.13c-2.56-.21,24.2.4,61.76-2.94,17.39-1.52,32.14-4.45,41.52-7.53,9.73-3.08,15.11-6.17,21.47-7.93,11.51-5.89,23.52-5.6,40.24-11.53,8.67-2.41,20.3-6.67,42.82-10.27,21.27-3.73,59.32-5.77,93.48-6.61"/><path class="cls-20" d="M15.89,248.11c-2.58-.22,24.28.41,62-3,17.46-1.56,32.27-4.57,41.69-7.73,9.77-3.16,15.16-6.34,21.55-8.14,11.56-6,23.61-5.75,40.39-11.83,8.71-2.47,20.38-6.84,43-10.54,21.35-3.83,59.54-5.92,93.84-6.78"/><path class="cls-21" d="M15.88,248c-2.57-.24,24.21.46,61.8-3.37,17.4-1.74,32.16-5.1,41.55-8.63,9.74-3.53,15.12-7.08,21.48-9.09,11.53-6.75,23.54-6.42,40.27-13.21,8.68-2.77,20.32-7.65,42.86-11.77,21.29-4.28,59.36-6.62,93.55-7.58"/><path class="cls-22" d="M15.94,248c-2.62-.23,24.7.45,63.06-3.26,17.75-1.69,32.82-4.94,42.4-8.37,9.93-3.42,15.42-6.86,21.91-8.81,11.76-6.54,24-6.22,41.09-12.81,8.85-2.68,20.73-7.41,43.73-11.41,21.72-4.14,60.57-6.41,95.46-7.34"/><path class="cls-23" d="M15.93,247.91c-2.61-.25,24.62.5,62.85-3.6,17.7-1.88,32.72-5.47,42.27-9.25,9.91-3.78,15.37-7.58,21.85-9.74,11.72-7.23,23.94-6.87,40.95-14.15,8.83-3,20.67-8.19,43.6-12.61,21.65-4.58,60.37-7.09,95.15-8.11"/><path class="cls-24" d="M16,248c-2.66-.24,25.16.46,64.2-3.37,18.08-1.75,33.41-5.1,43.17-8.64,10.11-3.53,15.7-7.08,22.31-9.09,12-6.75,24.45-6.42,41.83-13.22,9-2.77,21.1-7.65,44.52-11.78,22.12-4.28,61.66-6.62,97.18-7.57"/><path class="cls-25" d="M16,247.88c-2.65-.27,25.08.51,64-3.72,18-1.93,33.31-5.64,43-9.54,10.08-3.9,15.65-7.82,22.24-10,11.93-7.46,24.37-7.09,41.69-14.6,9-3,21-8.44,44.38-13,22-4.73,61.46-7.32,96.86-8.37"/><path class="cls-26" d="M6.74,249.27c34.45-1.68,68.45-1.68,100.45-14.68,13-6,24-15,37-21,6-3,13-5,19-8,26-12,53-23,82-27,23-3,45-4,68-5.31"/><path class="cls-27" d="M5.9,247.51c.09,1.83,21-7.33,52.8-13,15.34-3.52,31.11-7.3,41.84-12C111.7,218,118.9,213,127,210.15c8.31-4.11,15.26-3.82,23.26-4a90.32,90.32,0,0,0,27.47-3.93c11.17-2.26,24.81-8.85,48.51-15.25,22.44-6.36,59.63-12,82.81-21.56"/><path class="cls-28" d="M6.65,249.24c21.54-.65,42.54-1.65,64.54-4.65,10-2,19-4,29-7,17-6,30-17,46-25,17-8,34-15,51-22,39-16,81-18,122.08-19.3"/><path class="cls-29" d="M5.9,247.48c38.29-12.89,79.29-13.89,115.29-35.89a66.37,66.37,0,0,1,20-6c15-1,30,0,45-5,8-3,17-5,25-9,34-12,70-16,104.16-27.66"/><path class="cls-30" d="M5.85,247.37c14.24-4.7,28.75-8.57,43.39-11.84,12.7-2.83,25.35-5.64,37.73-9.71,11-3.61,21-8.76,31.06-14.45,10.21-5.78,20.27-9.46,32.11-9.81,11.11-.32,21.45-.66,32.23-3.78,7.94-2.3,15.6-5.46,23.35-8.33q16.22-6,32.88-10.62c23.22-6.41,46.72-11.79,69.76-18.84q4.33-1.32,8.63-2.73"/><path class="cls-31" d="M5.76,247.29c7.43-3.7,15.43-4.7,23.43-7.7,22-6,44-9,65-18,13-6,25-14,38-20,4-1,8-3,12-3,14,0,28-1,42-5,19-7,36-15,56-20,1,0,3-2,4-2,24-6,46-12,69.17-19.89"/><path class="cls-32" d="M5.86,247.29c.08,2.07,20.78-8.26,52.27-14.7,15.19-4,30.8-8.22,41.42-13.49,11.06-5.12,18.18-10.72,26.19-13.9,8.22-4.63,15.11-4.3,23-4.46a79.14,79.14,0,0,0,27.2-4.43c11.06-2.54,24.56-10,48-17.18,22.22-7.17,59-13.47,82-24.3"/><path class="cls-33" d="M5.84,247.19c.08,2.18,20.67-8.74,52-15.56,15.1-4.19,30.63-8.69,41.19-14.26,11-5.41,18.08-11.34,26.05-14.7,8.17-4.9,15-4.55,22.9-4.71a74.54,74.54,0,0,0,27-4.69c11-2.69,24.42-10.54,47.75-18.17,22.1-7.58,58.71-14.24,81.53-25.7"/><path class="cls-34" d="M5.93,246.87C6,249.4,27,236.75,59,228.85c15.43-4.86,31.29-10.06,42.09-16.52,11.23-6.27,18.47-13.14,26.61-17,8.35-5.68,15.34-5.27,23.39-5.46a68,68,0,0,0,27.63-5.43c11.24-3.12,24.95-12.22,48.79-21,22.58-8.78,60-16.5,83.29-29.77"/><path class="cls-35" d="M5.9,246.76c.08,2.65,21-10.59,52.76-18.87,15.33-5.09,31.08-10.54,41.8-17.3,11.16-6.57,18.36-13.76,26.44-17.84,8.3-5.94,15.25-5.52,23.24-5.71a64.55,64.55,0,0,0,27.45-5.69c11.17-3.26,24.79-12.8,48.47-22,22.43-9.19,59.59-17.27,82.75-31.18"/><path class="cls-36" d="M5.65,246.14c23.54-10.55,48.54-17.55,73.54-27.55,16-6,29-16,44-27,5-3,10-6,16-6,11,0,22,0,33-4,22-9,41-22,64-29l30-9c14-5,26-11,39-17.35"/><path class="cls-37" d="M5.61,246a19.27,19.27,0,0,0,4.58-1.45,109.3,109.3,0,0,0,15-8c11-4,22-8,33-11,11-4,21-8,32-13,12-6,20-16,32-23,4-2,8-5,12-6,12-2,24-1,36-5,19-8,36-19,55-27,26-10,54-17,77.92-30.71"/><path class="cls-38" d="M5.57,246.07c12.62-4.48,22.62-11.48,35.62-15.48s25-8,38-12c17-7,30-18,45-29a33.79,33.79,0,0,1,12-6,134,134,0,0,1,20-1c9-1,18-4,26-7,27-14,54-27,83-36a165.25,165.25,0,0,0,44-18.6"/><path class="cls-39" d="M8,247c.08,2.9,20.94-11.62,52.66-20.69,15.3-5.59,31-11.57,41.73-19,11.14-7.19,18.32-15.08,26.39-19.55,8.28-6.52,15.22-6.06,23.2-6.27a59.42,59.42,0,0,0,27.4-6.24c11.14-3.57,24.74-14,48.38-24.17,22.39-10.08,59.48-19,82.59-34.19"/><path class="cls-40" d="M8,246.89c.09,3,20.76-11.9,52.2-21.2,15.16-5.71,30.75-11.84,41.36-19.44,11-7.38,18.16-15.45,26.16-20,8.2-6.67,15.08-6.2,23-6.42a57.27,57.27,0,0,0,27.16-6.39c11-3.66,24.52-14.37,47.95-24.76,22.19-10.33,59-19.41,81.87-35"/><path class="cls-41" d="M7.93,246.79c.08,3.09,20.6-12.37,51.82-22,15-5.94,30.52-12.31,41.05-20.2,11-7.66,18-16.06,26-20.82,8.15-6.94,15-6.44,22.82-6.67a57.17,57.17,0,0,0,27-6.37c11-5.08,24.49-14.83,47.45-25.72,11.74-5.24,25.58-10.78,40.77-16.66,14.89-5.93,31.14-12.21,40.58-20"/><path class="cls-42" d="M8,246.68c.08,3.21,21.11-12.85,53.1-22.88,15.43-6.17,31.29-12.79,42.08-21,11.22-8,18.46-16.68,26.6-21.63,8.35-7.2,15.34-6.69,23.38-6.93a57.93,57.93,0,0,0,27.64-6.62c11.23-5.27,25.1-15.4,48.63-26.72,12-5.44,26.22-11.19,41.79-17.3,15.26-6.16,31.92-12.68,41.59-20.82"/><path class="cls-43" d="M8,246.57c.09,3.33,21-13.3,52.69-23.68,15.31-6.39,31-13.24,41.75-21.73,11.14-8.25,18.32-17.27,26.39-22.39,8.28-7.47,15.22-6.94,23.2-7.18a55.65,55.65,0,0,0,27.42-6.85c11.14-5.47,24.9-16,48.25-27.67,11.94-5.63,26-11.59,41.47-17.91,15.13-6.38,31.66-13.13,41.26-21.56"/><path class="cls-44" d="M7.63,246.86a331.59,331.59,0,0,1,54.54-23C78,217.72,93.88,210.58,104.64,202c11.21-8.34,18.39-17.34,26.89-22.48,7.76-6.14,16.05-6.88,24.3-7,8.41-.15,16.56,0,27.94-5.61,11-4.62,26.78-16.89,50.66-28s56.38-22.7,85-37.87"/><path class="cls-45" d="M7.6,246.76A323,323,0,0,1,61.72,223c15.68-6.37,31.47-13.76,42.15-22.61,11.12-8.64,18.25-18,26.68-23.26,7.7-6.35,15.93-7.13,24.11-7.24,8.35-.16,16.44,0,27.73-5.81,10.89-4.79,26.58-17.49,50.28-29s56-23.48,84.38-39.18"/><path class="cls-46" d="M8,246.41c.08,3.51,21-14,52.73-25,15.32-6.75,31.07-14,41.79-22.94,11.15-8.7,18.33-18.23,26.42-23.63,8.29-7.88,15.23-7.32,23.22-7.58A53.36,53.36,0,0,0,179.61,160c11.15-5.77,24.93-16.83,48.29-29.2,12-5.95,26-12.24,41.51-18.92,15.15-6.73,31.69-13.86,41.3-22.76"/><path class="cls-47" d="M9.38,245.42c.08,3.62,20.79-14.5,52.28-25.82,15.19-7,30.8-14.42,41.42-23.68,11-9,18.18-18.82,26.19-24.4,8.22-8.13,15.1-7.55,23-7.82a51.17,51.17,0,0,0,27.21-7.47c11.05-5.95,24.7-17.37,47.87-30.15,11.85-6.13,25.81-12.63,41.14-19.52,15-7,31.42-14.31,40.94-23.5"/><path class="cls-48" d="M9,245.39a301.49,301.49,0,0,1,54.08-27.92c15.67-7.48,31.45-16.14,42.12-26.54,11.12-10.13,18.24-21.06,26.67-27.3,7.69-7.45,15.91-8.36,24.09-8.5,8.34-.19,16.43,0,27.71-6.82,10.89-5.61,26.56-20.52,50.24-34s55.92-27.57,84.33-46"/><path class="cls-49" d="M9.46,245c.08,4.07,21.18-16.31,53.27-29,15.47-7.83,31.38-16.23,42.2-26.64,11.26-10.1,18.52-21.17,26.69-27.45,8.37-9.15,15.38-8.5,23.45-8.8,8-.09,16.62-1.31,27.72-8.4,11.27-6.7,25.18-19.55,48.78-33.92,12.08-6.91,26.3-14.21,41.92-22,15.31-7.82,32-16.1,41.72-26.43"/><path class="cls-50" d="M9,245.1a294.65,294.65,0,0,1,54-30.27c15.65-8.11,31.42-17.51,42.08-28.78,11.11-11,18.23-22.85,26.64-29.62,7.69-8.08,15.9-9.06,24.08-9.21s16.41,0,27.68-7.4c10.88-6.08,26.54-22.25,50.2-36.93S289.59,73,318,53"/><path class="cls-51" d="M9.45,244.7c.09,4.41,21.16-17.64,53.2-31.41,15.45-8.47,31.33-17.55,42.14-28.81,11.25-10.93,18.5-22.9,26.65-29.69,8.36-9.9,15.37-9.2,23.42-9.52,8-.09,16.6-1.42,27.69-9.08,11.24-7.25,25.14-21.15,48.71-36.69,12.06-7.47,26.26-15.37,41.86-23.76,15.28-8.46,32-17.41,41.66-28.59"/><path class="cls-52" d="M9,245.13A296.73,296.73,0,0,1,63.43,215c15.76-8.07,31.63-17.41,42.36-28.61C117,175.5,124.14,163.72,132.61,157c7.74-8,16-9,24.24-9.16,8.39-.21,16.52,0,27.86-7.35,11-6.06,26.72-22.12,50.54-36.71s56.24-29.72,84.82-49.58"/><path class="cls-53" d="M9,245a291.49,291.49,0,0,1,53.89-30.85c15.61-8.26,31.33-17.84,42-29.32,11.08-11.2,18.17-23.27,26.57-30.17,7.66-8.23,15.85-9.24,24-9.39,8.31-.21,16.36,0,27.61-7.53,10.85-6.21,26.47-22.67,50.06-37.63s55.7-30.46,84-50.82"/><path class="cls-54" d="M9.42,244.48c.08,4.66,21-18.61,52.75-33.13C77.5,202.41,93.26,192.83,104,181c11.16-11.53,18.35-24.16,26.43-31.33,8.29-10.44,15.24-9.7,23.23-10,7.94-.09,16.46-1.49,27.46-9.58,11.15-7.65,24.93-22.31,48.31-38.7,12-7.88,26-16.22,41.52-25.07,15.16-8.93,31.7-18.37,41.31-30.16"/><path class="cls-55" d="M9.37,244.39c.09,4.76,20.76-19,52.21-33.88,15.16-9.14,30.75-18.93,41.36-31.08,11-11.79,18.15-24.7,26.15-32,8.2-10.68,15.08-9.92,23-10.27,7.86-.1,16.29-1.53,27.17-9.8,11-7.81,24.67-22.8,47.8-39.57,11.84-8,25.78-16.57,41.09-25.62C283.13,53,299.5,43.37,309,31.31"/><path class="cls-56" d="M9,244.59A289,289,0,0,1,63.22,210c15.71-9.28,31.53-20,42.22-32.91,11.14-12.57,18.28-26.13,26.73-33.86,7.71-9.25,16-10.37,24.15-10.54,8.36-.24,16.46,0,27.77-8.46,10.91-7,26.62-25.45,50.36-42.23s56-34.19,84.52-57"/><path class="cls-57" d="M9.46,244.15c.09,5,21.2-20.1,53.31-35.8,15.48-9.65,31.4-20,42.23-32.83,11.27-12.46,18.53-26.1,26.7-33.84,8.38-11.27,15.4-10.47,23.47-10.84,8-.11,16.63-1.62,27.75-10.35,11.27-8.26,25.19-24.1,48.81-41.81,12.08-8.51,26.31-17.51,42-27.07C289,42,305.71,31.77,315.42,19"/><path class="cls-58" d="M9,244.32a290.13,290.13,0,0,1,54.5-36.84c15.79-9.87,31.7-21.3,42.45-35,11.2-13.38,18.38-27.8,26.87-36,7.75-9.84,16-11,24.28-11.22,8.41-.25,16.55,0,27.92-9,11-7.41,26.78-27.08,50.64-44.94s56.35-36.38,85-60.69"/><path class="cls-59" d="M9.42,243.9c.09,5.3,21-21.2,52.82-37.74,15.34-10.19,31.11-21.09,41.84-34.63,11.17-13.13,18.36-27.51,26.46-35.67,8.3-11.89,15.25-11,23.25-11.43,8-.11,16.48-1.7,27.49-10.92,11.16-8.71,25-25.4,48.36-44.08,12-9,26.07-18.46,41.56-28.54C286.38,30.72,302.94,20,312.56,6.54"/><path class="cls-60" d="M9.37,243.81c.09,5.4,20.76-21.6,52.21-38.46,15.17-10.37,30.76-21.49,41.36-35.27,11-13.38,18.16-28,26.16-36.35,8.21-12.11,15.08-11.26,23-11.65,7.85-.11,16.28-1.74,27.17-11.12,11-8.88,24.67-25.89,47.81-44.91C238.9,56.9,252.84,47.23,268.15,37c15-10.36,31.38-21.31,40.89-35"/><path class="cls-61" d="M6.94,250.18c42.25-1.59,87.25-2.59,126.25,16.41,2,2,4,3,7,5,14,12,25,26,43,31,22,5,43,10,65,13,21,2,41,2,62.5,3.56"/><path class="cls-62" d="M7,250.32c36.19.27,72.19-.73,107.19,9.27,9,3,18,7,25,13,11,10,19,20,32,29a77.41,77.41,0,0,0,16,7c40,11,81,17,122.23,16.13"/><path class="cls-63" d="M6.93,250.21c28.26,1.38,56.26-.62,85.26,4.38,21,3,44,6,58,24,1,1,3,1,4,2,12,13,28,20,45,23,10,1,19,3,29,5,15,3,29,3,43,5,14,1,29,1,42.73,1.7"/><path class="cls-64" d="M7.12,250.19c43.07.4,87.07-2.6,127.07,16.4,2,2,4,3,7,5,10,8,18,17,27,25,45,21,96,24,144.51,24.41"/><path class="cls-65" d="M6.91,250c44.28,3.55,92.28-4.45,132.28,16.55,12,10,25,18,40,23l9,3c40,11,80,12,120.93,12.15"/><path class="cls-66" d="M7.4,250.19c28.79.4,56.79-.6,85.79,3.4,17,3,33,6,47,17,13,10,24,20,40,25,42,11,85,15,127.87,14.9"/><path class="cls-67" d="M7.2,250c46,3.61,95-7.39,138,18.61,7,4,12,11,20,14,2,1,5,2,7,3,45,16,94,18,140.85,18.05"/><path class="cls-68" d="M7.13,250.06c40.67,1.36,82.78-1.9,121.69,12.43,9.4,3.46,16.18,8.58,23.54,15.25a75.09,75.09,0,0,0,24.12,14.56c19.76,7.61,41.82,10.43,62.74,12.85,24.17,2.79,48.49,3.74,72.8,4.21"/><path class="cls-69" d="M6.48,248c43.71,2.6,88.71-3.4,130.71,13.6,11,4,20,12,31,15,45,12,89,10,134.1,11.63"/><path class="cls-70" d="M7.07,249.8c41.12-.21,82.12-1.21,122.12,11.79,15,4,26,16,42,21,17,5,34,6,52,9,5,1,10,0,15,0a482.28,482.28,0,0,0,66,4"/><path class="cls-71" d="M6,247.78c53.21-.19,108.21-3.19,157.21,18.81,48,10,99,11,147.65,10.89"/><path class="cls-72" d="M6,247.83c41.05.72,82.62-1.88,122.84,8.16,8.79,2.2,17.38,4.47,24.87,9.84,2,1.41,2.88,2.57,5.23,2.76a23.65,23.65,0,0,1,6.56,1.68,103.88,103.88,0,0,0,14,3.87c9.59,2,19.34,2.87,29.05,4,10.22,1.15,20.36,2.66,30.64,3.31,23.65,1.49,47.37.51,71,1.74"/><path class="cls-73" d="M6,247.87c38.63,2.35,77.93-2.71,116,6.29,18.71,4.42,35.75,13.55,54.7,16.9,19.56,3.45,39.46,3.85,59.21,5.5,22.77,1.91,45.64,1.05,68.43,2.59"/><path class="cls-74" d="M6.05,247.89c51.14,2.7,104.14-5.3,151.14,22.7l9,3c14,4,28,4,43,7,5,1,10,0,15,0,27,3,53,4,79.46,4.34"/><path class="cls-75" d="M6.05,247.68c31.14-.09,63.14-.09,94.14,1.91,20,2,39,4,57,13,50,11,101,10,151.62,10"/><path class="cls-76" d="M6.24,248c37.95.57,76-.43,115,2.57,21,2,41,9,62,12h10c40,5,80,3,119.65,4.61"/><path class="cls-77" d="M8.16,249.13c4.83-.4,5.65,0,15.85,0,9.31.1,28.49,0,47.72.53,42.1.94,63.5,4.17,72.71,6.68,10.25,2.61,13.36,5.31,30.86,7.57,9.11,1.12,20.21,2.2,41.89,3.56,19.51,1.41,63.08,2.56,91.27,2.69"/><path class="cls-78" d="M8.15,248.75c4.84-.3,5.67,0,15.87,0,9.33.07,28.52,0,47.78.39,42.14.69,63.56,3.06,72.79,4.9,10.26,1.92,13.37,3.91,30.89,5.57,9.12.82,20.23,1.62,41.94,2.62,19.53,1,63.16,1.88,91.38,2"/><path class="cls-79" d="M6.05,247.5c39.68.06,79.38-.58,119,2.13s79.07,5.16,118.69,5.78c22.19.34,44.37.44,66.56.6"/><path class="cls-80" d="M8.07,248.36c5-.06,5.85,0,16.32,0,9.58,0,29.28,0,49.05.07,43.26.13,65.27.57,74.74.91,10.54.35,13.73.72,31.73,1,9.36.15,20.77.3,43.05.49,20,.19,64.86.35,93.84.36"/><path class="cls-81" d="M8.14,249.38c4.86-.11,5.68,0,15.92,0,9.36,0,28.64,0,48,.14,42.31.26,63.81,1.13,73.07,1.81,10.3.71,13.42,1.44,31,2,9.16.31,20.31.6,42.09,1,19.6.38,63.4.69,91.73.73"/><path class="cls-82" d="M6.13,247.52c44.06.07,87.06.07,131.06,3.07,55,11,111,8,166.16,8.33"/><path class="cls-83" d="M8,247.56c-2.57-.19,24.26.35,61.92-2.6,17.44-1.34,32.23-3.92,41.64-6.65,9.75-2.72,15.14-5.45,21.52-7,11.54-5.2,23.58-4.95,40.34-10.18,8.7-2.13,20.36-5.89,42.95-9.07,21.32-3.3,59.47-5.1,93.73-5.84"/><path class="cls-19" d="M15.87,248.13c-2.56-.21,24.2.4,61.76-2.94,17.39-1.52,32.14-4.45,41.52-7.53,9.73-3.08,15.11-6.17,21.47-7.93,11.51-5.89,23.52-5.6,40.24-11.53,8.67-2.41,20.3-6.67,42.82-10.27,21.27-3.73,59.32-5.77,93.48-6.61"/><path class="cls-32" d="M5.86,247.29c.08,2.07,20.78-8.26,52.27-14.7,15.19-4,30.8-8.22,41.42-13.49,11.06-5.12,18.18-10.72,26.19-13.9,8.22-4.63,15.11-4.3,23-4.46a79.14,79.14,0,0,0,27.2-4.43c11.06-2.54,24.56-10,48-17.18,22.22-7.17,59-13.47,82-24.3"/><path class="cls-33" d="M5.84,247.19c.08,2.18,20.67-8.74,52-15.56,15.1-4.19,30.63-8.69,41.19-14.26,11-5.41,18.08-11.34,26.05-14.7,8.17-4.9,15-4.55,22.9-4.71a74.54,74.54,0,0,0,27-4.69c11-2.69,24.42-10.54,47.75-18.17,22.1-7.58,58.71-14.24,81.53-25.7"/><path class="cls-84" d="M5.94,247.23c.09,2.14,21.2-8.52,53.31-15.17,15.48-4.09,31.4-8.48,42.24-13.91,11.27-5.28,18.54-11.07,26.71-14.34,8.38-4.78,15.4-4.44,23.47-4.6a80,80,0,0,0,27.74-4.57c11.28-2.63,25-10.29,49-17.73,22.66-7.4,60.2-13.89,83.6-25.07"/><path class="cls-34" d="M5.93,246.87C6,249.4,27,236.75,59,228.85c15.43-4.86,31.29-10.06,42.09-16.52,11.23-6.27,18.47-13.14,26.61-17,8.35-5.68,15.34-5.27,23.39-5.46a68,68,0,0,0,27.63-5.43c11.24-3.12,24.95-12.22,48.79-21,22.58-8.78,60-16.5,83.29-29.77"/><path class="cls-35" d="M5.9,246.76c.08,2.65,21-10.59,52.76-18.87,15.33-5.09,31.08-10.54,41.8-17.3,11.16-6.57,18.36-13.76,26.44-17.84,8.3-5.94,15.25-5.52,23.24-5.71a64.55,64.55,0,0,0,27.45-5.69c11.17-3.26,24.79-12.8,48.47-22,22.43-9.19,59.59-17.27,82.75-31.18"/><path class="cls-85" d="M5.65,246.83c5.54-2.24,10.54-5.24,16.54-7.24,16-5,31-11,48-15,11-4,21-9,32-15,14-9,25-22,42-24,15-1,30-1,44-8,37-20,75-31,114-46,4-2,9-4,12.95-5.86"/><path class="cls-86" d="M5.53,245.3a346.87,346.87,0,0,1,48.54-18.18A203.88,203.88,0,0,0,89.88,213c10.47-5.43,19.21-13,28.51-20.12,9.53-7.32,19-11.13,31.09-11.38,10.71-.22,20.09-1.39,30.08-5.52,8-3.31,15.5-7.82,23.16-11.82A322.83,322.83,0,0,1,235,149.45c22.66-8.84,45.81-16.42,68.14-26.12q4.35-1.89,8.64-3.88"/><path class="cls-40" d="M8,246.89c.09,3,20.76-11.9,52.2-21.2,15.16-5.71,30.75-11.84,41.36-19.44,11-7.38,18.16-15.45,26.16-20,8.2-6.67,15.08-6.2,23-6.42a57.27,57.27,0,0,0,27.16-6.39c11-3.66,24.52-14.37,47.95-24.76,22.19-10.33,59-19.41,81.87-35"/><path class="cls-41" d="M7.93,246.79c.08,3.09,20.6-12.37,51.82-22,15-5.94,30.52-12.31,41.05-20.2,11-7.66,18-16.06,26-20.82,8.15-6.94,15-6.44,22.82-6.67a57.17,57.17,0,0,0,27-6.37c11-5.08,24.49-14.83,47.45-25.72,11.74-5.24,25.58-10.78,40.77-16.66,14.89-5.93,31.14-12.21,40.58-20"/><path class="cls-87" d="M9.43,245.39c.08,3.65,21-14.6,52.88-26,15.37-7,31.16-14.53,41.9-23.85,11.18-9,18.39-18.95,26.5-24.57,8.31-8.19,15.27-7.61,23.28-7.88a52,52,0,0,0,27.52-7.52c11.19-6,25-17.5,48.43-30.37,12-6.18,26.11-12.72,41.62-19.66,15.19-7,31.78-14.41,41.41-23.67"/><path class="cls-88" d="M9.39,245.29c.08,3.76,20.84-15,52.42-26.79,15.23-7.22,30.88-15,41.53-24.57,11.09-9.32,18.23-19.53,26.27-25.32,8.23-8.44,15.14-7.85,23.08-8.12,7.88-.08,16.35-1.21,27.28-7.75,11.08-6.18,24.77-18,48-31.29,11.88-6.37,25.88-13.11,41.26-20.26,15.06-7.22,31.5-14.85,41-24.39"/><path class="cls-89" d="M8.4,247.27c1-4.56,21.28,16.52,53.33,27.62,34.58,13.73,64.48,36.12,79.42,54.53,16.25,18.63,24.12,48,45.71,57.15,10.73,5.92,22.43,11.76,43.41,24.93,10.67,6.54,24.21,14,40.21,22.26,15.67,8.48,33.81,17.81,46.15,32.48"/><path class="cls-90" d="M8.43,247.36c1-4.66,21.05,16.87,52.76,28.2,34.21,14,63.78,36.89,78.57,55.7,16.08,19,23.85,49,45.21,58.37,10.62,6,22.2,12,42.95,25.46,10.56,6.67,24,14.27,39.78,22.74,15.51,8.65,33.45,18.18,45.66,33.16"/><path class="cls-91" d="M8.43,247.28c1-4.57,21,16.56,52.58,27.68,34.1,13.76,63.57,36.2,78.31,54.66,16,18.66,23.77,48.1,45.06,57.27,10.57,5.93,22.12,11.79,42.8,25,10.52,6.55,23.87,14,39.64,22.32,15.45,8.49,33.33,17.84,45.5,32.55"/><path class="cls-92" d="M8.46,247.37c1-4.67,20.76,16.9,52,28.25,33.72,14.05,62.88,37,77.45,55.81,15.85,19.05,23.52,49.11,44.57,58.48,10.47,6,21.88,12,42.34,25.5,10.41,6.69,23.61,14.3,39.21,22.78,15.29,8.67,33,18.22,45,33.23"/><path class="cls-93" d="M6,247.84c1-4,21.47,14.45,53.78,24.16,34.87,12,65,31.59,80.08,47.69,16.39,16.29,24.32,42,46.09,50,10.82,5.17,22.62,10.28,43.77,21.8,10.76,5.71,24.41,12.22,40.55,19.47,15.8,7.41,34.09,15.57,46.54,28.4"/><path class="cls-94" d="M6.06,247.94c1-4.09,21.26,14.8,53.27,24.75,34.54,12.3,64.41,32.37,79.33,48.88,16.24,16.69,24.09,43,45.66,51.22,10.72,5.3,22.41,10.53,43.36,22.33,10.66,5.86,24.19,12.53,40.17,20,15.66,7.59,33.77,16,46.1,29.1"/><path class="cls-95" d="M5.88,247.46c3.69-2.52,7.51-.77,11.55-.24,5.95.78,12.05.77,18,1,15.83.63,31.75,2.13,47,6.56,22.84,6.62,42.92,20.76,56.06,40.68,14.38,21.8,17.62,48.92,32.35,70.49,13.8,20.22,37.71,34.9,59.68,44.62,23.75,10.52,50.81,15.83,76.58,18.08,2.89.25,5.79.45,8.7.57"/><path class="cls-96" d="M6.07,247.77c1-3.91,21.18,14.15,53.06,23.65,34.41,11.77,64.15,30.95,79,46.72,16.17,16,24,41.12,45.48,49,10.67,5.07,22.32,10.07,43.19,21.35,10.62,5.6,24.09,12,40,19.08,15.59,7.26,33.64,15.25,45.92,27.82"/><path class="cls-97" d="M5.84,246.74c42.35-1.15,87.35-2.15,121.35,26.85,3,4,7,7,10,11,7,12,12,24,20,36,14,23,40,30,64,38,28,9,56,11,85.36,11.93"/><path class="cls-98" d="M6,246.44c24.78.14,49.78.86,74,6.72,20.23,4.9,40.38,13.78,53.5,30.58C146.16,300,150.81,321.21,166,335.66s35.89,22,55.62,28c23.78,7.3,48.48,11.81,73.39,12.24q4.67.07,9.35,0"/><path class="cls-99" d="M5.62,245.91c24.68,3.42,50,.83,74.43,6.07,20.92,4.49,45.28,14.42,57.61,32.83,11.21,16.72,17.63,36.38,33.77,49.47,18.08,14.65,39.84,23.78,62.34,29.69,22.75,6,46.28,8.44,69.74,9.31,3,.1,6,.19,8.95.25"/><path class="cls-100" d="M6.22,246.21c25.19.77,50.86.17,75.51,6.27,21,5.2,41.56,15.61,54.47,33.53,12,16.67,18.59,36.71,33.59,51.26,15.63,15.16,36,23,56.61,28.82C250.63,373,275.61,379.4,301,379.24c3.12,0,6.25-.17,9.36-.44"/><path class="cls-101" d="M7.11,250.34c5-2.25,5.85-.3,16.39-.06,9.63.56,29.46.17,49.35,2.93,43.53,5.27,65.66,23.27,75.19,37.22,10.6,14.55,13.81,29.62,31.91,42.21,9.42,6.23,20.89,12.29,43.31,19.85,20.18,7.85,65.24,14.26,94.39,15"/><path class="cls-102" d="M5.92,246.81c19.27-.22,37.27-.22,56.27,1.78s37,9,54,17c20,11,30,32,40,52,3,4,6,8,10,11,3,1,5,3,7,5,1,1,3,1,4,2l3,3c13,7,26,14,40,18,15,4,30,7,46,10,14,2,28,2,42.17,2.87"/><path class="cls-103" d="M7.19,250.28c4.86-2.19,5.69-.3,16-.06,9.38.55,28.68.16,48,2.85,42.39,5.13,63.93,22.66,73.21,36.25,10.32,14.17,13.44,28.85,31.07,41.11,9.17,6.07,20.34,12,42.17,19.33,19.64,7.65,63.51,13.89,91.9,14.62"/><path class="cls-104" d="M5.73,246.79c41.46,1.8,88.46-4.2,120.46,28.8,13,14,20,31,31,47,9,11,20,17,33,22,36,13,72,23,110,22"/><path class="cls-105" d="M7.15,250.1c4.93-2,5.77-.27,16.17,0,9.5.5,29.05.15,48.67,2.62,42.94,4.73,64.77,20.87,74.17,33.38,10.45,13.05,13.62,26.57,31.47,37.85,9.29,5.59,20.61,11,42.72,17.8,19.9,7,64.35,12.79,93.1,13.46"/><path class="cls-106" d="M7.17,250.21c4.89-2.12,5.73-.28,16.07-.05,9.43.53,28.87.15,48.36,2.76,42.66,5,64.35,22,73.69,35.15,10.38,13.74,13.53,28,31.27,39.85,9.23,5.89,20.48,11.61,42.45,18.75,19.77,7.41,63.93,13.46,92.5,14.17"/><path class="cls-107" d="M7.19,250c4.86-1.87,5.69-.24,16,0,9.38.47,28.68.14,48.05,2.44,42.39,4.39,63.93,19.4,73.21,31,10.32,12.13,13.45,24.69,31.07,35.18,9.17,5.2,20.34,10.25,42.18,16.55,19.64,6.55,63.51,11.89,91.9,12.52"/><path class="cls-108" d="M7.21,250.07c4.83-2,5.66-.27,15.86,0,9.32.49,28.5.14,47.75,2.58,42.12,4.65,63.53,20.53,72.75,32.84,10.25,12.83,13.36,26.13,30.87,37.23,9.12,5.5,20.22,10.84,41.91,17.51,19.52,6.93,63.12,12.58,91.33,13.25"/><path class="cls-9" d="M8.59,247.17c-1.75.19,3.82.07,16.54-.08,12.4-.15,30.81-.37,46.56-.74,34.12-.71,50.53-2.16,62-3.18,11.37-1.37,22.55-2.23,40.26-3.17,8.24-.5,20.31-1,37.64-1.69,18.44-.65,42.14-1.42,99.3-2"/><path class="cls-10" d="M8.6,247.28c-1.76.09,3.81,0,16.53,0,12.4-.08,30.83-.19,46.58-.37,34.15-.34,50.57-1.06,62-1.55,11.38-.67,22.57-1.1,40.28-1.56,8.25-.24,20.32-.5,37.66-.82,18.45-.32,42.15-.7,99.35-1"/><path class="cls-11" d="M10.34,247.16c-1.74.19,3.78.07,16.37-.08,12.28-.17,30.51-.4,46.1-.79,33.79-.75,50-2.29,61.38-3.36,11.26-1.45,22.34-2.36,39.87-3.36,8.16-.52,20.11-1.09,37.27-1.79,18.26-.68,41.72-1.5,98.32-2.12"/><path class="cls-12" d="M10.34,247c-1.74.3,3.77.11,16.35-.12,12.27-.25,30.48-.59,46.06-1.18,33.75-1.12,50-3.41,61.33-5,11.24-2.17,22.31-3.53,39.83-5,8.15-.78,20.09-1.63,37.23-2.67,18.24-1,41.69-2.25,98.23-3.19"/><path class="cls-109" d="M6.75,249.41c44.44-2.82,93.44-.82,129.44-29.82,11-5,22-7,33-13,45-22,95-25,144.38-26.79"/><path class="cls-110" d="M6.74,249.29c14.45-1.7,28.45.3,42.45-2.7h9c23-4,44-7,64-20,12-8,23-16,37-18,23-11,45-22,71-27a496.14,496.14,0,0,1,82.08-7.33"/><path class="cls-34" d="M5.93,246.87C6,249.4,27,236.75,59,228.85c15.43-4.86,31.29-10.06,42.09-16.52,11.23-6.27,18.47-13.14,26.61-17,8.35-5.68,15.34-5.27,23.39-5.46a68,68,0,0,0,27.63-5.43c11.24-3.12,24.95-12.22,48.79-21,22.58-8.78,60-16.5,83.29-29.77"/><path class="cls-35" d="M5.9,246.76c.08,2.65,21-10.59,52.76-18.87,15.33-5.09,31.08-10.54,41.8-17.3,11.16-6.57,18.36-13.76,26.44-17.84,8.3-5.94,15.25-5.52,23.24-5.71a64.55,64.55,0,0,0,27.45-5.69c11.17-3.26,24.79-12.8,48.47-22,22.43-9.19,59.59-17.27,82.75-31.18"/><path class="cls-40" d="M8,246.89c.09,3,20.76-11.9,52.2-21.2,15.16-5.71,30.75-11.84,41.36-19.44,11-7.38,18.16-15.45,26.16-20,8.2-6.67,15.08-6.2,23-6.42a57.27,57.27,0,0,0,27.16-6.39c11-3.66,24.52-14.37,47.95-24.76,22.19-10.33,59-19.41,81.87-35"/><path class="cls-41" d="M7.93,246.79c.08,3.09,20.6-12.37,51.82-22,15-5.94,30.52-12.31,41.05-20.2,11-7.66,18-16.06,26-20.82,8.15-6.94,15-6.44,22.82-6.67a57.17,57.17,0,0,0,27-6.37c11-5.08,24.49-14.83,47.45-25.72,11.74-5.24,25.58-10.78,40.77-16.66,14.89-5.93,31.14-12.21,40.58-20"/><path class="cls-42" d="M8,246.68c.08,3.21,21.11-12.85,53.1-22.88,15.43-6.17,31.29-12.79,42.08-21,11.22-8,18.46-16.68,26.6-21.63,8.35-7.2,15.34-6.69,23.38-6.93a57.93,57.93,0,0,0,27.64-6.62c11.23-5.27,25.1-15.4,48.63-26.72,12-5.44,26.22-11.19,41.79-17.3,15.26-6.16,31.92-12.68,41.59-20.82"/><path class="cls-43" d="M8,246.57c.09,3.33,21-13.3,52.69-23.68,15.31-6.39,31-13.24,41.75-21.73,11.14-8.25,18.32-17.27,26.39-22.39,8.28-7.47,15.22-6.94,23.2-7.18a55.65,55.65,0,0,0,27.42-6.85c11.14-5.47,24.9-16,48.25-27.67,11.94-5.63,26-11.59,41.47-17.91,15.13-6.38,31.66-13.13,41.26-21.56"/><path class="cls-44" d="M7.63,246.86a331.59,331.59,0,0,1,54.54-23C78,217.72,93.88,210.58,104.64,202c11.21-8.34,18.39-17.34,26.89-22.48,7.76-6.14,16.05-6.88,24.3-7,8.41-.15,16.56,0,27.94-5.61,11-4.62,26.78-16.89,50.66-28s56.38-22.7,85-37.87"/><path class="cls-45" d="M7.6,246.76A323,323,0,0,1,61.72,223c15.68-6.37,31.47-13.76,42.15-22.61,11.12-8.64,18.25-18,26.68-23.26,7.7-6.35,15.93-7.13,24.11-7.24,8.35-.16,16.44,0,27.73-5.81,10.89-4.79,26.58-17.49,50.28-29s56-23.48,84.38-39.18"/><path class="cls-46" d="M8,246.41c.08,3.51,21-14,52.73-25,15.32-6.75,31.07-14,41.79-22.94,11.15-8.7,18.33-18.23,26.42-23.63,8.29-7.88,15.23-7.32,23.22-7.58A53.36,53.36,0,0,0,179.61,160c11.15-5.77,24.93-16.83,48.29-29.2,12-5.95,26-12.24,41.51-18.92,15.15-6.73,31.69-13.86,41.3-22.76"/><path class="cls-47" d="M9.38,245.42c.08,3.62,20.79-14.5,52.28-25.82,15.19-7,30.8-14.42,41.42-23.68,11-9,18.18-18.82,26.19-24.4,8.22-8.13,15.1-7.55,23-7.82a51.17,51.17,0,0,0,27.21-7.47c11.05-5.95,24.7-17.37,47.87-30.15,11.85-6.13,25.81-12.63,41.14-19.52,15-7,31.42-14.31,40.94-23.5"/><path class="cls-111" d="M8.42,247.89c1-5.23,21.11,18.91,52.89,31.61,34.3,15.71,64,41.34,78.77,62.42,16.12,21.32,23.92,54.94,45.33,65.42,10.64,6.77,22.25,13.45,43.06,28.53,10.58,7.48,24,16,39.88,25.48,15.54,9.7,33.53,20.38,45.77,37.18"/><path class="cls-112" d="M8.45,248c1-5.31,20.86,19.24,52.28,32.16,33.89,16,63.2,42.07,77.85,63.52,15.93,21.69,23.64,55.9,44.8,66.55,10.52,6.89,22,13.69,42.55,29,10.46,7.61,23.74,16.28,39.42,25.93,15.36,9.87,33.14,20.73,45.24,37.82"/><path class="cls-113" d="M8.4,247.66c1-5,21.26,18,53.27,30.17,34.53,15,64.39,39.45,79.32,59.57,16.23,20.35,24.09,52.43,45.65,62.43,10.71,6.46,22.41,12.84,43.36,27.22,10.66,7.14,24.18,15.27,40.16,24.32,15.65,9.26,33.77,19.45,46.1,35.48"/><path class="cls-114" d="M8.43,247.75c1-5.08,21,18.38,52.67,30.73,34.15,15.28,63.68,40.19,78.44,60.68,16.05,20.72,23.81,53.41,45.14,63.59,10.59,6.58,22.16,13.08,42.87,27.73,10.54,7.28,23.91,15.55,39.71,24.77,15.48,9.44,33.4,19.82,45.59,36.14"/><path class="cls-115" d="M6.4,248.55a178.15,178.15,0,0,1,16.79,10c14,8,29,14,44,20a185.32,185.32,0,0,1,95,88,57.31,57.31,0,0,0,11,11c8,5,16,8,25,12,26,15,51,28,77,42,3,1,5,4,7,5A79.32,79.32,0,0,1,311,458.07"/><path class="cls-116" d="M8.44,247.18c1-4.47,20.94,16.19,52.48,27.07,34,13.45,63.44,35.39,78.14,53.44,16,18.25,23.73,47,45,56,10.55,5.79,22.07,11.52,42.71,24.42,10.5,6.41,23.82,13.69,39.57,21.82,15.42,8.3,33.26,17.45,45.41,31.82"/><path class="cls-117" d="M6,248.15c1-4.32,21.46,15.62,53.76,26.11,34.86,13,65,34.15,80.06,51.56,16.38,17.61,24.3,45.38,46.07,54,10.81,5.6,22.61,11.12,43.75,23.57,10.76,6.18,24.41,13.21,40.54,21.05,15.79,8,34.07,16.83,46.52,30.7"/><path class="cls-118" d="M8.76,248.72c1-4.41,21.23,16,53.21,26.71,34.5,13.29,64.33,34.94,79.24,52.76,16.21,18,24.06,46.43,45.6,55.28,10.7,5.72,22.38,11.37,43.31,24.11,10.65,6.32,24.15,13.51,40.12,21.53,15.63,8.2,33.73,17.23,46.05,31.42"/><path class="cls-93" d="M6,247.84c1-4,21.47,14.45,53.78,24.16,34.87,12,65,31.59,80.08,47.69,16.39,16.29,24.32,42,46.09,50,10.82,5.17,22.62,10.28,43.77,21.8,10.76,5.71,24.41,12.22,40.55,19.47,15.8,7.41,34.09,15.57,46.54,28.4"/><path class="cls-94" d="M6.06,247.94c1-4.09,21.26,14.8,53.27,24.75,34.54,12.3,64.41,32.37,79.33,48.88,16.24,16.69,24.09,43,45.66,51.22,10.72,5.3,22.41,10.53,43.36,22.33,10.66,5.86,24.19,12.53,40.17,20,15.66,7.59,33.77,16,46.1,29.1"/><path class="cls-95" d="M5.88,247.46c3.69-2.52,7.51-.77,11.55-.24,5.95.78,12.05.77,18,1,15.83.63,31.75,2.13,47,6.56,22.84,6.62,42.92,20.76,56.06,40.68,14.38,21.8,17.62,48.92,32.35,70.49,13.8,20.22,37.71,34.9,59.68,44.62,23.75,10.52,50.81,15.83,76.58,18.08,2.89.25,5.79.45,8.7.57"/><path class="cls-96" d="M6.07,247.77c1-3.91,21.18,14.15,53.06,23.65,34.41,11.77,64.15,30.95,79,46.72,16.17,16,24,41.12,45.48,49,10.67,5.07,22.32,10.07,43.19,21.35,10.62,5.6,24.09,12,40,19.08,15.59,7.26,33.64,15.25,45.92,27.82"/><path class="cls-119" d="M5.85,247.41c3.74-2.49,7.6-.76,11.67-.24,6,.76,12.18.76,18.24,1,16.07.63,32.22,2.1,47.75,6.51,22.76,6.47,43,20.2,56.37,39.86,14.68,21.6,18,48.8,33.21,70.06,6.85,9.57,16,17.37,25.68,24a197,197,0,0,0,34.85,19.49c24,10.15,51,15.32,76.8,17.5,2.9.24,5.8.43,8.7.55"/><path class="cls-120" d="M6.68,249.12c11.51,5.47,22.51,13.47,34.51,17.47,6,2,11,4,17,5,3,1,5,3,7,4,39,13,72,37,95,74,4,6,9,12,16,14,23,8,43,21,65,31,25,10,50,20,69.91,37.84"/><path class="cls-121" d="M5.61,246.27c3-.13,5.73,1.09,8.58,1.77a34.88,34.88,0,0,0,8.54.47q8.28-.07,16.55.38a177.37,177.37,0,0,1,32.42,4.69c21.4,5.3,41.43,15.88,55.78,32.91,8.61,10.22,14,21.94,18.14,34.54,4.09,12.38,8.56,24.74,15.6,35.8,13.16,20.71,33.72,34.05,55.86,43.61a235.37,235.37,0,0,0,79.9,19.1c3.49.2,7,.31,10.47.35"/><path class="cls-122" d="M5.68,246.92c4.51-1.33,9.51,1.67,14.51,1.67,33,1,69,2,96,26a105.37,105.37,0,0,1,27,39c7,19,12,37,24,54s29,26,46,35c30,14,61,22,93.75,22.31"/><path class="cls-123" d="M6,246.79c31.16,1.8,62.16-1.2,91.16,12.8a107.6,107.6,0,0,1,32,24c11,12,16,28,22,43,26,61,99,76,159.36,79.56"/><path class="cls-124" d="M5.69,246.75c36.5.84,74.5-.16,106.5,22.84,13,9,20,21,27,34,7,14,10,28,18,41,2,2,3,4,5,7,15,21,36,34,59,43,28,11,57,15,86.83,16.59"/><path class="cls-125" d="M5.79,246.83c25.4,1.76,50.4.76,75.4,7.76,13,4,24,10,35,18,21,15,28,39,36,62,1,3,3,5,4,7,1,1,0,3,1,4,34,51,95,60,150.34,64.8"/><path class="cls-126" d="M5.83,246.65c25.85,1.6,52.48,1.3,77.24,9.93,20.72,7.22,39.61,20.88,51.19,39.71,12,19.53,15,43.43,28.89,61.94s34.23,31.32,55.31,40c24.23,10,50.29,14.62,76.3,16.66,3.36.27,6.71.49,10.07.67"/><path class="cls-127" d="M5.78,246.66c13-.16,26.24,1.87,39.19,2.82,12.59.92,25.22,2.58,37.35,6.18,19.85,5.9,38,17.35,50.05,34.38,12.75,18,16.39,40.71,29.51,58.47,14.05,19,37.25,31.25,58.79,39.78a171,171,0,0,0,35.83,9.4c12.84,2.07,25.6,5.11,38.61,5.94a92.65,92.65,0,0,0,9.86.14"/><path class="cls-128" d="M6.09,247.57c12.1,2,23.1,0,35.1,1,8,1,15,2,23,3,11,2,21,5,31,11,1,1,3,0,4,1,17,10,32,23,39,41,9,26,17,53,42,70,37,25,78,35,121.33,35"/><path class="cls-129" d="M5.71,245.83c17.48.76,35.48.76,52.48,2.76a116.27,116.27,0,0,1,18,4c18,4,34,11,47,24a80.35,80.35,0,0,1,19,30c8,20,16,38,34,51,39,27,84,37,128.92,36.12"/><path class="cls-4" d="M5.74,247c17.45,1.57,34.45.57,52.45,2.57,10,2,20,4,30,7a86.1,86.1,0,0,1,49,41c8,15,11,30,21,45,4,6,10,12,16,17a202.78,202.78,0,0,0,18,13,243.25,243.25,0,0,0,47,19c21,5,42,7,63.63,7.73"/><path class="cls-61" d="M6.94,250.18c42.25-1.59,87.25-2.59,126.25,16.41,2,2,4,3,7,5,14,12,25,26,43,31,22,5,43,10,65,13,21,2,41,2,62.5,3.56"/><path class="cls-130" d="M10.36,245.79c4.91-1.42,5.74-.19,16.1,0,9.46.35,28.94.1,48.48,1.85,42.76,3.34,64.5,14.74,73.86,23.59,10.41,9.21,13.56,18.76,31.34,26.74,9.26,3.95,20.53,7.78,42.55,12.58,19.82,5,64.08,9,92.72,9.51"/><path class="cls-63" d="M6.93,250.21c28.26,1.38,56.26-.62,85.26,4.38,21,3,44,6,58,24,1,1,3,1,4,2,12,13,28,20,45,23,10,1,19,3,29,5,15,3,29,3,43,5,14,1,29,1,42.73,1.7"/><path class="cls-64" d="M7.12,250.19c43.07.4,87.07-2.6,127.07,16.4,2,2,4,3,7,5,10,8,18,17,27,25,45,21,96,24,144.51,24.41"/><path class="cls-65" d="M6.91,250c44.28,3.55,92.28-4.45,132.28,16.55,12,10,25,18,40,23l9,3c40,11,80,12,120.93,12.15"/><path class="cls-66" d="M7.4,250.19c28.79.4,56.79-.6,85.79,3.4,17,3,33,6,47,17,13,10,24,20,40,25,42,11,85,15,127.87,14.9"/><path class="cls-67" d="M7.2,250c46,3.61,95-7.39,138,18.61,7,4,12,11,20,14,2,1,5,2,7,3,45,16,94,18,140.85,18.05"/><path class="cls-68" d="M7.13,250.06c40.67,1.36,82.78-1.9,121.69,12.43,9.4,3.46,16.18,8.58,23.54,15.25a75.09,75.09,0,0,0,24.12,14.56c19.76,7.61,41.82,10.43,62.74,12.85,24.17,2.79,48.49,3.74,72.8,4.21"/><path class="cls-69" d="M6.48,248c43.71,2.6,88.71-3.4,130.71,13.6,11,4,20,12,31,15,45,12,89,10,134.1,11.63"/><path class="cls-70" d="M7.07,249.8c41.12-.21,82.12-1.21,122.12,11.79,15,4,26,16,42,21,17,5,34,6,52,9,5,1,10,0,15,0a482.28,482.28,0,0,0,66,4"/><path class="cls-131" d="M8.07,248.88c5-.57,5.82-.07,16.32,0,9.59.14,29.33,0,49.13.73,43.34,1.33,65.38,5.86,74.86,9.38,10.56,3.66,13.75,7.46,31.77,10.63,9.38,1.57,20.81,3.1,43.13,5,20.09,2,65,3.59,94,3.78"/><path class="cls-72" d="M6,247.83c41.05.72,82.62-1.88,122.84,8.16,8.79,2.2,17.38,4.47,24.87,9.84,2,1.41,2.88,2.57,5.23,2.76a23.65,23.65,0,0,1,6.56,1.68,103.88,103.88,0,0,0,14,3.87c9.59,2,19.34,2.87,29.05,4,10.22,1.15,20.36,2.66,30.64,3.31,23.65,1.49,47.37.51,71,1.74"/><path class="cls-132" d="M7.75,248.91c4.86-.59,5.7-.08,16,0,9.38.15,28.7,0,48.08.78,42.41,1.4,64,6.18,73.26,9.89,10.32,3.87,13.45,7.88,31.09,11.22,9.18,1.66,20.35,3.27,42.2,5.28,19.66,2.09,63.56,3.79,92,4"/><path class="cls-133" d="M8.14,249c4.86-.7,5.68-.09,15.94,0,9.36.17,28.64.05,48,.92,42.33,1.65,63.84,7.31,73.11,11.69,10.3,4.58,13.42,9.31,31,13.27,9.16,2,20.32,3.86,42.12,6.24,19.61,2.46,63.42,4.48,91.76,4.71"/><path class="cls-134" d="M6.46,248.54c33.73.05,66.73.05,100.73,2.05,18,2,36,4,53,12,50,11,102,9,153.08,10.71"/><path class="cls-135" d="M8.16,248.86c4.83-.41,5.65-.06,15.85,0,9.31.1,28.48,0,47.72.52,42.1.95,63.49,4.18,72.71,6.68,10.25,2.61,13.36,5.31,30.86,7.57,9.11,1.12,20.21,2.21,41.89,3.56,19.51,1.41,63.08,2.56,91.27,2.7"/><path class="cls-136" d="M6.45,248.29c39.74.3,79.74-.7,120.74,2.3,14,2,29,5,43,6,46,5,91,5,136.37,5"/><path class="cls-13" d="M10.48,246.83c-1.81.47,3.91.17,17-.19,12.72-.4,31.6-.94,47.74-1.89,35-1.79,51.82-5.47,63.58-8,11.66-3.46,23.13-5.65,41.29-8,8.44-1.26,20.82-2.61,38.59-4.28,18.91-1.63,43.21-3.59,101.83-5.09"/><path class="cls-14" d="M10.48,246.94c-1.8.38,3.92.14,17-.15,12.74-.32,31.64-.75,47.81-1.51,35-1.43,51.89-4.36,63.66-6.42,11.68-2.77,23.17-4.51,41.35-6.42,8.46-1,20.86-2.08,38.65-3.42,18.94-1.3,43.27-2.86,102-4.06"/><path class="cls-25" d="M16,247.88c-2.65-.27,25.08.51,64-3.72,18-1.93,33.31-5.64,43-9.54,10.08-3.9,15.65-7.82,22.24-10,11.93-7.46,24.37-7.09,41.69-14.6,9-3,21-8.44,44.38-13,22-4.73,61.46-7.32,96.86-8.37"/><path class="cls-30" d="M5.85,247.37c14.24-4.7,28.75-8.57,43.39-11.84,12.7-2.83,25.35-5.64,37.73-9.71,11-3.61,21-8.76,31.06-14.45,10.21-5.78,20.27-9.46,32.11-9.81,11.11-.32,21.45-.66,32.23-3.78,7.94-2.3,15.6-5.46,23.35-8.33q16.22-6,32.88-10.62c23.22-6.41,46.72-11.79,69.76-18.84q4.33-1.32,8.63-2.73"/><path class="cls-85" d="M5.65,246.83c5.54-2.24,10.54-5.24,16.54-7.24,16-5,31-11,48-15,11-4,21-9,32-15,14-9,25-22,42-24,15-1,30-1,44-8,37-20,75-31,114-46,4-2,9-4,12.95-5.86"/><path class="cls-137" d="M9.59,245.34a351.92,351.92,0,0,1,53.79-19.93c15.58-5.34,31.28-11.53,41.89-18.95,11.06-7.24,18.14-15,26.52-19.49,7.65-5.33,15.83-6,24-6.07,8.3-.14,16.34,0,27.56-4.87,10.83-4,26.42-14.65,50-24.31s55.61-19.69,83.87-32.84"/><circle class="cls-138" cx="286.27" cy="93.15" r="2.81"/><circle class="cls-138" cx="315.41" cy="19.66" r="1.11"/><circle class="cls-138" cx="309.36" cy="1.59" r="1.59"/><circle class="cls-138" cx="310.39" cy="96.9" r="2.02"/><circle class="cls-138" cx="321.54" cy="11.12" r="4.61"/><circle class="cls-138" cx="318.25" cy="24.76" r="2.86"/><circle class="cls-138" cx="315.57" cy="48.57" r="2.79"/><circle class="cls-138" cx="309.08" cy="32.24" r="2.82"/><circle class="cls-138" cx="315.57" cy="62.88" r="2.8"/><circle class="cls-138" cx="319.36" cy="53.86" r="2.81"/><circle class="cls-138" cx="311.56" cy="37.67" r="1.8"/><circle class="cls-138" cx="267.72" cy="67.31" r="2.82"/><circle class="cls-138" cx="264.9" cy="92.62" r="2.82"/><circle class="cls-138" cx="310.39" cy="76.71" r="2.07"/><circle class="cls-138" cx="311.21" cy="85.44" r="4.35"/><circle class="cls-138" cx="316.55" cy="95.5" r="1.4"/><circle class="cls-138" cx="312.78" cy="102.66" r="1.26"/><circle class="cls-138" cx="319.87" cy="101.39" r="2.83"/><circle class="cls-138" cx="241.6" cy="92.62" r="2.83"/><circle class="cls-138" cx="289.94" cy="165.25" r="1.44"/><circle class="cls-138" cx="310.49" cy="116.97" r="0.64"/><circle class="cls-138" cx="307.56" cy="113.49" r="1.69"/><circle class="cls-138" cx="309.66" cy="121.46" r="2.82"/><circle class="cls-138" cx="315.15" cy="126.87" r="2.85"/><circle class="cls-138" cx="311.68" cy="133.47" r="1.44"/><circle class="cls-138" cx="304.53" cy="149.41" r="2.77"/><circle class="cls-138" cx="308.28" cy="154.73" r="1.39"/><circle class="cls-138" cx="304.79" cy="126.48" r="2.77"/><circle class="cls-138" cx="314.53" cy="151.28" r="2.85"/><circle class="cls-138" cx="306.42" cy="161.95" r="2.82"/><circle class="cls-138" cx="310.55" cy="165.25" r="1.32"/><circle class="cls-138" cx="318.72" cy="157.29" r="2.85"/><circle class="cls-139" cx="216.8" cy="190.14" r="2.85"/><circle class="cls-138" cx="311.87" cy="173.87" r="2.79"/><path class="cls-140" d="M5.92,247.13c.08,2.25,21.08-9,53-16,15.41-4.32,31.24-9,42-14.69,11.21-5.57,18.44-11.68,26.57-15.14,8.33-5,15.32-4.69,23.35-4.85a75.27,75.27,0,0,0,27.58-4.83c11.22-2.77,24.91-10.86,48.7-18.71,22.54-7.81,59.88-14.67,83.15-26.47"/><path class="cls-140" d="M5.76,247.29c7.43-3.7,15.43-4.7,23.43-7.7,22-6,44-9,65-18,13-6,25-14,38-20,4-1,8-3,12-3,14,0,28-1,42-5,19-7,36-15,56-20,1,0,3-2,4-2,24-6,46-12,69.17-19.89"/><circle class="cls-138" cx="317.39" cy="193.96" r="2.84"/><circle class="cls-138" cx="313.32" cy="180.04" r="1.44"/><circle class="cls-138" cx="318.14" cy="167.78" r="4.82"/><circle class="cls-138" cx="329.18" cy="194.3" r="0.83"/><circle class="cls-138" cx="318.07" cy="201.01" r="1.93"/><circle class="cls-138" cx="310.66" cy="207.03" r="2.76"/><circle class="cls-138" cx="321.01" cy="219.43" r="1.66"/><path class="cls-140" d="M16,248c-2.66-.24,25.16.46,64.2-3.37,18.08-1.75,33.41-5.1,43.17-8.64,10.11-3.53,15.7-7.08,22.31-9.09,12-6.75,24.45-6.42,41.83-13.22,9-2.77,21.1-7.65,44.52-11.78,22.12-4.28,61.66-6.62,97.18-7.57"/><circle class="cls-138" cx="258.12" cy="230.89" r="2.77"/><circle class="cls-138" cx="310.39" cy="229.94" r="4.6"/><circle class="cls-138" cx="318.25" cy="216.35" r="1.43"/><circle class="cls-138" cx="321.14" cy="225.05" r="1.61"/><circle class="cls-138" cx="309.98" cy="236.39" r="1.41"/><circle class="cls-138" cx="310.8" cy="242.07" r="1.46"/><circle class="cls-138" cx="311.87" cy="223.92" r="1.07"/><path class="cls-140" d="M7.12,251.27c35.07-3.68,71.07-2.68,106.07-10.68,62-21,129-27,194.45-26.47"/><circle class="cls-138" cx="298.75" cy="251.17" r="2.81"/><circle class="cls-138" cx="303.16" cy="259.12" r="0.96"/><circle class="cls-138" cx="318.25" cy="252.12" r="2.79"/><circle class="cls-138" cx="309.33" cy="255.84" r="2.21"/><circle class="cls-138" cx="306.65" cy="261.42" r="1.39"/><circle class="cls-138" cx="310.06" cy="283.65" r="0.92"/><circle class="cls-138" cx="308.9" cy="264.36" r="1.55"/><circle class="cls-138" cx="307.71" cy="278.59" r="3.73"/><circle class="cls-138" cx="302.51" cy="288.36" r="0.95"/><circle class="cls-138" cx="309.98" cy="285.8" r="0.95"/><circle class="cls-138" cx="325.04" cy="283" r="2.8"/><circle class="cls-138" cx="303.46" cy="284.93" r="1.13"/><circle class="cls-138" cx="317.34" cy="278.59" r="2.8"/><circle class="cls-138" cx="304.98" cy="295.73" r="2.82"/><circle class="cls-138" cx="314.2" cy="315" r="1.96"/><circle class="cls-138" cx="313.08" cy="303.84" r="1.1"/><circle class="cls-138" cx="309.33" cy="304.84" r="1"/><circle class="cls-138" cx="310.52" cy="310.15" r="2.87"/><circle class="cls-138" cx="309.33" cy="324.76" r="2.31"/><circle class="cls-138" cx="310.94" cy="318.96" r="0.45"/><circle class="cls-138" cx="314.37" cy="321.17" r="1.8"/><circle class="cls-138" cx="318.47" cy="334.13" r="2.8"/><circle class="cls-138" cx="323.82" cy="350.44" r="3.56"/><circle class="cls-138" cx="316.64" cy="339.79" r="1.72"/><circle class="cls-138" cx="308.69" cy="353.76" r="2.06"/><circle class="cls-138" cx="309.62" cy="348.19" r="2.99"/><circle class="cls-138" cx="313.39" cy="355.38" r="1.63"/><circle class="cls-138" cx="309.33" cy="364.1" r="1.91"/><circle class="cls-138" cx="312.88" cy="373.79" r="1.2"/><circle class="cls-138" cx="311.32" cy="360.82" r="0.91"/><circle class="cls-138" cx="315.18" cy="368.43" r="2.85"/><circle class="cls-138" cx="310.41" cy="378.93" r="1.11"/><circle class="cls-138" cx="304.71" cy="375.74" r="2.79"/><circle class="cls-138" cx="305.84" cy="369.59" r="2.85"/><circle class="cls-138" cx="305.18" cy="394.13" r="2.04"/><circle class="cls-138" cx="317.57" cy="425.48" r="1.66"/><circle class="cls-138" cx="306.97" cy="410.68" r="2.83"/><circle class="cls-138" cx="306.22" cy="419.69" r="2.83"/><circle class="cls-138" cx="305.18" cy="403.63" r="1.79"/><circle class="cls-138" cx="302.79" cy="399.33" r="1.79"/><circle class="cls-138" cx="304.14" cy="415.3" r="1.31"/><circle class="cls-138" cx="301.44" cy="409.35" r="1.05"/><circle class="cls-138" cx="309.92" cy="406.29" r="1.05"/><circle class="cls-138" cx="315.67" cy="429.4" r="0.84"/><circle class="cls-138" cx="316.72" cy="439.29" r="0.84"/><circle class="cls-138" cx="306.97" cy="425.06" r="1.61"/><circle class="cls-138" cx="310.52" cy="433.1" r="2.77"/><circle class="cls-138" cx="313.66" cy="444.06" r="1.72"/><circle class="cls-138" cx="310.52" cy="459.41" r="2.85"/><circle class="cls-138" cx="316.12" cy="460.24" r="0.83"/><circle class="cls-138" cx="316.63" cy="464.01" r="2.59"/><circle class="cls-138" cx="316.2" cy="454.96" r="1.85"/><circle class="cls-138" cx="312.9" cy="477.94" r="2.82"/><circle class="cls-138" cx="312.36" cy="469.19" r="2.59"/><circle class="cls-138" cx="308.71" cy="471.37" r="0.95"/><circle class="cls-138" cx="316.13" cy="487.49" r="2.08"/><circle class="cls-138" cx="312.9" cy="491.66" r="2.08"/><circle class="cls-138" cx="315.07" cy="498.1" r="2.8"/><circle class="cls-138" cx="308.71" cy="483.06" r="2.35"/><circle class="cls-138" cx="310.09" cy="502.31" r="2.08"/><circle class="cls-138" cx="132.79" cy="282.61" r="0.97"/><circle class="cls-138" cx="155.97" cy="230.83" r="0.97"/><circle class="cls-138" cx="134.24" cy="222.12" r="0.97"/><circle class="cls-138" cx="118.08" cy="263.88" r="0.97"/><circle class="cls-138" cx="87.23" cy="186.16" r="0.97"/><circle class="cls-138" cx="104.31" cy="171.22" r="0.97"/><circle class="cls-138" cx="108.2" cy="162.59" r="0.97"/><circle class="cls-138" cx="179.48" cy="376.71" r="0.97"/><circle class="cls-138" cx="179.48" cy="391.18" r="0.97"/><circle class="cls-138" cx="202.08" cy="343.9" r="0.97"/><circle class="cls-138" cx="198.78" cy="368.98" r="0.97"/><circle class="cls-138" cx="139.88" cy="345.27" r="0.97"/><circle class="cls-138" cx="256.21" cy="62.45" r="0.97"/><circle class="cls-138" cx="318.25" cy="68.29" r="0.97"/><circle class="cls-138" cx="317.39" cy="118.91" r="0.97"/><circle class="cls-138" cx="260.02" cy="164.67" r="0.97"/><circle class="cls-138" cx="312.59" cy="6.5" r="0.97"/><circle class="cls-138" cx="280.29" cy="294.83" r="0.97"/><circle class="cls-138" cx="235.44" cy="242.44" r="0.97"/><circle class="cls-138" cx="234.07" cy="276.52" r="0.97"/><circle class="cls-138" cx="308.75" cy="270.28" r="0.97"/><circle class="cls-138" cx="308.51" cy="272.55" r="0.83"/><circle class="cls-138" cx="313.22" cy="273.38" r="0.97"/><circle class="cls-138" cx="313.01" cy="266.81" r="0.97"/><circle class="cls-138" cx="240.22" cy="169.82" r="0.97"/><circle class="cls-138" cx="234.68" cy="140.4" r="0.97"/><circle class="cls-138" cx="328.2" cy="188.69" r="0.97"/><circle class="cls-138" cx="322.67" cy="190.46" r="0.97"/><circle class="cls-138" cx="323.54" cy="196.07" r="0.74"/><circle class="cls-138" cx="30.6" cy="227.71" r="0.97"/><circle class="cls-138" cx="32.55" cy="240.51" r="0.97"/><circle class="cls-139" cx="17.54" cy="237.19" r="0.68"/><circle class="cls-138" cx="20.9" cy="239.54" r="0.97"/><circle class="cls-138" cx="22.84" cy="245.7" r="0.97"/><circle class="cls-138" cx="16.56" cy="254.69" r="0.97"/><circle class="cls-138" cx="286.97" cy="353.76" r="0.97"/><circle class="cls-138" cx="295.98" cy="427.14" r="0.97"/><circle class="cls-138" cx="260.98" cy="394.69" r="0.97"/><circle class="cls-138" cx="267.71" cy="434.9" r="0.97"/><circle class="cls-138" cx="301.5" cy="452.11" r="0.97"/><circle class="cls-138" cx="266.74" cy="460.39" r="0.97"/><circle class="cls-138" cx="281.12" cy="224.89" r="0.97"/><circle class="cls-138" cx="256.33" cy="263.38" r="0.97"/><circle class="cls-139" cx="120.18" cy="161.17" r="0.97"/><circle class="cls-139" cx="88.88" cy="226.74" r="0.97"/><circle class="cls-139" cx="94.2" cy="199.29" r="0.97"/><circle class="cls-139" cx="231.76" cy="331.2" r="2.85"/><circle class="cls-139" cx="104.98" cy="301.32" r="1.95"/><circle class="cls-138" cx="166.45" cy="130.54" r="2.3"/><circle class="cls-138" cx="219.1" cy="166.68" r="2.99"/><circle class="cls-138" cx="212.96" cy="274.27" r="2.79"/><circle class="cls-139" cx="241" cy="434.18" r="0.97"/><circle class="cls-138" cx="252.62" cy="358.59" r="0.97"/><circle class="cls-139" cx="23.35" cy="258.62" r="0.97"/><circle class="cls-138" cx="74.27" cy="254.96" r="0.97"/><circle class="cls-138" cx="78.6" cy="279.14" r="0.97"/><circle class="cls-138" cx="52.88" cy="269.45" r="0.97"/><circle class="cls-138" cx="54.17" cy="209.47" r="0.97"/><circle class="cls-138" cx="103.34" cy="237.19" r="0.97"/><circle class="cls-138" cx="120.24" cy="245.96" r="0.97"/><circle class="cls-138" cx="62.28" cy="233.62" r="0.97"/><circle class="cls-138" cx="38.6" cy="268.47" r="0.97"/><circle class="cls-138" cx="65.47" cy="275.18" r="0.97"/><circle class="cls-138" cx="46.51" cy="237.19" r="0.97"/><circle class="cls-138" cx="52.58" cy="230.65" r="0.97"/><circle class="cls-138" cx="43.13" cy="217.24" r="0.97"/><circle class="cls-138" cx="27.17" cy="250.89" r="0.97"/><circle class="cls-138" cx="23.82" cy="242.61" r="0.97"/><circle class="cls-138" cx="28.65" cy="258.62" r="0.97"/><circle class="cls-141" cx="5.41" cy="247.73" r="5.41"/></g></g></svg>