<svg xmlns="http://www.w3.org/2000/svg" viewBox="0 0 257.85 166.95"><defs><style>.cls-1{fill:#7db7c9;}.cls-2{fill:#58effb;}.cls-3{fill:#d2d8e7;}.cls-10,.cls-11,.cls-4{fill:#1d1d1b;}.cls-11,.cls-4,.cls-7,.cls-9{stroke:#a5a6a9;stroke-miterlimit:10;}.cls-5{fill:#fff;}.cls-6{fill:#a5a6a9;}.cls-7,.cls-9{fill:none;}.cls-11,.cls-7{stroke-width:2px;}.cls-8{fill:#59595b;}.cls-12{font-size:9.63px;font-family:MyriadPro-Bold, Myriad Pro;font-weight:700;}.cls-12,.cls-13{fill:#ff11c7;}</style></defs><g id="Layer_2" data-name="Layer 2"><g id="Device"><path class="cls-1" d="M175.8,140.18l-.65-.86a66.94,66.94,0,0,0,19.29-23,66.57,66.57,0,0,0-59.38-96.77V18.47a67.64,67.64,0,0,1,51.85,111.16A68.07,68.07,0,0,1,175.8,140.18Z"/><polygon class="cls-2" points="138.64 22.21 132.62 19.17 138.64 16.14 138.64 22.21"/><path class="cls-3" d="M163.1,147.12l-.44-1,1.3-.59.46,1C164,146.72,163.54,146.92,163.1,147.12Z"/><path class="cls-3" d="M135.64,153c-.67,0-1.36,0-2,0l0-1.08c.94,0,1.9,0,2.84,0l0,1.08Zm2.3,0,0-1.08c.94,0,1.89-.09,2.83-.16l.08,1.08C139.87,152.85,138.9,152.91,137.94,152.94Zm-5.77-.05c-1,0-1.93-.12-2.89-.21l.11-1.08c.94.09,1.89.16,2.83.21Zm10.09-.24-.1-1.07c.93-.1,1.88-.21,2.82-.34l.15,1.06C144.18,152.44,143.22,152.56,142.26,152.65Zm-14.41-.12c-.95-.11-1.92-.25-2.86-.4l.17-1.06c.93.14,1.88.27,2.81.38Zm18.71-.44-.18-1.07c.93-.15,1.87-.33,2.79-.52l.22,1.06C148.46,151.75,147.5,151.93,146.56,152.09Zm-23-.2c-.94-.17-1.89-.37-2.83-.58l.24-1.05c.92.21,1.86.4,2.79.57Zm27.24-.65-.24-1.05c.92-.21,1.84-.45,2.75-.7l.29,1C152.68,150.79,151.74,151,150.8,151.24ZM119.33,151c-.93-.23-1.87-.48-2.79-.75l.31-1c.9.27,1.82.51,2.74.74Zm35.66-.85-.31-1c.9-.27,1.81-.57,2.7-.88l.36,1C156.83,149.56,155.91,149.86,155,150.13Zm-39.83-.33c-.91-.29-1.83-.6-2.73-.93l.37-1c.88.32,1.79.63,2.69.91Zm43.94-1.05-.38-1c.88-.33,1.77-.68,2.64-1l.42,1C160.9,148.06,160,148.42,159.1,148.75Zm-48-.38c-.89-.35-1.79-.72-2.67-1.11l.44-1c.86.38,1.74.75,2.62,1.09Zm-4-1.7c-.87-.4-1.74-.83-2.59-1.27l.49-1c.84.43,1.7.86,2.55,1.25Zm-3.87-1.94c-.84-.46-1.68-.94-2.5-1.43l.55-.93c.81.48,1.64,1,2.47,1.41Zm-3.73-2.19c-.81-.51-1.62-1-2.41-1.59l.61-.88c.78.53,1.58,1.06,2.37,1.56Zm-3.59-2.42c-.77-.56-1.55-1.14-2.3-1.74l.67-.84c.74.58,1.5,1.16,2.26,1.71Zm-3.42-2.64c-.74-.61-1.47-1.24-2.18-1.88l.72-.8c.7.62,1.42,1.25,2.15,1.85Zm-3.24-2.86c-.7-.65-1.39-1.33-2.06-2l.77-.76c.66.67,1.34,1.34,2,2Zm-3.06-3.05c-.65-.7-1.3-1.42-1.92-2.15l.82-.7c.61.71,1.25,1.42,1.89,2.11Zm-2.85-3.25c-.6-.74-1.21-1.5-1.78-2.27l.86-.65c.57.76,1.16,1.51,1.76,2.23Zm-2.64-3.43c-.56-.78-1.11-1.58-1.63-2.38l.9-.59c.52.79,1.06,1.57,1.61,2.34Zm-2.41-3.59c-.51-.81-1-1.65-1.48-2.48l.94-.53c.46.82,1,1.64,1.45,2.43Zm-2.18-3.74c-.46-.84-.9-1.71-1.32-2.57l1-.47c.41.85.85,1.7,1.3,2.52Zm-1.94-3.87c-.41-.87-.79-1.76-1.16-2.65l1-.41c.36.87.74,1.75,1.14,2.6Zm-1.7-4c-.34-.89-.68-1.81-1-2.71l1-.35c.3.89.63,1.79,1,2.67ZM71,105.61c-.29-.91-.57-1.84-.81-2.77l1-.28c.24.91.51,1.83.8,2.73Zm-1.18-4.16q-.35-1.41-.63-2.82l1.06-.22c.19.93.4,1.86.62,2.78ZM69,97.21c-.17-.94-.32-1.9-.45-2.85l1.07-.15c.13.94.28,1.88.45,2.81Zm-.63-4.29c-.1-1-.19-1.92-.26-2.87L69.15,90c.06.94.15,1.9.26,2.83ZM68,88.61c0-1-.07-1.93-.07-2.89H69c0,.94,0,1.89.07,2.83Zm1-4.32H67.91c0-1,0-1.93.11-2.89l1.08.07C69,82.4,69,83.35,69,84.29ZM69.2,80,68.12,80c.08-1,.17-1.92.29-2.87l1.07.13C69.37,78.15,69.27,79.1,69.2,80Zm.47-4.24-1.07-.15c.14-1,.3-1.91.48-2.85l1.06.2C70,73.93,69.81,74.87,69.67,75.8Zm.75-4.19-1.06-.22c.2-.94.42-1.89.66-2.82l1,.27C70.83,69.76,70.61,70.69,70.42,71.61Zm1-4.14-1-.29c.25-.92.53-1.85.83-2.76l1,.33C72,65.65,71.68,66.56,71.43,67.47ZM72.7,63.4l-1-.35c.31-.91.65-1.82,1-2.71l1,.4C73.34,61.62,73,62.51,72.7,63.4Zm1.53-4-1-.42c.37-.89.77-1.77,1.18-2.64l1,.46C75,57.68,74.59,58.56,74.23,59.43Z"/><path class="cls-3" d="M76,55.53l-1-.48c.21-.43.44-.87.66-1.29l1,.5Z"/><rect class="cls-4" x="0.5" y="0.5" width="256.85" height="165.95" rx="11.53"/><rect class="cls-5" x="99.84" y="112.01" width="36.45" height="23.66" rx="2.86"/><path class="cls-6" d="M100,115.33a.31.31,0,0,1-.15-.27v-.6l18.22,11.16,18.16-11.13a0,0,0,0,1,.05,0l0,.54a.35.35,0,0,1-.17.27L118.06,126.4Z"/><path class="cls-7" d="M130.74,39.83H95.14a7,7,0,0,0-7,7V58.94a7,7,0,0,0,7,7h6.29l7.72,13.38,7.73-13.38h13.86a7,7,0,0,0,6.95-7V46.78A7,7,0,0,0,130.74,39.83Z"/><circle class="cls-2" cx="98.03" cy="52.75" r="1.94"/><circle class="cls-2" cx="108.43" cy="52.75" r="1.94"/><circle class="cls-2" cx="118.14" cy="52.75" r="1.94"/><path class="cls-6" d="M163.84,116.43,144,128.34a2.92,2.92,0,0,1-3,0L96.53,102a2.47,2.47,0,0,1-1.2-2l-.08-3.52,22.58-11.86L165,110.74v3.69A2.33,2.33,0,0,1,163.84,116.43Z"/><path class="cls-8" d="M164.12,112.18l-19.43,11.68a4.64,4.64,0,0,1-4.76,0L96.13,98a1.8,1.8,0,0,1,0-3.11l20.08-11.56a3.21,3.21,0,0,1,3.2,0l44.67,25.88A1.76,1.76,0,0,1,164.12,112.18Z"/><path class="cls-9" d="M105.21,91.17a.11.11,0,0,1-.09,0,.1.1,0,0,1,0-.13L112,87.15a.1.1,0,0,1,.13,0,.1.1,0,0,1,0,.13l-6.86,3.85Z"/><path class="cls-10" d="M99.33,96.42l18.81-11a1.8,1.8,0,0,1,1.82,0l34.58,20a1.09,1.09,0,0,1,0,1.89l-18.92,10.85a2.24,2.24,0,0,1-2.24,0L99.33,98A.92.92,0,0,1,99.33,96.42Z"/><path class="cls-6" d="M147.09,114.29c-.33-1.05,1.16-2,2.89-1.76a2.19,2.19,0,0,1,1.93,1.18c.33,1.05-1.16,2-2.89,1.76A2.21,2.21,0,0,1,147.09,114.29Z"/><path class="cls-11" d="M130.26,75.59h-14a2.73,2.73,0,0,0-2.73,2.73V83.1a2.73,2.73,0,0,0,2.73,2.73h2.47l3,5.26,3-5.26h5.45A2.73,2.73,0,0,0,133,83.1V78.32A2.73,2.73,0,0,0,130.26,75.59Z"/><text class="cls-12" transform="translate(118.72 83.32)">@</text><path class="cls-13" d="M140,101l-3.74-2.13a.75.75,0,0,0-.74,0l-11.47,6.57a.62.62,0,0,0,0,1.07l3.31,1.93.23.13,2.66,1.72-.65-2.43L140,101.71A.39.39,0,0,0,140,101Z"/></g></g></svg>