<svg xmlns="http://www.w3.org/2000/svg" viewBox="0 0 294.54 298.94"><defs><style>.cls-1{fill:#7db7c9;}.cls-2{fill:#58effb;}.cls-3{fill:#d2d8e7;}.cls-4{fill:#a5a6a9;}.cls-5,.cls-8{fill:none;}.cls-10,.cls-5,.cls-8{stroke:#a5a6a9;stroke-miterlimit:10;}.cls-10,.cls-5{stroke-width:2px;}.cls-11,.cls-6{fill:#ff11c7;}.cls-7{fill:#59595b;}.cls-10,.cls-9{fill:#1d1d1b;}.cls-11{font-size:21.03px;font-family:MyriadPro-Bold, Myriad Pro;font-weight:700;}</style></defs><g id="Layer_2" data-name="Layer 2"><g id="Device"><path class="cls-1" d="M235.71,271l-1.43-1.88a145.92,145.92,0,0,0,42.14-50.25,144.6,144.6,0,0,0,11.66-31.48,146.23,146.23,0,0,0,4.1-34.44A145.35,145.35,0,0,0,146.7,7.45V5.09A147.79,147.79,0,0,1,260,247.93,149.17,149.17,0,0,1,235.71,271Z"/><polygon class="cls-2" points="154.53 13.25 141.38 6.63 154.53 0 154.53 13.25"/><path class="cls-3" d="M208,286.13,207,284c.94-.42,1.9-.86,2.84-1.3l1,2.13C209.9,285.26,208.93,285.71,208,286.13Z"/><path class="cls-3" d="M148,298.94c-1.47,0-3,0-4.43-.07l.07-2.36c2.06.06,4.15.08,6.21.05l0,2.36Zm5-.09-.08-2.36c2.06-.07,4.14-.19,6.2-.34l.18,2.35C157.21,298.66,155.09,298.78,153,298.85Zm-12.62-.11c-2.09-.11-4.21-.26-6.29-.46l.22-2.35c2.05.19,4.14.35,6.19.45Zm22.06-.52-.23-2.35c2-.2,4.12-.45,6.16-.74l.33,2.34C166.63,297.76,164.52,298,162.44,298.22ZM131,298c-2.08-.24-4.18-.53-6.25-.86l.37-2.33c2,.32,4.11.61,6.15.85Zm40.87-1-.38-2.33c2-.34,4.08-.72,6.1-1.14l.48,2.31C176,296.26,173.89,296.65,171.82,297Zm-50.23-.43c-2.06-.38-4.14-.8-6.18-1.26l.52-2.3c2,.45,4.06.87,6.08,1.24Zm59.51-1.41-.53-2.3c2-.46,4-1,6-1.53l.63,2.27C185.2,294.15,183.14,294.68,181.1,295.15Zm-68.76-.58c-2-.5-4.08-1.06-6.09-1.65l.67-2.26c2,.58,4,1.13,6,1.62Zm77.9-1.85-.68-2.26c2-.59,4-1.24,5.91-1.91l.77,2.23C194.27,291.46,192.25,292.12,190.24,292.72Zm-87-.72c-2-.63-4-1.31-6-2l.81-2.22c1.93.71,3.91,1.38,5.87,2Zm96-2.29-.82-2.21c1.93-.72,3.87-1.49,5.77-2.29l.92,2.18C203.15,288.2,201.17,289,199.21,289.71Zm-104.89-.85c-1.95-.76-3.91-1.57-5.83-2.41l1-2.16c1.88.83,3.81,1.62,5.73,2.37Zm-8.7-3.7c-1.9-.88-3.81-1.81-5.66-2.77l1.08-2.1c1.83.94,3.7,1.86,5.57,2.73Zm-8.45-4.25c-1.84-1-3.68-2.05-5.47-3.12l1.21-2c1.77,1.06,3.58,2.09,5.39,3.08ZM69,276.14c-1.78-1.12-3.55-2.28-5.27-3.47l1.35-1.94c1.69,1.16,3.43,2.31,5.17,3.41Zm-7.84-5.29c-1.69-1.22-3.38-2.5-5-3.8l1.46-1.85c1.61,1.28,3.28,2.53,5,3.74Zm-7.47-5.77c-1.62-1.33-3.22-2.71-4.78-4.11l1.58-1.76c1.53,1.38,3.11,2.74,4.7,4.05Zm-7.09-6.24c-1.53-1.43-3-2.91-4.5-4.41l1.69-1.65c1.44,1.47,2.92,2.93,4.42,4.34ZM40,252.16c-1.43-1.52-2.84-3.1-4.2-4.69l1.79-1.53c1.33,1.56,2.73,3.11,4.13,4.61Zm-6.23-7.09c-1.32-1.62-2.64-3.28-3.9-5l1.89-1.42c1.24,1.65,2.53,3.29,3.84,4.88ZM28,237.57c-1.23-1.69-2.43-3.44-3.58-5.19l2-1.3c1.13,1.73,2.31,3.45,3.51,5.12Zm-5.28-7.84c-1.11-1.77-2.2-3.6-3.23-5.42l2.05-1.16c1,1.79,2.09,3.58,3.18,5.32Zm-4.76-8.17c-1-1.84-2-3.73-2.89-5.61l2.12-1c.91,1.85,1.86,3.71,2.84,5.51Zm-4.24-8.46c-.88-1.9-1.73-3.85-2.53-5.78l2.18-.9c.79,1.9,1.62,3.82,2.49,5.69ZM10,204.39c-.76-1.95-1.48-3.95-2.16-5.93l2.24-.76c.66,2,1.37,3.91,2.12,5.84Zm-3.14-8.92c-.63-2-1.23-4-1.77-6.06l2.28-.61c.53,2,1.12,4,1.74,5.95Zm-2.56-9.11c-.5-2-1-4.11-1.38-6.16l2.31-.47c.41,2,.87,4.06,1.36,6.06Zm-2-9.26c-.37-2.06-.7-4.16-1-6.23l2.33-.32c.28,2,.61,4.11,1,6.14ZM.94,167.74c-.24-2.08-.43-4.19-.58-6.28l2.35-.17c.15,2.06.34,4.14.57,6.18Zm-.77-9.43C.07,156.22,0,154.1,0,152l2.36,0c0,2.06.07,4.15.17,6.21Zm2.21-9.42-2.36,0c0-2.09.11-4.21.23-6.3l2.36.14C2.49,144.74,2.41,146.83,2.38,148.89Zm.44-9.3L.47,139.4c.16-2.08.38-4.19.63-6.27l2.35.29C3.2,135.46,3,137.54,2.82,139.59Zm1-9.25L1.52,130c.3-2.07.65-4.16,1-6.22l2.32.44C4.5,126.24,4.15,128.3,3.86,130.34Zm1.63-9.16-2.31-.49c.43-2,.91-4.11,1.43-6.14l2.29.58C6.39,117.13,5.91,119.16,5.49,121.18Zm2.21-9.05-2.28-.63c.56-2,1.17-4,1.82-6l2.25.73C8.85,108.15,8.25,110.15,7.7,112.13Zm2.77-8.88-2.23-.78c.69-2,1.43-4,2.2-5.91l2.2.87C11.88,99.35,11.15,101.3,10.47,103.25Zm3.34-8.69-2.17-.91c.81-1.93,1.67-3.87,2.57-5.76l2.13,1C15.46,90.76,14.61,92.66,13.81,94.56Z"/><path class="cls-3" d="M17.72,86.06,15.61,85c.47-.94.95-1.89,1.44-2.82l2.09,1.1C18.66,84.19,18.18,85.13,17.72,86.06Z"/><rect class="cls-3" x="69.75" y="209.43" width="79.63" height="51.68" rx="6.24"/><path class="cls-4" d="M70.09,216.69a.71.71,0,0,1-.34-.6v-1.3l39.82,24.37,39.67-24.3a.07.07,0,0,1,.11.06l.06,1.17a.81.81,0,0,1-.36.6l-39.48,24.18Z"/><path class="cls-5" d="M137.27,51.75H59.49A15.18,15.18,0,0,0,44.31,66.93V93.5a15.19,15.19,0,0,0,15.18,15.19H73.23l16.88,29.22L107,108.69h30.29A15.18,15.18,0,0,0,152.45,93.5V66.93A15.18,15.18,0,0,0,137.27,51.75Z"/><circle class="cls-2" cx="65.8" cy="79.98" r="4.25"/><circle class="cls-2" cx="88.53" cy="79.98" r="4.25"/><circle class="cls-2" cx="109.73" cy="79.98" r="4.25"/><path class="cls-6" d="M209.58,219.08l-43.41,26a6.39,6.39,0,0,1-6.54,0l-97.1-57.68A5.32,5.32,0,0,1,59.92,183l-.18-7.71,49.33-25.9,103,57.29v8.06A5.07,5.07,0,0,1,209.58,219.08Z"/><path class="cls-7" d="M210.19,209.8l-42.45,25.52a10.15,10.15,0,0,1-10.4,0L61.67,178.72a3.93,3.93,0,0,1,0-6.79l43.87-25.26a7,7,0,0,1,7,0l97.58,56.53A3.83,3.83,0,0,1,210.19,209.8Z"/><path class="cls-8" d="M81.49,163.91a.21.21,0,0,1-.18-.11.2.2,0,0,1,.08-.28l15-8.4a.2.2,0,0,1,.28.08.21.21,0,0,1-.08.29l-15,8.39A.19.19,0,0,1,81.49,163.91Z"/><path class="cls-9" d="M68.66,175.37l41.09-24.1a3.94,3.94,0,0,1,4,0L189.25,195a2.38,2.38,0,0,1,0,4.13L147.9,222.8a4.85,4.85,0,0,1-4.9,0L68.65,178.82A2,2,0,0,1,68.66,175.37Z"/><path class="cls-4" d="M173,214.42c-.71-2.3,2.54-4.28,6.32-3.85,2.11.25,3.82,1.29,4.22,2.57.71,2.3-2.54,4.28-6.32,3.85C175.09,216.74,173.39,215.71,173,214.42Z"/><path class="cls-10" d="M136.21,129.87H105.64a6,6,0,0,0-6,6v10.45a6,6,0,0,0,6,6H111l6.63,11.49,6.63-11.49h11.91a6,6,0,0,0,6-6V135.83A6,6,0,0,0,136.21,129.87Z"/><text class="cls-11" transform="translate(111.02 146.76)">@</text><path class="cls-6" d="M157.55,185.44l-8.18-4.64a1.65,1.65,0,0,0-1.61,0L122.7,195.16a1.34,1.34,0,0,0,0,2.32l7.24,4.22.5.28,5.81,3.76-1.41-5.32,22.73-13.49A.86.86,0,0,0,157.55,185.44Z"/></g></g></svg>