<svg xmlns="http://www.w3.org/2000/svg" viewBox="0 0 275.16 279.27"><defs><style>.cls-1{fill:#7db7c9;}.cls-2{fill:#58effb;}.cls-11,.cls-3{fill:#ff11c7;}.cls-4{fill:#fff;}.cls-5{fill:#a5a6a9;}.cls-6,.cls-8{fill:none;}.cls-10,.cls-6,.cls-8{stroke:#a5a6a9;stroke-miterlimit:10;}.cls-10,.cls-6{stroke-width:2px;}.cls-7{fill:#59595b;}.cls-10,.cls-9{fill:#1d1d1b;}.cls-11{font-size:19.64px;font-family:MyriadPro-Bold, Myriad Pro;font-weight:700;}</style></defs><g id="Layer_2" data-name="Layer 2"><g id="Device"><path class="cls-1" d="M220.2,253.15l-1.33-1.76A135.56,135.56,0,0,0,273,142.87,135.8,135.8,0,0,0,137.05,7V4.75A138,138,0,0,1,275.16,142.87a138.88,138.88,0,0,1-3.89,32.69,137,137,0,0,1-11.07,29.89,138.74,138.74,0,0,1-40,47.7Z"/><polygon class="cls-2" points="144.36 12.38 132.08 6.19 144.36 0 144.36 12.38"/><path class="cls-3" d="M194.29,267.31l-.9-2,2.65-1.22.94,2C196.09,266.5,195.18,266.91,194.29,267.31Z"/><path class="cls-3" d="M138.23,279.27c-1.37,0-2.76,0-4.14-.06l.07-2.21c1.92.06,3.88.08,5.8.05l0,2.21Zm4.71-.08-.08-2.2c1.92-.07,3.87-.18,5.79-.33l.17,2.2C146.87,279,144.89,279.12,142.94,279.19Zm-11.79-.1c-2-.1-3.94-.25-5.88-.43l.21-2.2c1.91.18,3.86.33,5.78.42Zm20.6-.49-.21-2.19c1.91-.19,3.85-.43,5.75-.7l.31,2.19C155.67,278.17,153.7,278.41,151.75,278.6Zm-29.42-.25c-1.94-.23-3.9-.5-5.83-.81l.34-2.17c1.91.3,3.84.57,5.75.79Zm38.19-.9-.36-2.18c1.9-.31,3.82-.67,5.7-1.06l.45,2.16C164.4,276.77,162.45,277.13,160.52,277.45Zm-46.93-.4c-1.92-.35-3.86-.75-5.77-1.18l.48-2.15c1.88.43,3.79.82,5.68,1.16Zm55.6-1.32-.5-2.15c1.87-.43,3.76-.91,5.62-1.43l.59,2.13C173,274.8,171.09,275.29,169.19,275.73ZM105,275.19c-1.9-.47-3.81-1-5.69-1.54l.62-2.11c1.85.54,3.73,1,5.6,1.51Zm72.78-1.73-.64-2.11c1.84-.55,3.7-1.15,5.52-1.79l.72,2.09C181.48,272.29,179.6,272.9,177.73,273.46Zm-81.29-.67c-1.86-.59-3.74-1.23-5.57-1.9l.75-2.07c1.81.66,3.66,1.29,5.49,1.87Zm89.67-2.14-.77-2.07c1.8-.67,3.62-1.39,5.39-2.13l.86,2C189.78,269.24,187.94,270,186.11,270.65Zm-98-.79c-1.82-.71-3.65-1.47-5.44-2.25l.88-2c1.76.77,3.57,1.52,5.36,2.21ZM80,266.4c-1.77-.82-3.55-1.69-5.28-2.59l1-2c1.71.88,3.46,1.74,5.2,2.55Zm-7.89-4c-1.71-.93-3.43-1.92-5.11-2.92l1.14-1.89c1.64,1,3.34,1.95,5,2.87ZM64.48,258c-1.66-1-3.31-2.13-4.92-3.24l1.25-1.81c1.58,1.09,3.21,2.16,4.84,3.18ZM57.16,253c-1.59-1.14-3.17-2.33-4.7-3.54l1.37-1.73c1.51,1.19,3.06,2.36,4.62,3.49Zm-7-5.39c-1.5-1.24-3-2.53-4.45-3.84l1.47-1.64c1.43,1.28,2.9,2.56,4.39,3.78Zm-6.62-5.83c-1.42-1.34-2.84-2.72-4.2-4.12l1.58-1.54c1.34,1.37,2.73,2.74,4.13,4Zm-6.23-6.24c-1.33-1.42-2.65-2.9-3.93-4.38l1.68-1.43c1.25,1.45,2.55,2.9,3.86,4.3ZM31.51,229c-1.25-1.51-2.47-3.07-3.65-4.63L29.62,223c1.16,1.54,2.37,3.07,3.59,4.56Zm-5.39-7c-1.14-1.59-2.27-3.22-3.34-4.86l1.84-1.21c1.06,1.61,2.16,3.22,3.29,4.78Zm-4.93-7.34c-1-1.65-2.05-3.35-3-5.05l1.91-1.09c1,1.67,2,3.34,3,5ZM16.74,207c-.93-1.71-1.84-3.48-2.7-5.24l2-1c.84,1.73,1.73,3.46,2.65,5.15Zm-4-7.9c-.82-1.78-1.62-3.59-2.36-5.4l2-.84c.73,1.78,1.51,3.57,2.32,5.32ZM9.32,191c-.71-1.83-1.38-3.69-2-5.54l2.09-.71c.61,1.82,1.28,3.65,2,5.45Zm-2.93-8.34c-.59-1.87-1.15-3.77-1.66-5.66l2.13-.57c.5,1.85,1,3.73,1.63,5.56ZM4,174.1c-.47-1.9-.91-3.84-1.29-5.75l2.16-.44c.38,1.89.81,3.79,1.27,5.66Zm-1.85-8.65c-.34-1.92-.65-3.88-.91-5.82l2.18-.3c.26,1.91.56,3.84.9,5.73ZM.87,156.71c-.22-2-.4-3.92-.53-5.87l2.19-.16c.14,1.92.32,3.87.54,5.78ZM.16,147.9C.07,145.94,0,144,0,142l2.2,0c0,1.93.07,3.88.16,5.8Zm2.06-8.81-2.21,0c0-2,.11-3.94.22-5.89l2.2.13C2.32,135.22,2.25,137.17,2.22,139.09Zm.41-8.68-2.19-.18c.15-1.95.35-3.92.59-5.86l2.19.27C3,126.55,2.79,128.49,2.63,130.41Zm1-8.64-2.19-.32c.28-1.94.61-3.89,1-5.81l2.17.41C4.2,117.94,3.88,119.86,3.61,121.77Zm1.52-8.57L3,112.75c.4-1.91.85-3.84,1.34-5.74l2.13.55C6,109.42,5.52,111.32,5.13,113.2Zm2.06-8.44-2.13-.59c.53-1.89,1.1-3.79,1.7-5.65l2.1.69C8.27,101,7.7,102.9,7.19,104.76Zm2.59-8.3L7.7,95.73C8.35,93.89,9,92,9.76,90.21l2.05.81C11.1,92.81,10.42,94.64,9.78,96.46Zm3.12-8.12-2-.86c.76-1.8,1.57-3.61,2.4-5.37l2,.94C14.44,84.79,13.65,86.57,12.9,88.34Z"/><path class="cls-3" d="M16.55,80.39l-2-1c.44-.88.89-1.77,1.35-2.64l1.95,1C17.43,78.65,17,79.53,16.55,80.39Z"/><rect class="cls-4" x="65.16" y="195.65" width="74.39" height="48.28" rx="5.83"/><path class="cls-5" d="M65.48,202.43a.65.65,0,0,1-.32-.56v-1.21l37.2,22.77,37.06-22.71a.08.08,0,0,1,.11.06l.05,1.09a.72.72,0,0,1-.34.56L102.36,225Z"/><path class="cls-6" d="M128.24,48.35H55.58A14.18,14.18,0,0,0,41.4,62.53V87.35a14.18,14.18,0,0,0,14.18,14.19H68.41l15.77,27.3,15.76-27.3h28.3a14.18,14.18,0,0,0,14.18-14.19V62.53A14.18,14.18,0,0,0,128.24,48.35Z"/><circle class="cls-2" cx="61.47" cy="74.72" r="3.97"/><circle class="cls-2" cx="82.7" cy="74.72" r="3.97"/><circle class="cls-2" cx="102.51" cy="74.72" r="3.97"/><path class="cls-5" d="M195.79,204.67,155.24,229a6,6,0,0,1-6.11,0L58.42,175.12A5,5,0,0,1,56,171l-.17-7.2,46.09-24.19,96.2,53.51v7.53A4.75,4.75,0,0,1,195.79,204.67Z"/><path class="cls-7" d="M196.36,196,156.7,219.84a9.51,9.51,0,0,1-9.72,0L57.61,167a3.67,3.67,0,0,1,0-6.34l41-23.6a6.54,6.54,0,0,1,6.53,0l91.15,52.81A3.57,3.57,0,0,1,196.36,196Z"/><path class="cls-8" d="M76.13,153.13A.19.19,0,0,1,76,153a.2.2,0,0,1,.07-.27l14-7.84a.18.18,0,0,1,.26.07.2.2,0,0,1-.07.27l-14,7.84A.16.16,0,0,1,76.13,153.13Z"/><path class="cls-9" d="M64.14,163.84l38.39-22.52a3.68,3.68,0,0,1,3.71,0l70.56,40.83a2.23,2.23,0,0,1,0,3.86l-38.63,22.14a4.55,4.55,0,0,1-4.57,0L64.14,167.06A1.87,1.87,0,0,1,64.14,163.84Z"/><path class="cls-5" d="M161.6,200.31c-.67-2.15,2.37-4,5.91-3.59,2,.23,3.56,1.2,3.93,2.4.67,2.15-2.37,4-5.9,3.59C163.57,202.48,162,201.52,161.6,200.31Z"/><path class="cls-10" d="M127.25,121.32H98.69a5.57,5.57,0,0,0-5.57,5.58v9.75a5.57,5.57,0,0,0,5.57,5.58h5l6.2,10.73,6.2-10.73h11.12a5.57,5.57,0,0,0,5.57-5.58V126.9A5.57,5.57,0,0,0,127.25,121.32Z"/><text class="cls-11" transform="translate(103.72 137.1)">@</text><path class="cls-3" d="M147.18,173.24l-7.63-4.33a1.51,1.51,0,0,0-1.51,0l-23.42,13.41a1.25,1.25,0,0,0,0,2.17l6.76,3.94.47.27,5.43,3.51-1.32-5,21.24-12.61A.81.81,0,0,0,147.18,173.24Z"/></g></g></svg>