<svg xmlns="http://www.w3.org/2000/svg" viewBox="0 0 275.67 279.77"><defs><style>.cls-1{fill:#7db7c9;}.cls-2{fill:#58effb;}.cls-3{fill:#d2d8e7;stroke:#ff11c7;}.cls-10,.cls-3,.cls-6,.cls-8{stroke-miterlimit:10;}.cls-4{fill:#fff;}.cls-5{fill:#a5a6a9;}.cls-6,.cls-8{fill:none;}.cls-10,.cls-6,.cls-8{stroke:#a5a6a9;}.cls-10,.cls-6{stroke-width:2px;}.cls-7{fill:#59595b;}.cls-10,.cls-9{fill:#1d1d1b;}.cls-11{font-size:19.64px;font-family:MyriadPro-Bold, Myriad Pro;font-weight:700;}.cls-11,.cls-12{fill:#ff11c7;}</style></defs><g id="Layer_2" data-name="Layer 2"><g id="Device"><path class="cls-1" d="M220.7,253.15l-1.33-1.76a136.4,136.4,0,0,0,39.37-46.94A135.06,135.06,0,0,0,269.63,175a136.64,136.64,0,0,0,3.83-32.17A135.8,135.8,0,0,0,137.55,7V4.75A138.21,138.21,0,0,1,271.77,175.56a137,137,0,0,1-11.07,29.89,138.74,138.74,0,0,1-40,47.7Z"/><polygon class="cls-2" points="144.86 12.38 132.58 6.19 144.86 0 144.86 12.38"/><path class="cls-3" d="M194.79,267.31l-.89-2,2.65-1.22.94,2Q196.14,266.71,194.79,267.31Z"/><path class="cls-3" d="M138.74,279.27c-1.38,0-2.77,0-4.14-.06l.06-2.21c1.93.06,3.88.08,5.81.05l0,2.21Zm4.7-.08-.08-2.2c1.93-.07,3.87-.18,5.79-.33l.17,2.2C147.37,279,145.39,279.12,143.44,279.19Zm-11.79-.1c-2-.1-3.93-.25-5.88-.43l.21-2.2c1.91.18,3.86.33,5.78.42Zm20.61-.49-.22-2.19c1.91-.19,3.85-.43,5.76-.7l.31,2.19C156.17,278.17,154.2,278.41,152.26,278.6Zm-29.42-.25c-1.94-.23-3.91-.5-5.84-.81l.35-2.17c1.9.3,3.83.57,5.74.79Zm38.18-.9-.36-2.18c1.9-.31,3.82-.67,5.7-1.06l.45,2.16C164.9,276.77,163,277.13,161,277.45Zm-46.93-.4c-1.92-.35-3.86-.75-5.77-1.18l.48-2.15c1.88.43,3.79.82,5.69,1.16Zm55.6-1.32-.5-2.15c1.88-.43,3.77-.91,5.62-1.43l.59,2.13C173.52,274.8,171.59,275.29,169.69,275.73Zm-64.24-.54c-1.9-.47-3.81-1-5.68-1.54l.62-2.11c1.84.54,3.72,1,5.59,1.51Zm72.78-1.73-.63-2.11c1.84-.55,3.69-1.15,5.51-1.79l.73,2.09C182,272.29,180.1,272.9,178.23,273.46ZM97,272.79c-1.87-.59-3.74-1.23-5.58-1.9l.76-2.07c1.8.66,3.65,1.29,5.48,1.87Zm89.66-2.14-.77-2.07c1.8-.67,3.62-1.39,5.39-2.13l.86,2C190.28,269.24,188.44,270,186.61,270.65Zm-98-.79c-1.82-.71-3.65-1.47-5.44-2.25l.89-2c1.76.77,3.56,1.52,5.35,2.21Zm-8.12-3.46c-1.78-.82-3.56-1.69-5.29-2.59l1-2c1.71.88,3.46,1.74,5.2,2.55Zm-7.89-4c-1.72-.93-3.44-1.92-5.11-2.92l1.13-1.89c1.65,1,3.34,1.95,5,2.87ZM65,258c-1.66-1-3.31-2.13-4.92-3.24l1.26-1.81c1.58,1.09,3.2,2.16,4.83,3.18ZM57.66,253c-1.58-1.14-3.16-2.33-4.7-3.54l1.37-1.73c1.51,1.19,3.06,2.36,4.62,3.49Zm-7-5.39c-1.51-1.24-3-2.53-4.46-3.84l1.47-1.64c1.43,1.28,2.91,2.56,4.39,3.78Zm-6.63-5.83c-1.42-1.34-2.83-2.72-4.2-4.12l1.58-1.54c1.34,1.37,2.73,2.74,4.13,4Zm-6.23-6.24c-1.33-1.42-2.65-2.9-3.92-4.38l1.67-1.43c1.25,1.45,2.55,2.9,3.86,4.3ZM32,229c-1.24-1.51-2.47-3.07-3.64-4.63L30.13,223c1.15,1.54,2.36,3.07,3.58,4.56Zm-5.39-7c-1.14-1.59-2.26-3.22-3.34-4.86l1.84-1.21c1.06,1.61,2.17,3.22,3.29,4.78Zm-4.93-7.34c-1-1.65-2.05-3.35-3-5.05l1.92-1.09c.95,1.67,1.95,3.34,3,5ZM17.24,207c-.93-1.71-1.83-3.48-2.69-5.24l2-1c.84,1.73,1.74,3.46,2.65,5.15Zm-4-7.9c-.82-1.78-1.61-3.59-2.36-5.4l2-.84c.73,1.78,1.51,3.57,2.32,5.32ZM9.83,191c-.71-1.83-1.39-3.69-2-5.54l2.09-.71c.62,1.82,1.28,3.65,2,5.45Zm-2.94-8.34c-.59-1.87-1.14-3.77-1.65-5.66l2.12-.57c.51,1.85,1,3.73,1.63,5.56ZM4.5,174.1c-.47-1.9-.9-3.84-1.29-5.75l2.16-.44c.38,1.89.81,3.79,1.27,5.66Zm-1.84-8.65c-.35-1.92-.66-3.88-.92-5.82l2.19-.3c.25,1.91.56,3.84.9,5.73Zm-1.28-8.74c-.22-2-.4-3.92-.54-5.87l2.2-.16c.13,1.92.31,3.87.53,5.78ZM.66,147.9C.57,145.94.51,144,.5,142l2.21,0c0,1.93.06,3.88.16,5.8Zm2.06-8.81-2.2,0c0-2,.1-3.94.22-5.89l2.2.13C2.82,135.22,2.75,137.17,2.72,139.09Zm.42-8.68-2.2-.18c.16-1.95.36-3.92.59-5.86l2.19.27C3.49,126.55,3.29,128.49,3.14,130.41Zm1-8.64-2.18-.32c.28-1.94.6-3.89,1-5.81l2.17.41C4.7,117.94,4.38,119.86,4.11,121.77Zm1.52-8.57-2.16-.45c.4-1.91.85-3.84,1.34-5.74l2.13.55C6.47,109.42,6,111.32,5.63,113.2Zm2.06-8.44-2.12-.59c.52-1.89,1.09-3.79,1.7-5.65l2.09.69C8.77,101,8.21,102.9,7.69,104.76Zm2.6-8.3-2.08-.73c.64-1.84,1.33-3.7,2-5.52l2.05.81C11.6,92.81,10.92,94.64,10.29,96.46Zm3.12-8.12-2-.86c.76-1.8,1.57-3.61,2.4-5.37l2,.94C15,84.79,14.15,86.57,13.41,88.34Z"/><path class="cls-3" d="M17.06,80.39l-2-1c.44-.88.9-1.77,1.35-2.64l1.95,1C17.93,78.65,17.49,79.53,17.06,80.39Z"/><rect class="cls-4" x="65.67" y="195.65" width="74.39" height="48.28" rx="5.83"/><path class="cls-5" d="M66,202.43a.66.66,0,0,1-.31-.56v-1.21l37.19,22.77,37.06-22.71a.07.07,0,0,1,.11.06l.05,1.09a.73.73,0,0,1-.33.56L102.86,225Z"/><path class="cls-6" d="M128.74,48.35H56.08A14.18,14.18,0,0,0,41.9,62.53V87.35a14.18,14.18,0,0,0,14.18,14.19H68.92l15.76,27.3,15.77-27.3h28.29a14.19,14.19,0,0,0,14.19-14.19V62.53A14.18,14.18,0,0,0,128.74,48.35Z"/><circle class="cls-2" cx="61.98" cy="74.72" r="3.97"/><circle class="cls-2" cx="83.21" cy="74.72" r="3.97"/><circle class="cls-2" cx="103.02" cy="74.72" r="3.97"/><path class="cls-5" d="M196.3,204.67,155.74,229a6,6,0,0,1-6.11,0L58.92,175.12A5,5,0,0,1,56.48,171l-.17-7.2,46.09-24.19,96.2,53.51v7.53A4.74,4.74,0,0,1,196.3,204.67Z"/><path class="cls-7" d="M196.87,196,157.2,219.84a9.5,9.5,0,0,1-9.71,0L58.11,167a3.67,3.67,0,0,1,0-6.34l41-23.6a6.52,6.52,0,0,1,6.52,0l91.16,52.81A3.58,3.58,0,0,1,196.87,196Z"/><path class="cls-8" d="M76.63,153.13a.21.21,0,0,1-.17-.1.2.2,0,0,1,.08-.27l14-7.84a.2.2,0,0,1,.27.07.2.2,0,0,1-.08.27l-14,7.84A.19.19,0,0,1,76.63,153.13Z"/><path class="cls-9" d="M64.65,163.84,103,141.32a3.68,3.68,0,0,1,3.71,0l70.57,40.83a2.23,2.23,0,0,1,0,3.86l-38.62,22.14a4.57,4.57,0,0,1-4.58,0L64.64,167.06A1.87,1.87,0,0,1,64.65,163.84Z"/><path class="cls-5" d="M162.11,200.31c-.67-2.15,2.37-4,5.9-3.59,2,.23,3.56,1.2,3.94,2.4.67,2.15-2.37,4-5.9,3.59C164.07,202.48,162.48,201.52,162.11,200.31Z"/><path class="cls-10" d="M127.75,121.32H99.19a5.57,5.57,0,0,0-5.57,5.58v9.75a5.57,5.57,0,0,0,5.57,5.58h5L110.43,153l6.2-10.73h11.12a5.58,5.58,0,0,0,5.58-5.58V126.9A5.58,5.58,0,0,0,127.75,121.32Z"/><text class="cls-11" transform="translate(104.22 137.1)">@</text><path class="cls-12" d="M147.69,173.24l-7.64-4.33a1.51,1.51,0,0,0-1.51,0l-23.41,13.41a1.25,1.25,0,0,0,0,2.17l6.76,3.94.47.27,5.43,3.51-1.32-5,21.24-12.61A.81.81,0,0,0,147.69,173.24Z"/></g></g></svg>