<svg xmlns="http://www.w3.org/2000/svg" viewBox="0 0 226.46 262.06"><defs><style>.cls-1{fill:#fff;}.cls-2{fill:#58effb;}.cls-3,.cls-5{fill:none;stroke-miterlimit:10;stroke-dasharray:6 6.3;}.cls-3{stroke:#58effb;stroke-width:4px;}.cls-4{fill:#a5a6a9;}.cls-5{stroke:#ff11c7;stroke-width:2px;}.cls-6{fill:#1d1d1b;}.cls-7{fill:#59595b;}.cls-8{fill:#ff11c7;}</style></defs><g id="Layer_2" data-name="Layer 2"><g id="Device"><path class="cls-1" d="M129.41,144.4h0a22.24,22.24,0,0,0,1.77-25.82c-.11-.18-.23-.35-.34-.52l5.56-4.25,1.78-1.36-1.36-1.78h0l-6.87-9-1.77,1.36,6.86,9-5.51,4.22a22.33,22.33,0,0,0-35.29.6l-.47-.36-5.65-4.34h0l6.88-9-1.77-1.36-6.89,9h0l-1.3,1.7-.06.08,7.55,5.78.46.36a.05.05,0,0,0,0,0,22.31,22.31,0,0,0-1.69,19.58l-.19.25-5.87,7.66.12.09L87,147.6h0l9,6.92,1.36-1.78-9-6.92,3.85-5,.13-.18c.11.19.2.38.31.57a22.54,22.54,0,0,0,11,9.75l.56.84,3.64,5.58L110.7,153l.29-.45h.15l1,0c.28,0,.55,0,.82,0l.27.42,2.84,4.36,3.82-5.86.24-.37.2-.07a22.53,22.53,0,0,0,4.32-2.28l.43-.31,21.55,15.72,1.73-2.37,1.73-2.37Zm-17.61,4.47a18.67,18.67,0,1,1,18.66-18.66A18.67,18.67,0,0,1,111.8,148.87Z"/><path class="cls-1" d="M125.65,126.48l-1.12.11-1.11.11a7.79,7.79,0,0,0-.21-1.19,8.86,8.86,0,0,0-8.34-6.81,8,8,0,0,0-1.2,0l-.11-1.11h0l-.11-1.11a11.15,11.15,0,0,1,12.2,10Z"/><circle class="cls-2" cx="25.56" cy="212.12" r="4.01"/><line class="cls-3" x1="113.54" y1="96.59" x2="113.56" y2="73.25"/><rect class="cls-4" x="0.5" y="223.13" width="52.12" height="8.01" rx="2.25"/><path class="cls-4" d="M50.37,231.65H2.75A2.75,2.75,0,0,1,0,228.9v-3.52a2.75,2.75,0,0,1,2.75-2.75H50.37a2.76,2.76,0,0,1,2.75,2.75v3.52A2.75,2.75,0,0,1,50.37,231.65Zm-47.62-8A1.76,1.76,0,0,0,1,225.38v3.52a1.76,1.76,0,0,0,1.75,1.75H50.37a1.76,1.76,0,0,0,1.75-1.75v-3.52a1.76,1.76,0,0,0-1.75-1.75Z"/><rect class="cls-4" x="0.5" y="237.71" width="52.12" height="8.01" rx="2.25"/><path class="cls-4" d="M50.37,246.22H2.75A2.75,2.75,0,0,1,0,243.47V240a2.75,2.75,0,0,1,2.75-2.75H50.37A2.75,2.75,0,0,1,53.12,240v3.51A2.75,2.75,0,0,1,50.37,246.22Zm-47.62-8A1.76,1.76,0,0,0,1,240v3.51a1.75,1.75,0,0,0,1.75,1.75H50.37a1.75,1.75,0,0,0,1.75-1.75V240a1.76,1.76,0,0,0-1.75-1.75Z"/><rect class="cls-4" x="0.5" y="252.29" width="52.12" height="8.01" rx="2.25"/><path class="cls-4" d="M50.37,260.8H2.75A2.75,2.75,0,0,1,0,258.05v-3.51a2.75,2.75,0,0,1,2.75-2.75H50.37a2.75,2.75,0,0,1,2.75,2.75v3.51A2.75,2.75,0,0,1,50.37,260.8Zm-47.62-8A1.75,1.75,0,0,0,1,254.54v3.51a1.75,1.75,0,0,0,1.75,1.75H50.37a1.75,1.75,0,0,0,1.75-1.75v-3.51a1.75,1.75,0,0,0-1.75-1.75Z"/><rect class="cls-4" x="173.84" y="223.13" width="52.12" height="8.01" rx="2.25"/><path class="cls-4" d="M223.71,231.65H176.09a2.75,2.75,0,0,1-2.75-2.75v-3.52a2.75,2.75,0,0,1,2.75-2.75h47.62a2.76,2.76,0,0,1,2.75,2.75v3.52A2.75,2.75,0,0,1,223.71,231.65Zm-47.62-8a1.75,1.75,0,0,0-1.75,1.75v3.52a1.75,1.75,0,0,0,1.75,1.75h47.62a1.76,1.76,0,0,0,1.75-1.75v-3.52a1.76,1.76,0,0,0-1.75-1.75Z"/><rect class="cls-4" x="173.84" y="237.71" width="52.12" height="8.01" rx="2.25"/><path class="cls-4" d="M223.71,246.22H176.09a2.75,2.75,0,0,1-2.75-2.75V240a2.75,2.75,0,0,1,2.75-2.75h47.62a2.75,2.75,0,0,1,2.75,2.75v3.51A2.75,2.75,0,0,1,223.71,246.22Zm-47.62-8a1.75,1.75,0,0,0-1.75,1.75v3.51a1.75,1.75,0,0,0,1.75,1.75h47.62a1.75,1.75,0,0,0,1.75-1.75V240a1.76,1.76,0,0,0-1.75-1.75Z"/><rect class="cls-4" x="173.84" y="252.29" width="52.12" height="8.01" rx="2.25"/><path class="cls-4" d="M223.71,260.8H176.09a2.75,2.75,0,0,1-2.75-2.75v-3.51a2.75,2.75,0,0,1,2.75-2.75h47.62a2.75,2.75,0,0,1,2.75,2.75v3.51A2.75,2.75,0,0,1,223.71,260.8Zm-47.62-8a1.75,1.75,0,0,0-1.75,1.75v3.51a1.75,1.75,0,0,0,1.75,1.75h47.62a1.75,1.75,0,0,0,1.75-1.75v-3.51a1.75,1.75,0,0,0-1.75-1.75Z"/><rect class="cls-4" x="88.5" y="224.39" width="52.12" height="8.01" rx="2.25"/><path class="cls-4" d="M138.36,232.9H90.75A2.75,2.75,0,0,1,88,230.15v-3.51a2.75,2.75,0,0,1,2.75-2.75h47.61a2.75,2.75,0,0,1,2.75,2.75v3.51A2.75,2.75,0,0,1,138.36,232.9Zm-47.61-8A1.75,1.75,0,0,0,89,226.64v3.51a1.75,1.75,0,0,0,1.75,1.75h47.61a1.75,1.75,0,0,0,1.75-1.75v-3.51a1.75,1.75,0,0,0-1.75-1.75Z"/><rect class="cls-4" x="88.5" y="238.97" width="52.12" height="8.01" rx="2.25"/><path class="cls-4" d="M138.36,247.48H90.75A2.75,2.75,0,0,1,88,244.73v-3.52a2.75,2.75,0,0,1,2.75-2.75h47.61a2.75,2.75,0,0,1,2.75,2.75v3.52A2.75,2.75,0,0,1,138.36,247.48Zm-47.61-8A1.75,1.75,0,0,0,89,241.21v3.52a1.75,1.75,0,0,0,1.75,1.75h47.61a1.75,1.75,0,0,0,1.75-1.75v-3.52a1.75,1.75,0,0,0-1.75-1.75Z"/><rect class="cls-4" x="88.5" y="253.54" width="52.12" height="8.01" rx="2.25"/><path class="cls-4" d="M138.36,262.06H90.75A2.75,2.75,0,0,1,88,259.31v-3.52A2.75,2.75,0,0,1,90.75,253h47.61a2.75,2.75,0,0,1,2.75,2.75v3.52A2.75,2.75,0,0,1,138.36,262.06Zm-47.61-8A1.75,1.75,0,0,0,89,255.79v3.52a1.75,1.75,0,0,0,1.75,1.75h47.61a1.75,1.75,0,0,0,1.75-1.75v-3.52a1.75,1.75,0,0,0-1.75-1.75Z"/><line class="cls-5" x1="24.62" y1="175.91" x2="201.61" y2="175.91"/><line class="cls-5" x1="26.07" y1="183.36" x2="26.07" y2="201.46"/><line class="cls-5" x1="113.23" y1="183.36" x2="113.23" y2="201.46"/><line class="cls-5" x1="200.25" y1="183.36" x2="200.25" y2="201.46"/><circle class="cls-2" cx="113.23" cy="212.12" r="4.01"/><circle class="cls-2" cx="200.25" cy="212.12" r="4.01"/><rect class="cls-4" x="69.45" width="85.55" height="56.1" rx="3.57"/><rect class="cls-6" x="72.36" y="2.51" width="80.23" height="50.74" rx="4.88"/><rect class="cls-7" x="99.47" y="56.1" width="25.51" height="7.21"/><rect class="cls-4" x="91.98" y="63.3" width="40.49" height="3.89"/><rect class="cls-4" x="99.5" y="25.14" width="2.91" height="17.75"/><rect class="cls-8" x="123.53" y="23.29" width="2.91" height="19.61"/><rect class="cls-4" x="117.52" y="28.02" width="2.91" height="14.88"/><rect class="cls-4" x="111.51" y="30.68" width="2.91" height="12.21"/><rect class="cls-4" x="105.5" y="18.47" width="2.91" height="24.42"/></g></g></svg>