<svg xmlns="http://www.w3.org/2000/svg" viewBox="0 0 257.85 166.95"><defs><style>.cls-1,.cls-7{fill:#1d1d1b;}.cls-1{stroke:#a5a6a9;}.cls-1,.cls-4,.cls-5{stroke-miterlimit:10;}.cls-2{fill:#58effb;}.cls-3{fill:#a5a6a9;}.cls-4,.cls-5,.cls-6{fill:none;stroke-linecap:round;stroke-dasharray:6 6.3;}.cls-4{stroke:#58effb;}.cls-5,.cls-6{stroke:#ff11c7;}.cls-6{stroke-linejoin:round;}.cls-8{fill:#59595b;}.cls-9{fill:#fff;}.cls-10{fill:#ff11c7;}</style></defs><g id="Layer_2" data-name="Layer 2"><g id="Device"><rect class="cls-1" x="0.5" y="0.5" width="256.85" height="165.95" rx="11.53"/><path class="cls-2" d="M144.32,87.53h0a11.61,11.61,0,0,0,.92-13.45l-.18-.26L148,71.6l.92-.71-.7-.92h0l-3.57-4.66-.92.71,3.57,4.66-2.87,2.2a11.62,11.62,0,0,0-18.37.31l-.25-.19-2.94-2.26h0l3.58-4.68-.92-.71L121.89,70h0l-.68.89,0,0,3.93,3,.24.18v0a11.53,11.53,0,0,0-1.66,6,11.69,11.69,0,0,0,.78,4.2l-.09.13-3.06,4,.06.05.86.66h0l4.71,3.61.7-.92-4.7-3.61,2-2.61.07-.09c.06.1.1.2.16.29a11.73,11.73,0,0,0,5.75,5.08l.29.44,1.9,2.9L134.58,92l.15-.23h1l.14.21,1.48,2.27,2-3,.13-.19.1,0a11.76,11.76,0,0,0,2.25-1.18l.22-.17,11.22,8.19.91-1.24.89-1.23Zm-9.17,2.33a9.72,9.72,0,1,1,9.72-9.72A9.72,9.72,0,0,1,135.15,89.86Z"/><path class="cls-2" d="M142.36,78.2l-.58.06-.58,0a4.1,4.1,0,0,0-.11-.61,4.62,4.62,0,0,0-4.34-3.55,4.42,4.42,0,0,0-.63,0l-.06-.57h0L136,73a5.8,5.8,0,0,1,6.35,5.2Z"/><circle class="cls-3" cx="90.24" cy="122.79" r="2.09"/><line class="cls-4" x1="136.06" y1="62.64" x2="136.07" y2="50.48"/><rect class="cls-3" x="77.19" y="128.53" width="27.14" height="4.17" rx="1.87"/><path class="cls-3" d="M103.16,133H78.37a1.44,1.44,0,0,1-1.44-1.43V129.7a1.44,1.44,0,0,1,1.44-1.43h24.79a1.43,1.43,0,0,1,1.43,1.43v1.83A1.43,1.43,0,0,1,103.16,133Zm-24.79-4.17a.92.92,0,0,0-.92.91v1.83a.92.92,0,0,0,.92.91h24.79a.91.91,0,0,0,.91-.91V129.7a.91.91,0,0,0-.91-.91Z"/><rect class="cls-3" x="77.19" y="136.12" width="27.14" height="4.17" rx="1.87"/><path class="cls-3" d="M103.16,140.55H78.37a1.44,1.44,0,0,1-1.44-1.43v-1.83a1.44,1.44,0,0,1,1.44-1.43h24.79a1.43,1.43,0,0,1,1.43,1.43v1.83A1.43,1.43,0,0,1,103.16,140.55Zm-24.79-4.17a.92.92,0,0,0-.92.91v1.83a.92.92,0,0,0,.92.91h24.79a.91.91,0,0,0,.91-.91v-1.83a.91.91,0,0,0-.91-.91Z"/><rect class="cls-3" x="77.19" y="143.71" width="27.14" height="4.17" rx="1.87"/><path class="cls-3" d="M102.49,148.14H79a2.11,2.11,0,0,1-2.11-2.1v-.49a2.11,2.11,0,0,1,2.11-2.1h23.45a2.1,2.1,0,0,1,2.1,2.1V146A2.1,2.1,0,0,1,102.49,148.14Zm-25-2.54V146a1.64,1.64,0,0,0,1.64,1.64h23.34a1.63,1.63,0,0,0,1.64-1.64v-.38a1.63,1.63,0,0,0-1.64-1.63H79.09A1.64,1.64,0,0,0,77.45,145.6Z"/><rect class="cls-3" x="167.45" y="128.53" width="27.14" height="4.17" rx="1.87"/><path class="cls-3" d="M193.42,133h-24.8a1.43,1.43,0,0,1-1.43-1.43V129.7a1.43,1.43,0,0,1,1.43-1.43h24.8a1.43,1.43,0,0,1,1.43,1.43v1.83A1.43,1.43,0,0,1,193.42,133Zm-24.8-4.17a.91.91,0,0,0-.91.91v1.83a.91.91,0,0,0,.91.91h24.8a.91.91,0,0,0,.91-.91V129.7a.91.91,0,0,0-.91-.91Z"/><rect class="cls-3" x="167.45" y="136.12" width="27.14" height="4.17" rx="1.87"/><path class="cls-3" d="M193.42,140.55h-24.8a1.43,1.43,0,0,1-1.43-1.43v-1.83a1.43,1.43,0,0,1,1.43-1.43h24.8a1.43,1.43,0,0,1,1.43,1.43v1.83A1.43,1.43,0,0,1,193.42,140.55Zm-24.8-4.17a.91.91,0,0,0-.91.91v1.83a.91.91,0,0,0,.91.91h24.8a.91.91,0,0,0,.91-.91v-1.83a.91.91,0,0,0-.91-.91Z"/><rect class="cls-3" x="167.45" y="143.71" width="27.14" height="4.17" rx="1.87"/><path class="cls-3" d="M193.42,148.14h-24.8a1.43,1.43,0,0,1-1.43-1.43v-1.83a1.43,1.43,0,0,1,1.43-1.43h24.8a1.43,1.43,0,0,1,1.43,1.43v1.83A1.43,1.43,0,0,1,193.42,148.14ZM168.62,144a.91.91,0,0,0-.91.91v1.83a.91.91,0,0,0,.91.91h24.8a.91.91,0,0,0,.91-.91v-1.83a.91.91,0,0,0-.91-.91Z"/><rect class="cls-3" x="123.01" y="129.18" width="27.14" height="4.17" rx="1.87"/><path class="cls-3" d="M149,133.61H124.19a1.44,1.44,0,0,1-1.44-1.43v-1.83a1.44,1.44,0,0,1,1.44-1.43H149a1.43,1.43,0,0,1,1.43,1.43v1.83A1.43,1.43,0,0,1,149,133.61Zm-24.79-4.17a.92.92,0,0,0-.92.91v1.83a.92.92,0,0,0,.92.91H149a.91.91,0,0,0,.91-.91v-1.83a.91.91,0,0,0-.91-.91Z"/><rect class="cls-3" x="123.01" y="136.77" width="27.14" height="4.17" rx="1.87"/><path class="cls-3" d="M149,141.2H124.19a1.44,1.44,0,0,1-1.44-1.43v-1.83a1.44,1.44,0,0,1,1.44-1.43H149a1.43,1.43,0,0,1,1.43,1.43v1.83A1.43,1.43,0,0,1,149,141.2ZM124.19,137a.92.92,0,0,0-.92.91v1.83a.92.92,0,0,0,.92.91H149a.91.91,0,0,0,.91-.91v-1.83A.91.91,0,0,0,149,137Z"/><rect class="cls-3" x="123.01" y="144.36" width="27.14" height="4.17" rx="1.87"/><path class="cls-3" d="M149,148.79H124.19a1.44,1.44,0,0,1-1.44-1.43v-1.83a1.44,1.44,0,0,1,1.44-1.43H149a1.43,1.43,0,0,1,1.43,1.43v1.83A1.43,1.43,0,0,1,149,148.79Zm-24.79-4.17a.92.92,0,0,0-.92.91v1.83a.92.92,0,0,0,.92.91H149a.91.91,0,0,0,.91-.91v-1.83a.91.91,0,0,0-.91-.91Z"/><line class="cls-5" x1="89.76" y1="103.94" x2="181.91" y2="103.94"/><line class="cls-6" x1="90.51" y1="107.81" x2="90.51" y2="117.24"/><line class="cls-6" x1="135.89" y1="107.81" x2="135.89" y2="117.24"/><line class="cls-6" x1="181.21" y1="107.81" x2="181.21" y2="117.24"/><circle class="cls-3" cx="135.89" cy="122.79" r="2.09"/><circle class="cls-3" cx="181.21" cy="122.79" r="2.09"/><rect class="cls-3" x="113.1" y="12.34" width="44.54" height="29.21" rx="1.86"/><rect class="cls-7" x="114.61" y="13.65" width="41.78" height="26.42" rx="2.54"/><rect class="cls-8" x="128.73" y="41.55" width="13.28" height="3.75"/><rect class="cls-3" x="124.83" y="45.3" width="21.08" height="2.02"/><rect class="cls-9" x="128.74" y="25.43" width="1.52" height="9.24"/><rect class="cls-10" x="141.26" y="24.47" width="1.52" height="10.21"/><rect class="cls-9" x="138.13" y="26.93" width="1.52" height="7.75"/><rect class="cls-9" x="135" y="28.32" width="1.52" height="6.36"/><rect class="cls-9" x="131.87" y="21.96" width="1.52" height="12.72"/></g></g></svg>