<svg xmlns="http://www.w3.org/2000/svg" viewBox="0 0 361.82 74.6"><defs><style>.cls-1{fill:#fff;}</style></defs><g id="Layer_2" data-name="Layer 2"><g id="Layer_1-2" data-name="Layer 1"><path class="cls-1" d="M107.3,41.24a15.25,15.25,0,0,1-5.42-1,12.66,12.66,0,0,1-7.2-6.86,13.07,13.07,0,0,1-1-5.22,13.07,13.07,0,0,1,1-5.22,12.75,12.75,0,0,1,2.88-4.14,13.08,13.08,0,0,1,4.34-2.72,15.2,15.2,0,0,1,5.44-.95,15,15,0,0,1,5.92,1.13,11.66,11.66,0,0,1,4.45,3.33L114,23.1a8.73,8.73,0,0,0-2.88-2.22,8.09,8.09,0,0,0-3.45-.73,8.89,8.89,0,0,0-3.24.57,7.4,7.4,0,0,0-2.56,1.66,7.48,7.48,0,0,0-1.67,2.55,9.27,9.27,0,0,0,0,6.56A7.48,7.48,0,0,0,101.83,34a7.4,7.4,0,0,0,2.56,1.66,8.89,8.89,0,0,0,3.24.57,8.09,8.09,0,0,0,3.45-.73A8.7,8.7,0,0,0,114,33.29l3.75,3.45a11.71,11.71,0,0,1-4.45,3.35A14.74,14.74,0,0,1,107.3,41.24Z"/><path class="cls-1" d="M133.33,41.24a15.34,15.34,0,0,1-5.53-1,13.1,13.1,0,0,1-4.39-2.74,12.54,12.54,0,0,1-2.88-4.14,13.66,13.66,0,0,1,0-10.36,12.3,12.3,0,0,1,2.9-4.14,13.3,13.3,0,0,1,4.39-2.74,16,16,0,0,1,11,0,13.17,13.17,0,0,1,4.36,2.74,12.52,12.52,0,0,1,3.94,9.32,13,13,0,0,1-1,5.2,12.39,12.39,0,0,1-2.9,4.14,13.29,13.29,0,0,1-4.36,2.72A14.83,14.83,0,0,1,133.33,41.24Zm0-5a8.33,8.33,0,0,0,3.12-.57,7.52,7.52,0,0,0,4.17-4.21,9.27,9.27,0,0,0,0-6.56,7.58,7.58,0,0,0-1.65-2.55,7.34,7.34,0,0,0-2.5-1.66,8.47,8.47,0,0,0-3.14-.57,8.31,8.31,0,0,0-3.11.57,7.54,7.54,0,0,0-2.5,1.66A7.65,7.65,0,0,0,126,24.93a9.36,9.36,0,0,0,0,6.54A7.74,7.74,0,0,0,127.66,34a7.34,7.34,0,0,0,2.5,1.66A8.45,8.45,0,0,0,133.29,36.27Z"/><path class="cls-1" d="M151.47,40.81V15.61h4.83L167,33.39h-2.56L175,15.61h4.79l.07,25.2h-5.47l0-16.81h1L167,38.15h-2.62L155.72,24H157V40.81Z"/><path class="cls-1" d="M185.85,40.81V15.61h10.91a14.17,14.17,0,0,1,5.83,1.1,8.54,8.54,0,0,1,3.78,3.15,8.78,8.78,0,0,1,1.34,4.89,8.68,8.68,0,0,1-1.34,4.86,8.54,8.54,0,0,1-3.78,3.15,14,14,0,0,1-5.83,1.1h-7.67l2.59-2.63v9.58Zm5.83-8.93-2.59-2.77h7.35a6,6,0,0,0,4-1.15,4,4,0,0,0,1.33-3.21,4.05,4.05,0,0,0-1.33-3.24,6.07,6.07,0,0,0-4-1.15h-7.35l2.59-2.77Z"/><path class="cls-1" d="M216.38,40.81V20.36h-8.06V15.61h22v4.75h-8.07V40.81Z"/><path class="cls-1" d="M233.41,40.81V15.61h10.91a14.2,14.2,0,0,1,5.83,1.1,8.54,8.54,0,0,1,3.78,3.15,8.77,8.77,0,0,1,1.33,4.89,8.64,8.64,0,0,1-1.33,4.85,8.52,8.52,0,0,1-3.78,3.11,14.38,14.38,0,0,1-5.83,1.08h-7.67l2.59-2.56v9.58Zm5.83-8.93-2.59-2.73H244A6,6,0,0,0,248,28a4.1,4.1,0,0,0,1.33-3.23A4.08,4.08,0,0,0,248,21.51a6.1,6.1,0,0,0-4-1.15h-7.34l2.59-2.77Zm10.19,8.93-6.3-9.14h6.23l6.37,9.14Z"/><path class="cls-1" d="M265.67,36.13h13.71v4.68H259.87V15.61h19v4.68H265.67Zm-.44-10.37h12.14V30.3H265.23Z"/><path class="cls-1" d="M284,40.81V15.61h4.83l14.87,18.14h-2.34V15.61h5.76v25.2h-4.79l-14.9-18.14h2.34V40.81Z"/><path class="cls-1" d="M313.11,40.81V15.61h11.45a15.91,15.91,0,0,1,7.24,1.57,11.93,11.93,0,0,1,4.89,4.37,12.22,12.22,0,0,1,1.77,6.66,12.24,12.24,0,0,1-1.77,6.64,11.84,11.84,0,0,1-4.89,4.39,15.91,15.91,0,0,1-7.24,1.57ZM318.94,36h5.33a9.55,9.55,0,0,0,4.38-1,7,7,0,0,0,2.88-2.72,8.15,8.15,0,0,0,1-4.14,8.12,8.12,0,0,0-1-4.16,7.08,7.08,0,0,0-2.88-2.7,9.55,9.55,0,0,0-4.38-1h-5.33Z"/><path class="cls-1" d="M351.13,41.24a20.58,20.58,0,0,1-5.8-.81,13.62,13.62,0,0,1-4.46-2.1l2-4.4a14.41,14.41,0,0,0,3.83,1.89,13.89,13.89,0,0,0,4.48.74,9.21,9.21,0,0,0,2.79-.34,3.37,3.37,0,0,0,1.57-.95,2.14,2.14,0,0,0,.5-1.41,1.9,1.9,0,0,0-.79-1.6,6.35,6.35,0,0,0-2.09-1c-.86-.25-1.81-.49-2.86-.72s-2.09-.51-3.13-.85a13.31,13.31,0,0,1-2.86-1.29,6.39,6.39,0,0,1-2.11-2.09,6.17,6.17,0,0,1-.81-3.31,7.06,7.06,0,0,1,1.17-4,8.08,8.08,0,0,1,3.53-2.84A14.42,14.42,0,0,1,352,15.18a19.33,19.33,0,0,1,4.68.56,13.54,13.54,0,0,1,4.07,1.67l-1.8,4.43a15.72,15.72,0,0,0-3.53-1.5,13.1,13.1,0,0,0-3.45-.48,8.33,8.33,0,0,0-2.78.39,3.28,3.28,0,0,0-1.54,1,2.34,2.34,0,0,0-.47,1.46A1.84,1.84,0,0,0,348,24.3a6.15,6.15,0,0,0,2.09,1c.86.24,1.82.48,2.86.72s2.09.51,3.13.83a11.76,11.76,0,0,1,2.86,1.26A6.26,6.26,0,0,1,361,30.15a6.11,6.11,0,0,1,.81,3.28,6.76,6.76,0,0,1-1.19,3.89,8.32,8.32,0,0,1-3.54,2.84A14.37,14.37,0,0,1,351.13,41.24Z"/><path class="cls-1" d="M53.05,51h0a26.59,26.59,0,0,0,2.1-30.83c-.12-.21-.26-.41-.4-.62l6.64-5.07,2.12-1.63-1.62-2.12h0L53.69,0,51.58,1.63l8.19,10.69-6.59,5.05a26.63,26.63,0,0,0-42.12.71l-.56-.43L3.75,12.47h0L12,1.73,9.85.11,1.63,10.84h0l-1.55,2L0,13l9,6.9.56.42,0,0a26.62,26.62,0,0,0-2,23.39L7.3,44l-7,9.15.14.11,2,1.51h0L13.19,63l1.62-2.12L4,52.65l4.6-6,.16-.21c.12.22.23.46.36.68A26.9,26.9,0,0,0,22.33,58.78l.66,1,4.35,6.66,3.37-5.17.35-.54h.17q.59,0,1.17,0c.34,0,.66,0,1,0l.32.5,3.39,5.21,4.56-7,.28-.44.24-.09a26.38,26.38,0,0,0,5.15-2.72l.52-.37L73.58,74.6l2.07-2.83,2.06-2.83ZM32,56.29A22.28,22.28,0,1,1,54.3,34,22.28,22.28,0,0,1,32,56.29Z"/><path class="cls-1" d="M48.55,32.85,47.22,33l-1.32.14a9.36,9.36,0,0,0-.25-1.42,10.6,10.6,0,0,0-10-8.14,9.63,9.63,0,0,0-1.42,0l-.14-1.32v0L34,20.94A13.3,13.3,0,0,1,48.55,32.85Z"/><path class="cls-1" d="M97.06,65.14V53.51h5.62a4.32,4.32,0,0,1,3.07.86,4.17,4.17,0,0,1,.88,3v3.83a4.2,4.2,0,0,1-.88,3,4.33,4.33,0,0,1-3.07.87ZM98.35,64h4.12a3.24,3.24,0,0,0,2.25-.57,3.09,3.09,0,0,0,.57-2.17V57.49a3.26,3.26,0,0,0-.57-2.26,3.21,3.21,0,0,0-2.25-.57H98.35Z"/><path class="cls-1" d="M116.71,64.27a1.63,1.63,0,0,1-.89.75,5.11,5.11,0,0,1-1.7.23,4.33,4.33,0,0,1-2.59-.55,2.62,2.62,0,0,1-.65-2.05,4.81,4.81,0,0,1,.15-1.36,1.66,1.66,0,0,1,.5-.79,1.84,1.84,0,0,1,.87-.36,10.07,10.07,0,0,1,1.66-.1,6.13,6.13,0,0,1,1.7.18,1.63,1.63,0,0,1,.89.61V59.41a1.61,1.61,0,0,0-.39-1.3,3.87,3.87,0,0,0-2-.3,3.19,3.19,0,0,0-1.52.24,1,1,0,0,0-.39.89h-1.21v-.18a1.66,1.66,0,0,1,.69-1.51,4.48,4.48,0,0,1,2.35-.45,14,14,0,0,1,2,.11,2.45,2.45,0,0,1,1,.35,1.54,1.54,0,0,1,.51.7,4.68,4.68,0,0,1,.15,1.42v5.76h-1.11ZM116.65,63v-.86a.9.9,0,0,0-.6-.86,4.89,4.89,0,0,0-1.9-.28,2.89,2.89,0,0,0-1.6.31,1.35,1.35,0,0,0-.4,1.15,1.55,1.55,0,0,0,.43,1.29,3,3,0,0,0,1.7.32,4.47,4.47,0,0,0,1.76-.27A.87.87,0,0,0,116.65,63Z"/><path class="cls-1" d="M121.85,58v-1h1V55.06h1.22v1.85h4v1h-4v4.53a2,2,0,0,0,.32,1.32,1.62,1.62,0,0,0,1.21.35,1.64,1.64,0,0,0,1.19-.34,2.08,2.08,0,0,0,.31-1.33v-.24h1.23v.07a3.51,3.51,0,0,1-.57,2.34,3.41,3.41,0,0,1-2.39.6,2.47,2.47,0,0,1-2-.64,3.56,3.56,0,0,1-.56-2.3V58Z"/><path class="cls-1" d="M138.35,64.27a1.69,1.69,0,0,1-.9.75,5.07,5.07,0,0,1-1.7.23,4.29,4.29,0,0,1-2.58-.55,2.58,2.58,0,0,1-.66-2.05,4.81,4.81,0,0,1,.15-1.36,1.6,1.6,0,0,1,.51-.79,1.84,1.84,0,0,1,.87-.36,9.86,9.86,0,0,1,1.65-.1,6.21,6.21,0,0,1,1.71.18,1.6,1.6,0,0,1,.88.61V59.41a1.61,1.61,0,0,0-.39-1.3,3.87,3.87,0,0,0-2-.3,3.14,3.14,0,0,0-1.51.24,1,1,0,0,0-.39.89h-1.21v-.18a1.66,1.66,0,0,1,.68-1.51,4.48,4.48,0,0,1,2.35-.45,13.9,13.9,0,0,1,2,.11,2.51,2.51,0,0,1,1,.35,1.45,1.45,0,0,1,.5.7,4.68,4.68,0,0,1,.15,1.42v5.76h-1.11ZM138.28,63v-.86a.89.89,0,0,0-.59-.86,5,5,0,0,0-1.91-.28,2.85,2.85,0,0,0-1.59.31,1.35,1.35,0,0,0-.41,1.15,1.58,1.58,0,0,0,.43,1.29,3,3,0,0,0,1.71.32,4.54,4.54,0,0,0,1.76-.27A.87.87,0,0,0,138.28,63Z"/><path class="cls-1" d="M157.5,64.27a1.69,1.69,0,0,1-.9.75,5.07,5.07,0,0,1-1.7.23,4.29,4.29,0,0,1-2.58-.55,2.58,2.58,0,0,1-.66-2.05,4.81,4.81,0,0,1,.15-1.36,1.6,1.6,0,0,1,.51-.79,1.76,1.76,0,0,1,.87-.36,9.86,9.86,0,0,1,1.65-.1,6.26,6.26,0,0,1,1.71.18,1.6,1.6,0,0,1,.88.61V59.41a1.61,1.61,0,0,0-.39-1.3,3.87,3.87,0,0,0-2-.3,3.14,3.14,0,0,0-1.51.24,1,1,0,0,0-.39.89H152v-.18a1.66,1.66,0,0,1,.69-1.51A4.48,4.48,0,0,1,155,56.8a14,14,0,0,1,2,.11,2.51,2.51,0,0,1,1,.35,1.51,1.51,0,0,1,.5.7,4.68,4.68,0,0,1,.15,1.42v5.76h-1.11ZM157.43,63v-.86a.91.91,0,0,0-.59-.86,5,5,0,0,0-1.91-.28,2.85,2.85,0,0,0-1.59.31,1.35,1.35,0,0,0-.41,1.15,1.58,1.58,0,0,0,.43,1.29,3,3,0,0,0,1.71.32,4.45,4.45,0,0,0,1.75-.27A.87.87,0,0,0,157.43,63Z"/><path class="cls-1" d="M163.45,65.14V56.91h1.16V58a1.87,1.87,0,0,1,1-.94,4.17,4.17,0,0,1,1.73-.3,3.19,3.19,0,0,1,2.27.65,3.24,3.24,0,0,1,.65,2.3v5.39H169V60a2.65,2.65,0,0,0-.38-1.7,2,2,0,0,0-1.48-.41,2.61,2.61,0,0,0-1.88.59,2.55,2.55,0,0,0-.6,1.87v4.78Z"/><path class="cls-1" d="M180.49,63.87a2,2,0,0,1-.91,1.05,3.64,3.64,0,0,1-1.68.33,3.48,3.48,0,0,1-2.49-.73,3.53,3.53,0,0,1-.73-2.51v-2a3.54,3.54,0,0,1,.73-2.52,3.48,3.48,0,0,1,2.49-.73,3.56,3.56,0,0,1,1.6.3,2.13,2.13,0,0,1,.94,1V53.51h1.22V65.14h-1.17Zm-.05-2.17V60.36a2.5,2.5,0,0,0-.6-1.87,2.63,2.63,0,0,0-1.91-.59,2.22,2.22,0,0,0-1.59.43,3.31,3.31,0,0,0-.39,2v1.4a3.3,3.3,0,0,0,.39,2,2.22,2.22,0,0,0,1.59.43,2.63,2.63,0,0,0,1.91-.59A2.47,2.47,0,0,0,180.44,61.7Z"/><path class="cls-1" d="M193.53,53.51h1.33l2.65,10.06,2.68-10.06H202l2.69,10.06,2.66-10.06h1.34l-3.17,11.63h-1.65L201.1,54.9l-2.73,10.24h-1.72Z"/><path class="cls-1" d="M215.19,65.25a3.65,3.65,0,0,1-2.58-.72,3.46,3.46,0,0,1-.74-2.52v-2a3.52,3.52,0,0,1,.73-2.53,3.64,3.64,0,0,1,2.57-.72h.57a3.65,3.65,0,0,1,2.58.72,3.48,3.48,0,0,1,.73,2.53v1.24h-5.91a2.53,2.53,0,0,0,0,.28c0,.1,0,.24,0,.43a2.58,2.58,0,0,0,.41,1.7,2.27,2.27,0,0,0,1.64.44h.57a2.7,2.7,0,0,0,1.53-.32,1.46,1.46,0,0,0,.5-1.11H219a2.55,2.55,0,0,1-.86,1.93,3.93,3.93,0,0,1-2.42.6Zm-2.05-5h4.65V59.9a2.23,2.23,0,0,0-.41-1.57,2.4,2.4,0,0,0-1.64-.41h-.57a2.39,2.39,0,0,0-1.63.41,2.28,2.28,0,0,0-.4,1.57Z"/><path class="cls-1" d="M223.62,65.14V53.51h1.21v4.57a2.15,2.15,0,0,1,.95-1,3.58,3.58,0,0,1,1.61-.3,3.4,3.4,0,0,1,2.48.73,3.53,3.53,0,0,1,.72,2.52v2a3.5,3.5,0,0,1-.72,2.51,3.4,3.4,0,0,1-2.48.73,3.65,3.65,0,0,1-1.69-.33,2,2,0,0,1-.92-1.05v1.27Zm1.21-4.78V61.7a2.51,2.51,0,0,0,.59,1.86,2.67,2.67,0,0,0,1.92.59,2.19,2.19,0,0,0,1.59-.43,3.21,3.21,0,0,0,.4-2v-1.4a3.22,3.22,0,0,0-.4-2,2.19,2.19,0,0,0-1.59-.43,2.67,2.67,0,0,0-1.92.59A2.54,2.54,0,0,0,224.83,60.36Z"/><path class="cls-1" d="M242.59,62.69h1.24v.19a1.1,1.1,0,0,0,.47,1,4.08,4.08,0,0,0,1.88.29,3.89,3.89,0,0,0,1.95-.29,1.36,1.36,0,0,0,.37-1.12,1.44,1.44,0,0,0-.3-1.07,2.8,2.8,0,0,0-1.5-.33c-.3,0-.7,0-1.21,0a6.11,6.11,0,0,1-2-.23,1.44,1.44,0,0,1-.66-.7,3.11,3.11,0,0,1-.2-1.28,2.12,2.12,0,0,1,.69-1.85,6.11,6.11,0,0,1,3.06-.49,4.72,4.72,0,0,1,2.49.46,1.84,1.84,0,0,1,.65,1.62h-1.21V58.8a.75.75,0,0,0-.48-.75,5.42,5.42,0,0,0-1.88-.21,3.82,3.82,0,0,0-1.73.25,1.2,1.2,0,0,0-.38,1,2.1,2.1,0,0,0,.08.68.48.48,0,0,0,.25.29,4.33,4.33,0,0,0,1.62.23l.49,0c.69,0,1.23.06,1.62.1a3.09,3.09,0,0,1,.84.19,1.49,1.49,0,0,1,.77.71,3.11,3.11,0,0,1,.23,1.36,3.3,3.3,0,0,1-.22,1.38,2.09,2.09,0,0,1-.82.83,2.18,2.18,0,0,1-.86.24,14.12,14.12,0,0,1-1.67.08,5.5,5.5,0,0,1-2.9-.51,2.09,2.09,0,0,1-.71-1.83Z"/><path class="cls-1" d="M257.55,65.25a3.64,3.64,0,0,1-2.57-.72,3.46,3.46,0,0,1-.74-2.52v-2a3.52,3.52,0,0,1,.73-2.53,3.64,3.64,0,0,1,2.57-.72h.57a3.65,3.65,0,0,1,2.58.72,3.48,3.48,0,0,1,.73,2.53v2a3.45,3.45,0,0,1-.73,2.52,3.62,3.62,0,0,1-2.57.72Zm2.61-3.52v-1.4a3.24,3.24,0,0,0-.39-2,2.28,2.28,0,0,0-1.66-.43h-.57a2.31,2.31,0,0,0-1.65.42,3.35,3.35,0,0,0-.38,2v1.4a3.25,3.25,0,0,0,.39,2,2.24,2.24,0,0,0,1.64.43h.57a2.35,2.35,0,0,0,1.66-.43A3.3,3.3,0,0,0,260.16,61.73Z"/><path class="cls-1" d="M266,65.14V53.51h1.21V65.14Z"/><path class="cls-1" d="M278.77,56.91v8.23h-1.18V64a1.84,1.84,0,0,1-.95.93,4.27,4.27,0,0,1-1.75.3,3.18,3.18,0,0,1-2.26-.65,3.23,3.23,0,0,1-.64-2.29v-5.4h1.21v5.14a2.56,2.56,0,0,0,.38,1.69,2,2,0,0,0,1.49.41,2.56,2.56,0,0,0,1.87-.59,2.5,2.5,0,0,0,.59-1.86V56.91Z"/><path class="cls-1" d="M282.81,58v-1h1V55.06H285v1.85h4v1h-4v4.53a2,2,0,0,0,.32,1.32,1.61,1.61,0,0,0,1.2.35,1.65,1.65,0,0,0,1.2-.34,2.09,2.09,0,0,0,.3-1.33v-.24h1.24v.07a3.44,3.44,0,0,1-.58,2.34,3.36,3.36,0,0,1-2.38.6,2.51,2.51,0,0,1-2-.64,3.63,3.63,0,0,1-.55-2.3V58Z"/><path class="cls-1" d="M293.88,54.88V53.51h1.21v1.37Zm0,10.26V56.91h1.21v8.23Z"/><path class="cls-1" d="M303,65.25a3.65,3.65,0,0,1-2.58-.72,3.47,3.47,0,0,1-.73-2.52v-2a3.48,3.48,0,0,1,.73-2.53,3.59,3.59,0,0,1,2.56-.72h.57a3.65,3.65,0,0,1,2.58.72,3.48,3.48,0,0,1,.74,2.53v2a3.45,3.45,0,0,1-.74,2.52,3.59,3.59,0,0,1-2.56.72Zm2.61-3.52v-1.4a3.15,3.15,0,0,0-.4-2,2.27,2.27,0,0,0-1.66-.43h-.57a2.28,2.28,0,0,0-1.64.42,3.25,3.25,0,0,0-.39,2v1.4a3.25,3.25,0,0,0,.39,2,2.24,2.24,0,0,0,1.64.43h.57a2.35,2.35,0,0,0,1.66-.43A3.28,3.28,0,0,0,305.56,61.73Z"/><path class="cls-1" d="M311.36,65.14V56.91h1.17V58a1.82,1.82,0,0,1,1-.94,4.2,4.2,0,0,1,1.73-.3,3.17,3.17,0,0,1,2.27.65,3.24,3.24,0,0,1,.65,2.3v5.39h-1.22V60a2.65,2.65,0,0,0-.38-1.7,2,2,0,0,0-1.47-.41,2.63,2.63,0,0,0-1.89.59,2.55,2.55,0,0,0-.6,1.87v4.78Z"/><path class="cls-1" d="M322.63,62.69h1.23v.19a1.12,1.12,0,0,0,.47,1,4.08,4.08,0,0,0,1.88.29,4,4,0,0,0,2-.29,1.39,1.39,0,0,0,.36-1.12,1.44,1.44,0,0,0-.3-1.07,2.8,2.8,0,0,0-1.5-.33c-.3,0-.7,0-1.2,0a6.06,6.06,0,0,1-2-.23,1.42,1.42,0,0,1-.67-.7,3.29,3.29,0,0,1-.2-1.28,2.1,2.1,0,0,1,.7-1.85,6.06,6.06,0,0,1,3.06-.49,4.77,4.77,0,0,1,2.49.46,1.87,1.87,0,0,1,.65,1.62h-1.22V58.8a.76.76,0,0,0-.47-.75,5.45,5.45,0,0,0-1.88-.21,3.84,3.84,0,0,0-1.74.25,1.2,1.2,0,0,0-.37,1,2.17,2.17,0,0,0,.07.68.51.51,0,0,0,.25.29,4.38,4.38,0,0,0,1.62.23l.5,0c.68,0,1.22.06,1.61.1a3.09,3.09,0,0,1,.84.19,1.55,1.55,0,0,1,.78.71,4.2,4.2,0,0,1,0,2.74,2.06,2.06,0,0,1-.81.83,2.29,2.29,0,0,1-.87.24,14.12,14.12,0,0,1-1.67.08,5.53,5.53,0,0,1-2.9-.51,2.09,2.09,0,0,1-.7-1.83Z"/></g></g></svg>