<svg id="Layer_1" data-name="Layer 1" xmlns="http://www.w3.org/2000/svg" viewBox="0 0 355.75 74.6"><defs><style>.cls-1{fill:#fff;}</style></defs><path class="cls-1" d="M344.08,284.78a14.94,14.94,0,0,1-5.41-1,12.53,12.53,0,0,1-4.34-2.72,12.34,12.34,0,0,1-2.86-4.14,13.74,13.74,0,0,1,0-10.44,12.45,12.45,0,0,1,2.88-4.14,12.91,12.91,0,0,1,4.33-2.71,15,15,0,0,1,5.44-1,14.81,14.81,0,0,1,5.92,1.14,11.39,11.39,0,0,1,4.45,3.33l-3.75,3.45a8.69,8.69,0,0,0-2.88-2.21,8.06,8.06,0,0,0-3.45-.74,8.69,8.69,0,0,0-3.24.58,7.24,7.24,0,0,0-2.56,1.65,7.42,7.42,0,0,0-1.67,2.56,9.24,9.24,0,0,0,0,6.55,7.52,7.52,0,0,0,1.67,2.56,7.24,7.24,0,0,0,2.56,1.65,8.69,8.69,0,0,0,3.24.58,8.06,8.06,0,0,0,3.45-.74,8.45,8.45,0,0,0,2.88-2.25l3.75,3.46a11.61,11.61,0,0,1-4.45,3.34A14.74,14.74,0,0,1,344.08,284.78Z" transform="translate(-242.85 -246.82)"/><path class="cls-1" d="M370.11,284.78a15.25,15.25,0,0,1-5.52-1,13,13,0,0,1-4.4-2.73,12.75,12.75,0,0,1-2.88-4.14,13.69,13.69,0,0,1,0-10.37,12.5,12.5,0,0,1,2.9-4.14,13.3,13.3,0,0,1,4.39-2.74,16,16,0,0,1,11,0,13.13,13.13,0,0,1,4.35,2.74,12.83,12.83,0,0,1,2.9,4.12,12.65,12.65,0,0,1,1,5.2,12.83,12.83,0,0,1-1,5.21,12.59,12.59,0,0,1-2.9,4.14,13.22,13.22,0,0,1-4.35,2.71A14.93,14.93,0,0,1,370.11,284.78Zm0-5a8.12,8.12,0,0,0,3.11-.58,7.36,7.36,0,0,0,2.5-1.65,7.7,7.7,0,0,0,1.68-2.56,9.38,9.38,0,0,0,0-6.55,7.7,7.7,0,0,0-1.66-2.56,7.17,7.17,0,0,0-2.5-1.65,8.26,8.26,0,0,0-3.13-.58,8.14,8.14,0,0,0-3.12.58,7.44,7.44,0,0,0-4.17,4.21,9.18,9.18,0,0,0,0,6.53,7.51,7.51,0,0,0,1.65,2.58,7.17,7.17,0,0,0,2.5,1.65A8.28,8.28,0,0,0,370.08,279.81Z" transform="translate(-242.85 -246.82)"/><path class="cls-1" d="M388.26,284.34v-25.2h4.82l10.73,17.79h-2.56l10.55-17.79h4.79l.07,25.2h-5.47l0-16.81h1l-8.42,14.15h-2.63l-8.61-14.15h1.23v16.81Z" transform="translate(-242.85 -246.82)"/><path class="cls-1" d="M422.64,284.34v-25.2h10.9a14.25,14.25,0,0,1,5.84,1.1,8.54,8.54,0,0,1,3.78,3.15,9.62,9.62,0,0,1,0,9.76,8.54,8.54,0,0,1-3.78,3.15,14.25,14.25,0,0,1-5.84,1.1h-7.66l2.59-2.63v9.57Zm5.83-8.92-2.59-2.78h7.34a6,6,0,0,0,4-1.15,4,4,0,0,0,1.33-3.2,4.05,4.05,0,0,0-1.33-3.24,6,6,0,0,0-4-1.15h-7.34l2.59-2.78Z" transform="translate(-242.85 -246.82)"/><path class="cls-1" d="M453.16,284.34V263.9H445.1v-4.76h22v4.76H459v20.44Z" transform="translate(-242.85 -246.82)"/><path class="cls-1" d="M470.19,284.34v-25.2H481.1a14.17,14.17,0,0,1,5.83,1.1,8.54,8.54,0,0,1,3.78,3.15,8.79,8.79,0,0,1,1.33,4.9,8.63,8.63,0,0,1-1.33,4.84,8.46,8.46,0,0,1-3.78,3.11,14.34,14.34,0,0,1-5.83,1.08h-7.67l2.59-2.55v9.57Zm5.83-8.92-2.59-2.74h7.35a6,6,0,0,0,4-1.17,4.59,4.59,0,0,0,0-6.46,6,6,0,0,0-4-1.15h-7.35l2.59-2.78Zm10.19,8.92-6.3-9.14h6.23l6.37,9.14Z" transform="translate(-242.85 -246.82)"/><path class="cls-1" d="M502.45,279.66h13.71v4.68H496.65v-25.2H515.7v4.68H502.45ZM502,269.3h12.14v4.53H502Z" transform="translate(-242.85 -246.82)"/><path class="cls-1" d="M520.81,284.34v-25.2h4.82l14.87,18.15h-2.34V259.14h5.76v25.2h-4.79l-14.9-18.14h2.34v18.14Z" transform="translate(-242.85 -246.82)"/><path class="cls-1" d="M549.89,284.34v-25.2h11.45a16,16,0,0,1,7.24,1.57,11.87,11.87,0,0,1,4.89,4.37,13.4,13.4,0,0,1,0,13.31,11.91,11.91,0,0,1-4.89,4.39,16,16,0,0,1-7.24,1.56Zm5.84-4.78h5.32a9.43,9.43,0,0,0,4.38-1,6.87,6.87,0,0,0,2.88-2.72,8.86,8.86,0,0,0,0-8.29,6.89,6.89,0,0,0-2.88-2.7,9.43,9.43,0,0,0-4.38-1h-5.32Z" transform="translate(-242.85 -246.82)"/><path class="cls-1" d="M587.91,284.78a20.58,20.58,0,0,1-5.8-.81,13.72,13.72,0,0,1-4.46-2.11l2-4.39a14.41,14.41,0,0,0,3.83,1.89,14.18,14.18,0,0,0,4.49.74,9.26,9.26,0,0,0,2.79-.35,3.18,3.18,0,0,0,1.56-.95,2.14,2.14,0,0,0,.51-1.4,1.91,1.91,0,0,0-.8-1.61,6.5,6.5,0,0,0-2.08-1c-.87-.25-1.82-.49-2.87-.72s-2.08-.51-3.13-.84a13.34,13.34,0,0,1-2.86-1.3,6.39,6.39,0,0,1-2.11-2.09,6.24,6.24,0,0,1-.81-3.31,7,7,0,0,1,1.17-3.94,8,8,0,0,1,3.53-2.85,14.58,14.58,0,0,1,5.92-1.06,19.84,19.84,0,0,1,4.68.56,13.44,13.44,0,0,1,4.07,1.67l-1.8,4.43a15,15,0,0,0-3.53-1.49,12.66,12.66,0,0,0-3.45-.49,8,8,0,0,0-2.77.4,3.23,3.23,0,0,0-1.55,1,2.4,2.4,0,0,0-.47,1.46,1.87,1.87,0,0,0,.79,1.57,6.45,6.45,0,0,0,2.09,1c.86.24,1.82.48,2.86.72s2.09.52,3.13.83a12,12,0,0,1,2.87,1.26,6.36,6.36,0,0,1,2.1,2.09,6.05,6.05,0,0,1,.81,3.27,6.74,6.74,0,0,1-1.19,3.89,8.26,8.26,0,0,1-3.54,2.85A14.34,14.34,0,0,1,587.91,284.78Z" transform="translate(-242.85 -246.82)"/><path class="cls-1" d="M295.9,297.78h0A26.57,26.57,0,0,0,298,267c-.13-.21-.27-.41-.41-.61l6.64-5.08,2.12-1.63-1.62-2.12h0l-8.2-10.7-2.11,1.63,8.19,10.7-6.58,5a26.64,26.64,0,0,0-42.13.71l-.56-.43-6.75-5.18h0l8.22-10.72-2.12-1.63-8.22,10.73h0l-1.55,2-.07.09,9,6.9.56.42,0,0a26.62,26.62,0,0,0-2,23.39l-.23.29-7,9.15.14.11,2,1.51h0L256,309.86l1.62-2.12-10.79-8.26,4.6-6,.16-.21c.12.23.24.46.37.68a26.88,26.88,0,0,0,13.18,11.64l.66,1,4.35,6.66,3.37-5.17.35-.54h.18l1.17,0c.33,0,.65,0,1,0l.32.5,3.39,5.21,4.56-7,.29-.44.24-.09a26.38,26.38,0,0,0,5.15-2.72l.51-.37,25.73,18.77,2.07-2.83,2.06-2.83Zm-21,5.34a22.29,22.29,0,1,1,22.29-22.28A22.29,22.29,0,0,1,274.87,303.12Z" transform="translate(-242.85 -246.82)"/><path class="cls-1" d="M291.41,276.38l-1.34.14-1.32.13a9.36,9.36,0,0,0-.25-1.42,10.6,10.6,0,0,0-10-8.14,11.33,11.33,0,0,0-1.43,0l-.14-1.32h0l-.13-1.32a13.3,13.3,0,0,1,14.57,11.9Z" transform="translate(-242.85 -246.82)"/><path class="cls-1" d="M338,306.34a4.44,4.44,0,0,1-2.07-.46,3.53,3.53,0,0,1-1.44-1.26,3.25,3.25,0,0,1-.53-1.83,3.31,3.31,0,0,1,.53-1.85,3.51,3.51,0,0,1,1.44-1.25,4.57,4.57,0,0,1,2.07-.45,4.51,4.51,0,0,1,1.75.32,3,3,0,0,1,1.28,1l-.57.37a2.48,2.48,0,0,0-1.07-.79,3.93,3.93,0,0,0-3.07.11,2.95,2.95,0,0,0-1.16,4.13,2.9,2.9,0,0,0,1.16,1,3.84,3.84,0,0,0,1.68.37,3.74,3.74,0,0,0,1.39-.26,2.48,2.48,0,0,0,1.07-.79l.57.36a3,3,0,0,1-1.28,1A4.7,4.7,0,0,1,338,306.34Z" transform="translate(-242.85 -246.82)"/><path class="cls-1" d="M346.35,306.34a4.39,4.39,0,0,1-2.05-.46,3.61,3.61,0,0,1-1.42-1.26,3.44,3.44,0,0,1,0-3.67,3.69,3.69,0,0,1,1.42-1.26,4.51,4.51,0,0,1,2.05-.45,4.57,4.57,0,0,1,2,.45,3.62,3.62,0,0,1,1.42,1.26,3.5,3.5,0,0,1,0,3.67,3.54,3.54,0,0,1-1.42,1.26A4.45,4.45,0,0,1,346.35,306.34Zm0-.6a3.71,3.71,0,0,0,1.65-.37,2.82,2.82,0,0,0,1.15-1,3.12,3.12,0,0,0,0-3.09,2.8,2.8,0,0,0-1.15-1,3.86,3.86,0,0,0-3.3,0,2.87,2.87,0,0,0-1.15,1,3.05,3.05,0,0,0,0,3.09,2.89,2.89,0,0,0,1.15,1A3.67,3.67,0,0,0,346.35,305.74Z" transform="translate(-242.85 -246.82)"/><path class="cls-1" d="M362.66,299.24a3.92,3.92,0,0,1,1.67.33,2.48,2.48,0,0,1,1.11,1,3.09,3.09,0,0,1,.4,1.64v4.09h-.77v-4a2.33,2.33,0,0,0-.66-1.79,2.57,2.57,0,0,0-1.83-.62,3.32,3.32,0,0,0-1.56.34,2.34,2.34,0,0,0-1,.93,2.81,2.81,0,0,0-.35,1.45v3.73h-.77v-4a2.33,2.33,0,0,0-.66-1.79,2.57,2.57,0,0,0-1.83-.62,3.32,3.32,0,0,0-1.56.34,2.34,2.34,0,0,0-1,.93,2.81,2.81,0,0,0-.35,1.45v3.73h-.77v-7h.73v1.93l-.1-.21a2.7,2.7,0,0,1,1.18-1.3,4,4,0,0,1,2-.47,3.6,3.6,0,0,1,2,.53,2.33,2.33,0,0,1,1,1.57l-.26-.09a2.81,2.81,0,0,1,1.21-1.46A4,4,0,0,1,362.66,299.24Z" transform="translate(-242.85 -246.82)"/><path class="cls-1" d="M369,308.89v-9.6h.73v2.29l-.12,1.22.15,1.22v4.87Zm4-2.55a4.13,4.13,0,0,1-1.91-.43,3.36,3.36,0,0,1-1.34-1.22,3.86,3.86,0,0,1,0-3.8,3.29,3.29,0,0,1,1.34-1.22,4.13,4.13,0,0,1,1.91-.43,4.49,4.49,0,0,1,2,.45,3.46,3.46,0,0,1,1.4,1.25,3.55,3.55,0,0,1,0,3.7,3.54,3.54,0,0,1-1.4,1.25A4.49,4.49,0,0,1,373,306.34Zm-.05-.6a3.67,3.67,0,0,0,1.65-.37,2.87,2.87,0,0,0,0-5.16,3.55,3.55,0,0,0-1.65-.37,3.51,3.51,0,0,0-1.64.37,2.8,2.8,0,0,0-1.15,1,2.89,2.89,0,0,0,1.15,4.13A3.63,3.63,0,0,0,373,305.74Z" transform="translate(-242.85 -246.82)"/><path class="cls-1" d="M381.44,306.34a4.16,4.16,0,0,1-1.53-.25,2.15,2.15,0,0,1-1-.7,1.69,1.69,0,0,1-.34-1.05,1.74,1.74,0,0,1,.28-1,2,2,0,0,1,.94-.71,4.75,4.75,0,0,1,1.76-.27h2.94v.52h-2.92a2.82,2.82,0,0,0-1.74.4,1.25,1.25,0,0,0-.5,1,1.27,1.27,0,0,0,.58,1.07,2.86,2.86,0,0,0,1.64.4,3.38,3.38,0,0,0,1.71-.4,2.45,2.45,0,0,0,1-1.17l.21.46a2.45,2.45,0,0,1-1.09,1.21A3.88,3.88,0,0,1,381.44,306.34Zm2.88,0v-1.6l0-.24v-2.63a1.83,1.83,0,0,0-.6-1.48,2.71,2.71,0,0,0-1.77-.51,4.78,4.78,0,0,0-1.54.24,4.54,4.54,0,0,0-1.22.64l-.38-.48a4.44,4.44,0,0,1,1.44-.73,5.73,5.73,0,0,1,1.76-.26,3.54,3.54,0,0,1,2.28.65,2.39,2.39,0,0,1,.79,2v4.44Z" transform="translate(-242.85 -246.82)"/><path class="cls-1" d="M388.21,306.29v-7h.73v1.92l-.08-.22a2.63,2.63,0,0,1,1.14-1.3,4,4,0,0,1,2-.45v.65h-.19a2.84,2.84,0,0,0-2.08.73,2.72,2.72,0,0,0-.75,2v3.65Z" transform="translate(-242.85 -246.82)"/><path class="cls-1" d="M394.48,297.59a.63.63,0,0,1-.44-.16.47.47,0,0,1-.19-.38.49.49,0,0,1,.19-.39.68.68,0,0,1,.44-.16.69.69,0,0,1,.45.16.48.48,0,0,1,.18.38.51.51,0,0,1-.18.39A.64.64,0,0,1,394.48,297.59Zm-.38,8.7v-7h.76v7Z" transform="translate(-242.85 -246.82)"/><path class="cls-1" d="M402,299.24a4.14,4.14,0,0,1,1.71.33,2.47,2.47,0,0,1,1.13,1,3.09,3.09,0,0,1,.41,1.64v4.09h-.77v-4a2.31,2.31,0,0,0-.68-1.79,2.74,2.74,0,0,0-1.91-.62,3.58,3.58,0,0,0-1.62.34,2.31,2.31,0,0,0-1,.93,2.72,2.72,0,0,0-.36,1.45v3.73h-.77v-7h.73v1.94l-.1-.21a2.78,2.78,0,0,1,1.21-1.31A4.21,4.21,0,0,1,402,299.24Z" transform="translate(-242.85 -246.82)"/><path class="cls-1" d="M411.49,306a4.54,4.54,0,0,1-2-.43,3.61,3.61,0,0,1-1.43-1.21,3.2,3.2,0,0,1,0-3.53,3.49,3.49,0,0,1,1.43-1.19,4.54,4.54,0,0,1,2-.43,4.36,4.36,0,0,1,1.95.41,3.25,3.25,0,0,1,1.37,1.16,3.48,3.48,0,0,1,0,3.63,3.29,3.29,0,0,1-1.37,1.18A4.5,4.5,0,0,1,411.49,306Zm.22,2.91a7,7,0,0,1-2.07-.3,4.25,4.25,0,0,1-1.59-.81l.41-.51a4.52,4.52,0,0,0,1.43.75,5.85,5.85,0,0,0,1.8.27,3.57,3.57,0,0,0,2.37-.66,2.61,2.61,0,0,0,.75-2.06v-1.95l.16-1-.13-1.05v-2.29h.74v6.25a3.23,3.23,0,0,1-1,2.58A4.46,4.46,0,0,1,411.71,308.94Zm-.16-3.51a3.8,3.8,0,0,0,1.7-.36,2.74,2.74,0,0,0,1.16-1,2.73,2.73,0,0,0,0-2.91,2.79,2.79,0,0,0-1.16-1,3.94,3.94,0,0,0-1.7-.35,3.9,3.9,0,0,0-1.67.35,2.73,2.73,0,0,0-1.16,1,2.73,2.73,0,0,0,0,2.91,2.68,2.68,0,0,0,1.16,1A3.76,3.76,0,0,0,411.55,305.43Z" transform="translate(-242.85 -246.82)"/><path class="cls-1" d="M424.77,306.34a6.58,6.58,0,0,1-1.86-.26,3.58,3.58,0,0,1-1.33-.64l.35-.53a4,4,0,0,0,1.22.59,5.19,5.19,0,0,0,1.65.25,3.44,3.44,0,0,0,1.81-.36,1.09,1.09,0,0,0,.55-.95.85.85,0,0,0-.28-.68,2,2,0,0,0-.76-.38,9,9,0,0,0-1-.22L424,303a5.08,5.08,0,0,1-1-.3,1.91,1.91,0,0,1-.76-.56,1.47,1.47,0,0,1-.28-1,1.55,1.55,0,0,1,.33-1,2.27,2.27,0,0,1,1-.69,4.58,4.58,0,0,1,1.69-.26,5.93,5.93,0,0,1,1.5.19,3.94,3.94,0,0,1,1.23.49l-.35.54a3.29,3.29,0,0,0-1.13-.49,6,6,0,0,0-1.27-.14,3.1,3.1,0,0,0-1.71.37,1.12,1.12,0,0,0-.54.94.92.92,0,0,0,.28.7,2,2,0,0,0,.76.41,7.31,7.31,0,0,0,1,.22l1.13.2a5.37,5.37,0,0,1,1.05.3,1.91,1.91,0,0,1,.75.54,1.36,1.36,0,0,1,.29.91,1.52,1.52,0,0,1-.36,1,2.4,2.4,0,0,1-1.07.67A5.39,5.39,0,0,1,424.77,306.34Z" transform="translate(-242.85 -246.82)"/><path class="cls-1" d="M433.19,306.34a4.32,4.32,0,0,1-2-.46,3.64,3.64,0,0,1-1.43-1.26,3.5,3.5,0,0,1,0-3.67,3.72,3.72,0,0,1,1.43-1.26,4.44,4.44,0,0,1,2-.45,4.54,4.54,0,0,1,2.05.45,3.62,3.62,0,0,1,1.42,1.26,3.5,3.5,0,0,1,0,3.67,3.54,3.54,0,0,1-1.42,1.26A4.42,4.42,0,0,1,433.19,306.34Zm0-.6a3.71,3.71,0,0,0,1.65-.37,2.82,2.82,0,0,0,1.15-1,3.12,3.12,0,0,0,0-3.09,2.8,2.8,0,0,0-1.15-1,3.86,3.86,0,0,0-3.3,0,2.89,2.89,0,0,0,0,5.16A3.71,3.71,0,0,0,433.19,305.74Z" transform="translate(-242.85 -246.82)"/><path class="cls-1" d="M439.55,306.29v-10h.77v10Z" transform="translate(-242.85 -246.82)"/><path class="cls-1" d="M446.79,306.34A4.33,4.33,0,0,1,445,306a2.51,2.51,0,0,1-1.16-1,3.09,3.09,0,0,1-.41-1.64v-4.09h.77v4a2.29,2.29,0,0,0,.69,1.8,2.81,2.81,0,0,0,1.94.62,3.45,3.45,0,0,0,1.56-.34,2.36,2.36,0,0,0,1-.94,2.79,2.79,0,0,0,.35-1.44v-3.73h.77v7h-.74v-2l.11.23a2.61,2.61,0,0,1-1.17,1.29A3.76,3.76,0,0,1,446.79,306.34Z" transform="translate(-242.85 -246.82)"/><path class="cls-1" d="M452.47,299.87v-.58h4.77v.58Zm3.64,6.47a2.33,2.33,0,0,1-1.62-.51,1.79,1.79,0,0,1-.56-1.39v-6.68h.77v6.61a1.36,1.36,0,0,0,.38,1,1.55,1.55,0,0,0,1.1.36,1.92,1.92,0,0,0,1.24-.39l.33.47a2,2,0,0,1-.75.38A3.35,3.35,0,0,1,456.11,306.34Z" transform="translate(-242.85 -246.82)"/><path class="cls-1" d="M460.25,297.59a.63.63,0,0,1-.44-.16.49.49,0,0,1-.18-.38.51.51,0,0,1,.18-.39.68.68,0,0,1,.44-.16.69.69,0,0,1,.46.16.5.5,0,0,1,.17.38.54.54,0,0,1-.17.39A.65.65,0,0,1,460.25,297.59Zm-.38,8.7v-7h.77v7Z" transform="translate(-242.85 -246.82)"/><path class="cls-1" d="M467,306.34a4.39,4.39,0,0,1-2.05-.46,3.61,3.61,0,0,1-1.42-1.26,3.44,3.44,0,0,1,0-3.67,3.69,3.69,0,0,1,1.42-1.26,4.51,4.51,0,0,1,2.05-.45,4.57,4.57,0,0,1,2.05.45,3.62,3.62,0,0,1,1.42,1.26,3.5,3.5,0,0,1,0,3.67,3.54,3.54,0,0,1-1.42,1.26A4.45,4.45,0,0,1,467,306.34Zm0-.6a3.71,3.71,0,0,0,1.65-.37,2.82,2.82,0,0,0,1.15-1,3.12,3.12,0,0,0,0-3.09,2.8,2.8,0,0,0-1.15-1,3.86,3.86,0,0,0-3.3,0,2.87,2.87,0,0,0-1.15,1,3.05,3.05,0,0,0,0,3.09,2.89,2.89,0,0,0,1.15,1A3.67,3.67,0,0,0,467,305.74Z" transform="translate(-242.85 -246.82)"/><path class="cls-1" d="M477.25,299.24a4.14,4.14,0,0,1,1.71.33,2.47,2.47,0,0,1,1.13,1,3.09,3.09,0,0,1,.41,1.64v4.09h-.77v-4a2.31,2.31,0,0,0-.68-1.79,2.74,2.74,0,0,0-1.91-.62,3.58,3.58,0,0,0-1.62.34,2.44,2.44,0,0,0-1,.93,2.91,2.91,0,0,0-.35,1.45v3.73h-.77v-7h.74v1.94L474,301a2.78,2.78,0,0,1,1.21-1.31A4.21,4.21,0,0,1,477.25,299.24Z" transform="translate(-242.85 -246.82)"/><path class="cls-1" d="M485.67,306.34a6.48,6.48,0,0,1-1.86-.26,3.64,3.64,0,0,1-1.34-.64l.35-.53a4.15,4.15,0,0,0,1.23.59,5.14,5.14,0,0,0,1.65.25,3.4,3.4,0,0,0,1.8-.36,1.09,1.09,0,0,0,.55-.95.85.85,0,0,0-.28-.68,2,2,0,0,0-.76-.38,8.58,8.58,0,0,0-1-.22l-1.13-.2a5.27,5.27,0,0,1-1-.3,1.91,1.91,0,0,1-.76-.56,1.47,1.47,0,0,1-.28-1,1.5,1.5,0,0,1,.34-1,2.21,2.21,0,0,1,1-.69,4.53,4.53,0,0,1,1.68-.26,6.07,6.07,0,0,1,1.51.19,4.15,4.15,0,0,1,1.23.49l-.35.54A3.43,3.43,0,0,0,487,300a6,6,0,0,0-1.27-.14,3,3,0,0,0-1.7.37,1.13,1.13,0,0,0-.55.94.89.89,0,0,0,.29.7,1.9,1.9,0,0,0,.76.41,7,7,0,0,0,1,.22l1.13.2a5.27,5.27,0,0,1,1,.3,1.94,1.94,0,0,1,.76.54,1.41,1.41,0,0,1,.28.91,1.52,1.52,0,0,1-.36,1,2.42,2.42,0,0,1-1.06.67A5.43,5.43,0,0,1,485.67,306.34Z" transform="translate(-242.85 -246.82)"/></svg>