<svg xmlns="http://www.w3.org/2000/svg" viewBox="0 0 355.75 74.6"><defs><style>.cls-1{fill:#fff;}</style></defs><g id="Layer_2" data-name="Layer 2"><g id="Layer_1-2" data-name="Layer 1"><path class="cls-1" d="M101.23,38a15,15,0,0,1-5.42-1,12.74,12.74,0,0,1-4.33-2.72,12.51,12.51,0,0,1-2.87-4.14,13.07,13.07,0,0,1-1-5.22,13.14,13.14,0,0,1,1-5.22,12.75,12.75,0,0,1,2.88-4.14,13.24,13.24,0,0,1,4.34-2.72,15.2,15.2,0,0,1,5.44-.95A15,15,0,0,1,107.19,13a11.66,11.66,0,0,1,4.45,3.33l-3.75,3.46A8.69,8.69,0,0,0,105,17.6a8,8,0,0,0-3.45-.74,8.89,8.89,0,0,0-3.24.57,7.37,7.37,0,0,0-4.23,4.22,8.58,8.58,0,0,0-.6,3.27,8.67,8.67,0,0,0,.6,3.28,7.48,7.48,0,0,0,1.67,2.55,7.26,7.26,0,0,0,2.56,1.66,8.89,8.89,0,0,0,3.24.58,8.09,8.09,0,0,0,3.45-.74A8.45,8.45,0,0,0,107.89,30l3.75,3.45a11.71,11.71,0,0,1-4.45,3.35A14.74,14.74,0,0,1,101.23,38Z"/><path class="cls-1" d="M127.26,38a15.34,15.34,0,0,1-5.53-1,13.24,13.24,0,0,1-4.39-2.73,12.75,12.75,0,0,1-2.88-4.14,13.06,13.06,0,0,1-1-5.19,13,13,0,0,1,1-5.18,12.3,12.3,0,0,1,2.9-4.14,13.3,13.3,0,0,1,4.39-2.74,16,16,0,0,1,11,0,13.17,13.17,0,0,1,4.36,2.74A12.52,12.52,0,0,1,141,24.92a13,13,0,0,1-1,5.2,12.39,12.39,0,0,1-2.9,4.14A13.29,13.29,0,0,1,132.71,37,14.83,14.83,0,0,1,127.26,38Zm0-5a8.33,8.33,0,0,0,3.12-.58,7.39,7.39,0,0,0,2.5-1.66,7.48,7.48,0,0,0,1.67-2.55,8.67,8.67,0,0,0,.6-3.28,8.58,8.58,0,0,0-.6-3.27,7.52,7.52,0,0,0-1.65-2.56,7.34,7.34,0,0,0-2.5-1.66,8.47,8.47,0,0,0-3.14-.57,8.27,8.27,0,0,0-3.11.57,7.56,7.56,0,0,0-4.18,4.22,8.77,8.77,0,0,0-.59,3.27,8.87,8.87,0,0,0,.59,3.26,7.64,7.64,0,0,0,1.66,2.57,7.2,7.2,0,0,0,2.5,1.66A8.42,8.42,0,0,0,127.22,33Z"/><path class="cls-1" d="M145.4,37.52V12.32h4.83L161,30.11H158.4L169,12.32h4.78l.08,25.2h-5.47l0-16.81h1l-8.43,14.15h-2.63l-8.6-14.15h1.23V37.52Z"/><path class="cls-1" d="M179.78,37.52V12.32h10.91a14.17,14.17,0,0,1,5.83,1.1,8.54,8.54,0,0,1,3.78,3.15,8.79,8.79,0,0,1,1.33,4.9,8.31,8.31,0,0,1-5.11,8,14.18,14.18,0,0,1-5.83,1.09H183L185.61,28v9.57Zm5.83-8.93L183,25.82h7.35a6,6,0,0,0,4-1.15,4,4,0,0,0,1.33-3.2,4,4,0,0,0-1.33-3.24,6,6,0,0,0-4-1.16H183l2.59-2.77Z"/><path class="cls-1" d="M210.31,37.52V17.07h-8.06V12.32h22v4.75h-8.07V37.52Z"/><path class="cls-1" d="M227.34,37.52V12.32h10.91a14.2,14.2,0,0,1,5.83,1.1,8.54,8.54,0,0,1,3.78,3.15,8.79,8.79,0,0,1,1.33,4.9,8.63,8.63,0,0,1-1.33,4.84,8.52,8.52,0,0,1-3.78,3.11,14.38,14.38,0,0,1-5.83,1.08h-7.67L233.17,28v9.57Zm5.83-8.93-2.59-2.73h7.34a6,6,0,0,0,4-1.17,4.1,4.1,0,0,0,1.33-3.22A4.06,4.06,0,0,0,242,18.23a6,6,0,0,0-4-1.16h-7.34l2.59-2.77Zm10.19,8.93-6.3-9.14h6.23l6.37,9.14Z"/><path class="cls-1" d="M259.59,32.84h13.72v4.68H253.8V12.32h19V17H259.59Zm-.43-10.37H271.3V27H259.16Z"/><path class="cls-1" d="M278,37.52V12.32h4.83l14.87,18.15h-2.34V12.32h5.76v25.2h-4.79l-14.9-18.14h2.33V37.52Z"/><path class="cls-1" d="M307,37.52V12.32h11.45a15.91,15.91,0,0,1,7.24,1.57,11.93,11.93,0,0,1,4.89,4.37,12.22,12.22,0,0,1,1.77,6.66,12.22,12.22,0,0,1-1.77,6.64,11.93,11.93,0,0,1-4.89,4.4,16,16,0,0,1-7.24,1.56Zm5.83-4.79h5.33a9.43,9.43,0,0,0,4.38-.95,7,7,0,0,0,2.88-2.72,8.09,8.09,0,0,0,1-4.14,8.12,8.12,0,0,0-1-4.16,7.08,7.08,0,0,0-2.88-2.7,9.55,9.55,0,0,0-4.38-.95h-5.33Z"/><path class="cls-1" d="M345.06,38a20.58,20.58,0,0,1-5.8-.81A13.62,13.62,0,0,1,334.8,35l2-4.39a15,15,0,0,0,3.83,1.89,14.15,14.15,0,0,0,4.48.73,9.25,9.25,0,0,0,2.79-.34,3.29,3.29,0,0,0,1.57-.95,2.14,2.14,0,0,0,.5-1.41,1.9,1.9,0,0,0-.79-1.6,6.56,6.56,0,0,0-2.09-1c-.86-.25-1.82-.49-2.86-.72s-2.09-.51-3.13-.85a12.84,12.84,0,0,1-2.86-1.29,6.39,6.39,0,0,1-2.11-2.09,6.15,6.15,0,0,1-.81-3.31,7,7,0,0,1,1.17-3.94A8,8,0,0,1,340,13a14.42,14.42,0,0,1,5.92-1.06,19.91,19.91,0,0,1,4.68.56,13.54,13.54,0,0,1,4.07,1.67l-1.8,4.43a15.23,15.23,0,0,0-3.53-1.49,12.72,12.72,0,0,0-3.45-.49,8.06,8.06,0,0,0-2.78.4,3.2,3.2,0,0,0-1.54,1,2.34,2.34,0,0,0-.47,1.46,1.87,1.87,0,0,0,.79,1.57A6.35,6.35,0,0,0,344,22c.86.24,1.82.48,2.86.72s2.09.52,3.13.83a11.93,11.93,0,0,1,2.86,1.26,6.29,6.29,0,0,1,2.11,2.09,6.05,6.05,0,0,1,.81,3.27A6.84,6.84,0,0,1,354.56,34,8.22,8.22,0,0,1,351,36.87,14.29,14.29,0,0,1,345.06,38Z"/><path class="cls-1" d="M53.05,51h0a26.59,26.59,0,0,0,2.1-30.83c-.12-.21-.26-.41-.4-.62l6.64-5.07,2.12-1.63-1.62-2.12h0L53.69,0,51.58,1.63l8.19,10.69-6.59,5.05a26.63,26.63,0,0,0-42.12.71l-.56-.43L3.75,12.47h0L12,1.73,9.85.11,1.63,10.84h0l-1.55,2L0,13l9,6.9.56.42,0,0a26.62,26.62,0,0,0-2,23.39L7.3,44l-7,9.15.14.11,2,1.51h0L13.19,63l1.62-2.12L4,52.65l4.6-6,.16-.21c.12.22.23.46.36.68A26.9,26.9,0,0,0,22.33,58.78l.66,1,4.35,6.66,3.37-5.17.35-.54h.17q.59,0,1.17,0c.34,0,.66,0,1,0l.32.5,3.39,5.21,4.56-7,.28-.44.24-.09a26.38,26.38,0,0,0,5.15-2.72l.52-.37L73.58,74.6l2.07-2.83,2.06-2.83ZM32,56.29A22.28,22.28,0,1,1,54.3,34,22.28,22.28,0,0,1,32,56.29Z"/><path class="cls-1" d="M48.55,29.56l-1.33.14-1.32.13a9.36,9.36,0,0,0-.25-1.42,10.6,10.6,0,0,0-10-8.14,9.63,9.63,0,0,0-1.42,0L34.12,19h0L34,17.65A13.3,13.3,0,0,1,48.55,29.56Z"/><path class="cls-1" d="M95.19,59.52a4.52,4.52,0,0,1-2.08-.46,3.67,3.67,0,0,1-1.44-1.26,3.52,3.52,0,0,1,0-3.68,3.67,3.67,0,0,1,1.44-1.26,4.64,4.64,0,0,1,2.08-.44,4.51,4.51,0,0,1,1.75.32,2.91,2.91,0,0,1,1.27,1l-.56.36a2.63,2.63,0,0,0-1.07-.79A3.73,3.73,0,0,0,95.19,53a3.64,3.64,0,0,0-1.68.37A2.76,2.76,0,0,0,91.93,56a2.8,2.8,0,0,0,.42,1.54,2.85,2.85,0,0,0,1.16,1,3.77,3.77,0,0,0,1.68.36,3.73,3.73,0,0,0,1.39-.25,2.54,2.54,0,0,0,1.07-.79l.56.36a3,3,0,0,1-1.27,1A4.7,4.7,0,0,1,95.19,59.52Z"/><path class="cls-1" d="M103.49,59.52a4.38,4.38,0,0,1-2-.46A3.54,3.54,0,0,1,100,57.8,3.27,3.27,0,0,1,99.5,56a3.31,3.31,0,0,1,.53-1.85,3.59,3.59,0,0,1,1.42-1.25,4.87,4.87,0,0,1,4.09,0A3.56,3.56,0,0,1,107,54.12a3.39,3.39,0,0,1,.52,1.85A3.35,3.35,0,0,1,107,57.8a3.51,3.51,0,0,1-1.43,1.26A4.39,4.39,0,0,1,103.49,59.52Zm0-.61a3.71,3.71,0,0,0,1.66-.36A2.82,2.82,0,0,0,106.71,56a2.83,2.83,0,0,0-.42-1.55,2.77,2.77,0,0,0-1.14-1,3.59,3.59,0,0,0-1.66-.37,3.51,3.51,0,0,0-1.64.37,2.8,2.8,0,0,0-1.15,1,3.05,3.05,0,0,0,0,3.09,2.9,2.9,0,0,0,1.15,1A3.63,3.63,0,0,0,103.49,58.91Z"/><path class="cls-1" d="M119.8,52.42a4,4,0,0,1,1.68.32,2.54,2.54,0,0,1,1.11,1,3.22,3.22,0,0,1,.39,1.65v4.08h-.76v-4a2.36,2.36,0,0,0-.66-1.8,2.58,2.58,0,0,0-1.83-.61,3.39,3.39,0,0,0-1.56.33,2.42,2.42,0,0,0-1,.94,2.79,2.79,0,0,0-.36,1.45v3.72H116v-4a2.36,2.36,0,0,0-.66-1.8,2.58,2.58,0,0,0-1.83-.61,3.46,3.46,0,0,0-1.57.33,2.55,2.55,0,0,0-1,.94,2.88,2.88,0,0,0-.35,1.45v3.72h-.76v-7h.73V54.4l-.11-.22a2.77,2.77,0,0,1,1.18-1.29,3.91,3.91,0,0,1,2-.47,3.62,3.62,0,0,1,2,.52,2.39,2.39,0,0,1,1,1.58l-.26-.09A2.76,2.76,0,0,1,117.65,53,4,4,0,0,1,119.8,52.42Z"/><path class="cls-1" d="M126.14,62.06V52.47h.73v2.29L126.75,56l.15,1.22v4.86Zm4-2.54a4.26,4.26,0,0,1-1.91-.43,3.41,3.41,0,0,1-1.35-1.23,3.91,3.91,0,0,1,0-3.79,3.41,3.41,0,0,1,1.35-1.23,4.25,4.25,0,0,1,1.91-.42,4.41,4.41,0,0,1,2,.44,3.45,3.45,0,0,1,1.41,1.26,3.59,3.59,0,0,1,0,3.69,3.45,3.45,0,0,1-1.41,1.26A4.41,4.41,0,0,1,130.15,59.52Zm-.05-.61a3.7,3.7,0,0,0,1.65-.36,2.92,2.92,0,0,0,1.16-1,2.86,2.86,0,0,0-1.16-4.12A3.58,3.58,0,0,0,130.1,53a3.51,3.51,0,0,0-1.64.37,2.8,2.8,0,0,0-1.15,1,3.05,3.05,0,0,0,0,3.09,2.9,2.9,0,0,0,1.15,1A3.63,3.63,0,0,0,130.1,58.91Z"/><path class="cls-1" d="M138.59,59.52a4.48,4.48,0,0,1-1.54-.25,2.25,2.25,0,0,1-1-.7,1.76,1.76,0,0,1-.06-2,2,2,0,0,1,.94-.71,4.69,4.69,0,0,1,1.76-.28h2.94v.53h-2.93a2.8,2.8,0,0,0-1.73.4,1.27,1.27,0,0,0,.08,2.08,2.92,2.92,0,0,0,1.64.4,3.42,3.42,0,0,0,1.7-.4,2.47,2.47,0,0,0,1-1.17l.21.46a2.54,2.54,0,0,1-1.09,1.21A3.88,3.88,0,0,1,138.59,59.52Zm2.88-.06V57.87l0-.24V55a1.83,1.83,0,0,0-.61-1.49,2.66,2.66,0,0,0-1.76-.51,4.74,4.74,0,0,0-1.54.25,4.39,4.39,0,0,0-1.22.64l-.38-.48a4.25,4.25,0,0,1,1.44-.73,5.68,5.68,0,0,1,1.76-.26,3.48,3.48,0,0,1,2.28.65,2.39,2.39,0,0,1,.79,2v4.43Z"/><path class="cls-1" d="M145.35,59.46v-7h.74v1.92l-.08-.22a2.57,2.57,0,0,1,1.13-1.3,4,4,0,0,1,2-.45v.65H149a2.84,2.84,0,0,0-2.08.73,2.7,2.7,0,0,0-.75,2v3.64Z"/><path class="cls-1" d="M151.63,50.77a.71.71,0,0,1-.45-.16.5.5,0,0,1,0-.77.65.65,0,0,1,.45-.16.64.64,0,0,1,.45.16.47.47,0,0,1,.17.38.5.5,0,0,1-.17.39A.69.69,0,0,1,151.63,50.77Zm-.39,8.69v-7H152v7Z"/><path class="cls-1" d="M159.14,52.42a4.14,4.14,0,0,1,1.71.32,2.53,2.53,0,0,1,1.13,1,3.13,3.13,0,0,1,.4,1.65v4.08h-.76v-4a2.33,2.33,0,0,0-.68-1.8A2.76,2.76,0,0,0,159,53a3.72,3.72,0,0,0-1.62.33,2.47,2.47,0,0,0-1,.94,2.79,2.79,0,0,0-.36,1.45v3.72h-.76v-7H156v1.94l-.11-.21a2.79,2.79,0,0,1,1.21-1.31A4.12,4.12,0,0,1,159.14,52.42Z"/><path class="cls-1" d="M168.64,59.21a4.62,4.62,0,0,1-2-.44,3.63,3.63,0,0,1-1.42-1.2,3.08,3.08,0,0,1-.53-1.77,3,3,0,0,1,.53-1.76,3.63,3.63,0,0,1,1.42-1.2,4.76,4.76,0,0,1,2-.42,4.56,4.56,0,0,1,2,.4A3.33,3.33,0,0,1,172,54a3.47,3.47,0,0,1,0,3.62,3.28,3.28,0,0,1-1.37,1.18A4.43,4.43,0,0,1,168.64,59.21Zm.21,2.91a7,7,0,0,1-2.06-.3A4.26,4.26,0,0,1,165.2,61l.41-.5a4.52,4.52,0,0,0,1.43.75,6.17,6.17,0,0,0,1.8.26,3.58,3.58,0,0,0,2.36-.65,2.59,2.59,0,0,0,.76-2.07V56.85l.15-1.05-.12-1V52.47h.74v6.24a3.2,3.2,0,0,1-1,2.58A4.36,4.36,0,0,1,168.85,62.12Zm-.15-3.51a3.83,3.83,0,0,0,1.7-.36,3,3,0,0,0,1.16-1,2.75,2.75,0,0,0,0-2.92,2.91,2.91,0,0,0-1.16-1,3.83,3.83,0,0,0-1.7-.35,3.76,3.76,0,0,0-1.67.35,2.81,2.81,0,0,0-1.17,1,2.75,2.75,0,0,0,0,2.92,2.85,2.85,0,0,0,1.17,1A3.76,3.76,0,0,0,168.7,58.61Z"/><path class="cls-1" d="M181.92,59.52a6.58,6.58,0,0,1-1.86-.26,3.89,3.89,0,0,1-1.34-.64l.35-.54a4.15,4.15,0,0,0,1.23.6,5.48,5.48,0,0,0,1.65.25,3.44,3.44,0,0,0,1.81-.36,1.13,1.13,0,0,0,.55-1,.84.84,0,0,0-.29-.67,1.71,1.71,0,0,0-.75-.38,9.43,9.43,0,0,0-1-.23c-.38,0-.76-.12-1.14-.19a4.84,4.84,0,0,1-1-.31,1.93,1.93,0,0,1-.75-.55,1.49,1.49,0,0,1-.29-1,1.52,1.52,0,0,1,.34-1,2.21,2.21,0,0,1,1-.69,4.56,4.56,0,0,1,1.68-.26,6.49,6.49,0,0,1,1.51.18,3.93,3.93,0,0,1,1.23.5l-.35.53a3.57,3.57,0,0,0-1.13-.48A5.44,5.44,0,0,0,182,53a3,3,0,0,0-1.71.38,1.11,1.11,0,0,0-.54.94.9.9,0,0,0,.28.7,1.77,1.77,0,0,0,.76.4,7.27,7.27,0,0,0,1,.23l1.13.19a5.79,5.79,0,0,1,1,.31,2,2,0,0,1,.76.53,1.4,1.4,0,0,1,.28.92,1.54,1.54,0,0,1-.36,1,2.45,2.45,0,0,1-1.06.67A5.43,5.43,0,0,1,181.92,59.52Z"/><path class="cls-1" d="M190.34,59.52a4.39,4.39,0,0,1-2.05-.46,3.61,3.61,0,0,1-1.42-1.26,3.27,3.27,0,0,1-.53-1.83,3.31,3.31,0,0,1,.53-1.85,3.66,3.66,0,0,1,1.42-1.25,4.51,4.51,0,0,1,2.05-.45,4.57,4.57,0,0,1,2,.45,3.59,3.59,0,0,1,1.42,1.25,3.31,3.31,0,0,1,.52,1.85,3.26,3.26,0,0,1-.52,1.83,3.54,3.54,0,0,1-1.42,1.26A4.45,4.45,0,0,1,190.34,59.52Zm0-.61a3.7,3.7,0,0,0,1.65-.36,2.9,2.9,0,0,0,1.15-1,3.12,3.12,0,0,0,0-3.09,2.8,2.8,0,0,0-1.15-1,3.86,3.86,0,0,0-3.3,0,2.87,2.87,0,0,0-1.15,1,3.05,3.05,0,0,0,0,3.09,3,3,0,0,0,1.15,1A3.67,3.67,0,0,0,190.34,58.91Z"/><path class="cls-1" d="M196.7,59.46V49.52h.77v9.94Z"/><path class="cls-1" d="M203.94,59.52a4.38,4.38,0,0,1-1.78-.33,2.48,2.48,0,0,1-1.15-1,3.09,3.09,0,0,1-.41-1.64V52.47h.77v4a2.29,2.29,0,0,0,.69,1.8,2.79,2.79,0,0,0,1.94.61,3.45,3.45,0,0,0,1.56-.33,2.38,2.38,0,0,0,1-.95,2.84,2.84,0,0,0,.35-1.44V52.47h.77v7H207V57.52l.11.23A2.8,2.8,0,0,1,205.89,59,3.81,3.81,0,0,1,203.94,59.52Z"/><path class="cls-1" d="M209.61,53.05v-.58h4.78v.58Zm3.64,6.47a2.3,2.3,0,0,1-1.61-.51,1.82,1.82,0,0,1-.56-1.4V50.94h.77v6.61a1.34,1.34,0,0,0,.38,1,1.53,1.53,0,0,0,1.1.36,1.94,1.94,0,0,0,1.24-.39l.32.47a1.92,1.92,0,0,1-.74.38A3.37,3.37,0,0,1,213.25,59.52Z"/><path class="cls-1" d="M217.4,50.77a.68.68,0,0,1-.44-.16.49.49,0,0,1,0-.77.63.63,0,0,1,.44-.16.64.64,0,0,1,.45.16.48.48,0,0,1,.18.38.51.51,0,0,1-.18.39A.69.69,0,0,1,217.4,50.77ZM217,59.46v-7h.76v7Z"/><path class="cls-1" d="M224.13,59.52a4.38,4.38,0,0,1-2-.46,3.54,3.54,0,0,1-1.42-1.26,3.27,3.27,0,0,1-.53-1.83,3.31,3.31,0,0,1,.53-1.85,3.59,3.59,0,0,1,1.42-1.25,4.87,4.87,0,0,1,4.09,0,3.62,3.62,0,0,1,1.43,1.25,3.39,3.39,0,0,1,.52,1.85,3.35,3.35,0,0,1-.52,1.83,3.57,3.57,0,0,1-1.43,1.26A4.39,4.39,0,0,1,224.13,59.52Zm0-.61a3.71,3.71,0,0,0,1.66-.36A2.82,2.82,0,0,0,227.35,56a2.83,2.83,0,0,0-.42-1.55,2.77,2.77,0,0,0-1.14-1,3.59,3.59,0,0,0-1.66-.37,3.51,3.51,0,0,0-1.64.37,2.8,2.8,0,0,0-1.15,1,3.05,3.05,0,0,0,0,3.09,2.9,2.9,0,0,0,1.15,1A3.63,3.63,0,0,0,224.13,58.91Z"/><path class="cls-1" d="M234.4,52.42a4.14,4.14,0,0,1,1.71.32,2.53,2.53,0,0,1,1.13,1,3.13,3.13,0,0,1,.4,1.65v4.08h-.76v-4a2.33,2.33,0,0,0-.68-1.8,2.76,2.76,0,0,0-1.91-.61,3.72,3.72,0,0,0-1.62.33,2.47,2.47,0,0,0-1,.94,2.79,2.79,0,0,0-.36,1.45v3.72h-.76v-7h.73v1.94l-.1-.21a2.72,2.72,0,0,1,1.2-1.31A4.12,4.12,0,0,1,234.4,52.42Z"/><path class="cls-1" d="M242.81,59.52a6.46,6.46,0,0,1-1.85-.26,3.72,3.72,0,0,1-1.34-.64l.35-.54a4,4,0,0,0,1.22.6,5.48,5.48,0,0,0,1.65.25,3.44,3.44,0,0,0,1.81-.36,1.1,1.1,0,0,0,.55-1,.83.83,0,0,0-.28-.67,1.75,1.75,0,0,0-.76-.38,9,9,0,0,0-1-.23c-.38,0-.75-.12-1.13-.19a4.52,4.52,0,0,1-1-.31,1.89,1.89,0,0,1-.76-.55,1.49,1.49,0,0,1-.28-1,1.51,1.51,0,0,1,.33-1,2.27,2.27,0,0,1,1-.69,4.58,4.58,0,0,1,1.69-.26,6.41,6.41,0,0,1,1.5.18,4.1,4.1,0,0,1,1.24.5l-.36.53a3.48,3.48,0,0,0-1.13-.48,5.44,5.44,0,0,0-1.27-.15,3,3,0,0,0-1.7.38,1.1,1.1,0,0,0-.55.94.9.9,0,0,0,.29.7,1.73,1.73,0,0,0,.75.4,7.59,7.59,0,0,0,1,.23l1.13.19a6.16,6.16,0,0,1,1.05.31,2,2,0,0,1,.75.53,1.41,1.41,0,0,1,.29.92,1.54,1.54,0,0,1-.36,1,2.49,2.49,0,0,1-1.07.67A5.39,5.39,0,0,1,242.81,59.52Z"/></g></g></svg>