<svg xmlns="http://www.w3.org/2000/svg" viewBox="0 0 267.33 175.35"><defs><style>.cls-1{fill:#1d1d1b;}.cls-2{opacity:0.87;}.cls-13,.cls-3,.cls-4{fill:#58effb;}.cls-3,.cls-4{stroke:#58effb;}.cls-16,.cls-17,.cls-18,.cls-19,.cls-20,.cls-22,.cls-23,.cls-3,.cls-4,.cls-5,.cls-7{stroke-miterlimit:10;}.cls-3{opacity:0.53;}.cls-17,.cls-18,.cls-5,.cls-6{fill:#59595b;}.cls-16,.cls-17,.cls-18,.cls-5{stroke:#59595b;}.cls-5{stroke-linecap:round;}.cls-16,.cls-7{fill:none;}.cls-19,.cls-20,.cls-7{stroke:#a5a6a9;}.cls-10,.cls-11,.cls-19,.cls-20,.cls-8,.cls-9{fill:#a5a6a9;}.cls-9{opacity:0.49;}.cls-10{opacity:0.5;}.cls-11{opacity:0.48;}.cls-12,.cls-14,.cls-22,.cls-23{fill:#ff11c7;}.cls-14,.cls-19,.cls-22{opacity:0.71;}.cls-15{fill:#fff;}.cls-17{opacity:0.6;}.cls-21{opacity:0.9;}.cls-22,.cls-23{stroke:#ff11c7;}</style></defs><g id="Layer_2" data-name="Layer 2"><g id="Device"><rect class="cls-1" width="267.33" height="175.35"/><g class="cls-2"><path class="cls-3" d="M245.4,42.33c0,1.88-1.22,3.75-3.68,5.18-4.91,2.86-12.87,2.86-17.78,0-2.46-1.43-3.69-3.3-3.69-5.18s1.23-3.74,3.69-5.17c4.91-2.86,12.87-2.86,17.78,0C244.18,38.59,245.4,40.46,245.4,42.33Z"/><path class="cls-4" d="M245.4,42.33v59.83c0,1.87-1.22,3.75-3.68,5.17-4.91,2.86-12.87,2.86-17.78,0-2.46-1.42-3.69-3.3-3.69-5.17V42.33c0,1.88,1.23,3.75,3.69,5.18,4.91,2.86,12.87,2.86,17.78,0C244.18,46.08,245.4,44.21,245.4,42.33Z"/></g><path class="cls-5" d="M19.91,88.61v69.18m0,0h92.85"/><polygon class="cls-6" points="19.91 83.46 17.38 87.83 22.43 87.83 19.91 83.46"/><polygon class="cls-6" points="116.35 157.79 111.98 155.26 111.98 160.31 116.35 157.79"/><rect class="cls-7" x="4.29" y="3.89" width="256.85" height="165.95" rx="11.53"/><rect class="cls-8" x="26.1" y="126.4" width="5.36" height="27.87"/><rect class="cls-9" x="36.93" y="121.55" width="5.36" height="32.68"/><rect class="cls-8" x="47.77" y="114.91" width="5.36" height="39.36"/><rect class="cls-10" x="58.6" y="118.36" width="5.36" height="35.87"/><rect class="cls-8" x="69.43" y="111.08" width="5.36" height="43.15"/><rect class="cls-11" x="80.26" y="105.33" width="5.36" height="48.89"/><rect class="cls-12" x="91.1" y="94.23" width="5.36" height="60.04"/><rect class="cls-13" x="101.93" y="85.64" width="5.36" height="68.58"/><circle class="cls-14" cx="104.61" cy="66.79" r="5.99"/><path class="cls-15" d="M104.36,69.73V69a2,2,0,0,1-1.09-.31l.17-.48a2,2,0,0,0,1,.31.76.76,0,0,0,.86-.71c0-.39-.28-.64-.82-.85-.73-.29-1.18-.63-1.18-1.25a1.18,1.18,0,0,1,1.08-1.16v-.71h.45v.69a2,2,0,0,1,.93.25l-.18.48a1.67,1.67,0,0,0-.9-.25c-.55,0-.76.33-.76.62s.26.55.89.82,1.11.67,1.11,1.31A1.24,1.24,0,0,1,104.82,69v.74Z"/><circle class="cls-14" cx="129.89" cy="155.79" r="5.99"/><path class="cls-15" d="M129.43,154.65c0,1.09-.57,1.64-1.24,1.64s-1.21-.53-1.22-1.56.56-1.63,1.26-1.63S129.43,153.66,129.43,154.65Zm-1.91,0c0,.67.24,1.17.68,1.17s.67-.49.67-1.17-.18-1.16-.68-1.16S127.52,154.05,127.52,154.69Zm.61,3.79,3.06-5.39h.45l-3.06,5.39Zm4.69-1.68c0,1.1-.57,1.64-1.24,1.64s-1.21-.52-1.22-1.56.56-1.63,1.26-1.63S132.82,155.81,132.82,156.8Zm-1.91,0c0,.67.24,1.17.68,1.17s.67-.5.67-1.18-.18-1.16-.68-1.16S130.91,156.2,130.91,156.85Z"/><rect class="cls-12" x="50.45" y="-16.97" width="5.36" height="68.58" transform="translate(70.45 -35.81) rotate(90)"/><rect class="cls-8" x="40.6" y="3.54" width="5.36" height="48.89" transform="translate(71.27 -15.3) rotate(90)"/><rect class="cls-6" x="22.52" y="21.62" width="5.36" height="12.72" transform="translate(53.18 2.79) rotate(90)"/><rect class="cls-6" x="19.83" y="13.65" width="5.36" height="7.35" transform="translate(39.83 -5.19) rotate(90)"/><line class="cls-7" x1="18.84" y1="37.64" x2="91.1" y2="37.64"/><line class="cls-16" x1="18.84" y1="45.47" x2="69.43" y2="45.47"/><path class="cls-17" d="M229.09,57c0,1.87-1.23,3.74-3.69,5.17-4.91,2.86-12.87,2.86-17.78,0-2.46-1.43-3.68-3.3-3.68-5.17s1.22-3.75,3.68-5.18c4.91-2.86,12.87-2.86,17.78,0C227.86,53.28,229.09,55.15,229.09,57Z"/><path class="cls-18" d="M229.09,57v59.82c0,1.87-1.23,3.75-3.69,5.18-4.91,2.85-12.87,2.85-17.78,0-2.46-1.43-3.68-3.31-3.68-5.18V57c0,1.87,1.22,3.74,3.68,5.17,4.91,2.86,12.87,2.86,17.78,0C227.86,60.77,229.09,58.9,229.09,57Z"/><path class="cls-19" d="M205.78,75.12c0,1.87-1.23,3.74-3.68,5.17-4.91,2.86-12.88,2.86-17.79,0-2.46-1.43-3.68-3.3-3.68-5.17s1.22-3.75,3.68-5.18c4.91-2.86,12.88-2.86,17.79,0C204.55,71.37,205.78,73.24,205.78,75.12Z"/><path class="cls-20" d="M205.78,75.12v55.3c0,1.87-1.23,3.74-3.68,5.17-4.91,2.86-12.88,2.86-17.79,0-2.46-1.43-3.68-3.3-3.68-5.17V75.12c0,1.87,1.22,3.74,3.68,5.17,4.91,2.86,12.88,2.86,17.79,0C204.55,78.86,205.78,77,205.78,75.12Z"/><g class="cls-21"><path class="cls-22" d="M182.47,106.77c0,1.87-1.23,3.75-3.68,5.18-4.91,2.86-12.87,2.86-17.79,0-2.45-1.43-3.68-3.31-3.68-5.18s1.23-3.75,3.68-5.18c4.92-2.85,12.88-2.85,17.79,0C181.24,103,182.47,104.9,182.47,106.77Z"/><path class="cls-23" d="M182.47,106.77V144c0,1.88-1.23,3.75-3.68,5.18-4.91,2.86-12.87,2.86-17.79,0-2.45-1.43-3.68-3.3-3.68-5.18V106.77c0,1.87,1.23,3.75,3.68,5.18,4.92,2.86,12.88,2.86,17.79,0C181.24,110.52,182.47,108.64,182.47,106.77Z"/></g><path class="cls-6" d="M169.87,104.94l-1.34-.1.2-2.67,1.34.1Zm.29-4-1.33-.1.19-2.67,1.34.09Zm.3-4-1.34-.1.19-2.68,1.34.1Zm.29-4-1.34-.09.19-2.68,1.34.1Zm24-20.56-2.68.18L192,71.18l2.68-.18Zm-1.29-.55-1-.86,1.73-2.05,1,.87ZM171,88.89l-1.34-.1.2-2.67,1.33.1Zm19.7-16.28-2.68.18L188,71.46l2.67-.19Zm5.32-3.88-1-.87,1.73-2,1,.87Zm-9.34,4.15-2.67.19-.1-1.34,2.68-.18Zm-15.39,12-1.34-.1.2-2.67,1.34.09Zm11.38-11.72-2.68.18L179.94,72l2.68-.18Zm15.95-7.5-1-.87,1.74-2.05,1,.87Zm-27,15.21-1.33-.1.19-2.68,1.34.1Zm7.07-7.44-2.67.18-.09-1.34,2.67-.18ZM218.63,42l-.93-1,1.93-1.86.93,1ZM201.27,62.59l-1-.87,1.74-2,1,.87Zm20.25-23.37-.93-1,1.93-1.87.93,1Zm-17.65,20.3-1-.87,1.73-2,1,.86Zm20.54-23.09-.93-1,1.93-1.86.93,1Zm-17.94,20-1-.87,1.73-2,1,.87Zm20.84-22.82-.93-1,1.92-1.87.94,1ZM209.07,53.38l-1-.86,1.73-2.05,1,.87ZM230.2,30.83l-.93-1L231.2,28l.93,1ZM211.67,50.31l-1-.86,1.73-2.05,1,.87Z"/><circle class="cls-8" cx="169.2" cy="104.89" r="2.78" transform="translate(-28.39 80.59) rotate(-24.78)"/><path class="cls-8" d="M174.11,72.17a2.79,2.79,0,1,1-3.91-.48A2.79,2.79,0,0,1,174.11,72.17Z"/><circle class="cls-8" cx="193.37" cy="70.81" r="2.78" transform="translate(-11.87 87.58) rotate(-24.78)"/><circle class="cls-8" cx="215.48" cy="44.21" r="2.78" transform="translate(1.31 94.4) rotate(-24.78)"/><circle class="cls-14" cx="237.69" cy="21.63" r="5.99"/><path class="cls-15" d="M237.44,24.57v-.71a2.1,2.1,0,0,1-1.09-.32l.18-.48a2,2,0,0,0,1,.31.76.76,0,0,0,.86-.71c0-.39-.28-.63-.82-.85-.73-.29-1.18-.62-1.18-1.25a1.17,1.17,0,0,1,1.08-1.15v-.72h.45v.69a1.91,1.91,0,0,1,.93.26l-.18.47a1.67,1.67,0,0,0-.9-.25c-.55,0-.76.33-.76.62s.26.56.89.82S239,22,239,22.61a1.24,1.24,0,0,1-1.13,1.22v.74Z"/></g></g></svg>