<svg xmlns="http://www.w3.org/2000/svg" viewBox="0 0 206.31 109.54"><defs><style>.cls-1{fill:#59595b;}.cls-2{fill:#a5a6a9;}.cls-3{fill:#58effb;}.cls-4{fill:#ff11c7;}.cls-5,.cls-6{fill:#d2d8e7;}.cls-5{stroke:#d2d8e7;stroke-linecap:round;stroke-miterlimit:10;}.cls-7{fill:#fff;}</style></defs><g id="Layer_2" data-name="Layer 2"><g id="Device"><g id="Floor"><rect class="cls-1" y="25.53" width="25.03" height="14.42"/><polygon class="cls-2" points="6.92 23.04 6.92 21.47 0.83 21.47 0.83 23.04 0.83 23.64 0.83 25.53 2.5 25.53 2.5 23.92 22.53 23.92 22.53 25.53 24.2 25.53 24.2 23.04 6.92 23.04"/><rect class="cls-1" y="49.59" width="25.03" height="14.42"/><polygon class="cls-2" points="6.92 47.1 6.92 45.53 0.83 45.53 0.83 47.1 0.83 47.7 0.83 49.59 2.5 49.59 2.5 47.99 22.53 47.99 22.53 49.59 24.2 49.59 24.2 47.1 6.92 47.1"/><polygon class="cls-3" points="47 52.89 35.34 52.89 35.34 59.43 47 59.43 47 62.5 53.34 56.16 47 49.82 47 52.89"/><rect class="cls-1" y="73.65" width="25.03" height="14.42"/><polygon class="cls-2" points="6.92 71.17 6.92 69.59 0.83 69.59 0.83 71.17 0.83 71.77 0.83 73.65 2.5 73.65 2.5 72.05 22.53 72.05 22.53 73.65 24.2 73.65 24.2 71.17 6.92 71.17"/></g><rect class="cls-2" x="97.96" y="66.86" width="13.83" height="29.69"/><rect class="cls-2" x="156.65" y="59.14" width="13.83" height="37.41"/><rect class="cls-4" x="176.22" y="37.17" width="13.83" height="59.38"/><rect class="cls-2" x="80.06" y="84.77" width="13.83" height="12.59"/><rect class="cls-2" x="117.52" y="76.03" width="13.83" height="20.52"/><rect class="cls-2" x="137.09" y="71.32" width="13.83" height="25.23"/><path class="cls-1" d="M80.37,55.31l-1.12-1,2-2.24,1.12,1Zm3.06-3.37-1.13-1,2-2.24,1.12,1Zm3-3.36-1.12-1,2-2.25,1.12,1Zm3.06-3.37-1.12-1,2-2.24,1.13,1Zm35.69-1.57-2.51-1.71.85-1.25,2.51,1.7Zm2-1-1.12-1,2-2.25,1.13,1Zm-34.67-.77-1.12-1,2-2.24,1.12,1Zm28.88-.76L119,39.38l.85-1.26,2.51,1.71Zm8.85-1.84-1.13-1,2-2.25,1.12,1Zm-12.61-.71-2.51-1.71.85-1.25,2.51,1.7Zm-22.06-.06-1.12-1,2-2.25,1.12,1ZM113.94,36l-2.5-1.7.85-1.25,2.51,1.7Zm19.43-.1-1.12-1,2-2.24,1.12,1Zm-34.66-.76-1.13-1,2-2.25,1.12,1Zm11.47-1.69-2.51-1.71.86-1.25,2.5,1.7Zm57.63-.32-.95-1.18,2.36-1.9.95,1.18Zm-2.08-.57L164,30.06l1.23-.88L167,31.65Zm-29.3,0-1.13-1,2-2.25,1.12,1Zm-34.67-.76-1.12-1,2-2.24,1.12,1Zm4.66-.88-2.51-1.7.85-1.25,2.51,1.7Zm64.93-.62-.95-1.18,2.36-1.9,1,1.18Zm-31.87-1.1-1.12-1,2-2.25,1.12,1Zm23.61-.31-1.76-2.47,1.23-.88L164.32,28Zm11.8-1.44-.95-1.18,2.35-1.91,1,1.18Zm-32.35-1.62-1.12-1,2-2.24,1.13,1Zm17.91-.64-1.76-2.47,1.23-.88,1.76,2.46Zm18-.6-1-1.18,2.36-1.9.95,1.18ZM145.59,22.4l-1.12-1,2-2.24,1.12,1ZM182,21.68l-1-1.18,2.36-1.91.95,1.18Zm-24.15-.26L156.05,19l1.23-.88L159,20.54ZM148.65,19l-1.12-1,2-2.25,1.12,1Zm6.52-1.32-1.76-2.47,1.23-.88,1.76,2.47Zm-3.46-2-1.13-1,1.75-1.93,1.18.07.25.35-.54.38.24.22Z"/><circle class="cls-3" cx="79.81" cy="54.8" r="3.15" transform="translate(8.14 119.88) rotate(-76.72)"/><path class="cls-3" d="M106.59,28.38a3.15,3.15,0,1,1-3.15-3.15A3.15,3.15,0,0,1,106.59,28.38Z"/><circle class="cls-3" cx="125.71" cy="42.8" r="3.15" transform="translate(55.17 155.31) rotate(-76.72)"/><circle class="cls-3" cx="152.9" cy="13.23" r="3.15" transform="translate(104.89 159) rotate(-76.72)"/><circle class="cls-3" cx="166.9" cy="32.51" r="3.15" transform="translate(96.91 187.47) rotate(-76.72)"/><path class="cls-5" d="M64.29,4.52V106.69m0,0H201.43"/><polygon class="cls-6" points="206.31 106.69 201.37 103.84 201.37 109.54 206.31 106.69"/><polygon class="cls-6" points="64.29 0 61.44 4.94 67.14 4.94 64.29 0"/><circle class="cls-4" cx="182.77" cy="19.87" r="6.76"/><path class="cls-7" d="M182.49,22.86v-.81a2.35,2.35,0,0,1-1.23-.36l.19-.54a2.27,2.27,0,0,0,1.16.35.85.85,0,0,0,1-.8c0-.44-.31-.72-.91-1-.83-.33-1.34-.71-1.34-1.41A1.34,1.34,0,0,1,182.54,17v-.81h.51V17a2.33,2.33,0,0,1,1,.28l-.2.54a1.9,1.9,0,0,0-1-.29c-.63,0-.86.38-.86.71s.3.62,1,.92,1.26.76,1.26,1.48A1.4,1.4,0,0,1,183,22v.85Z"/></g></g></svg>