<svg xmlns="http://www.w3.org/2000/svg" viewBox="0 0 257.85 166.95"><defs><style>.cls-1{fill:none;stroke:#a5a6a9;}.cls-1,.cls-6{stroke-miterlimit:10;}.cls-2{fill:#59595b;}.cls-3{fill:#a5a6a9;}.cls-4{fill:#58effb;}.cls-5{fill:#ff11c7;}.cls-6,.cls-7{fill:#d2d8e7;}.cls-6{stroke:#d2d8e7;stroke-linecap:round;}.cls-8{fill:#fff;}</style></defs><g id="Layer_2" data-name="Layer 2"><g id="Device"><rect class="cls-1" x="0.5" y="0.5" width="256.85" height="165.95" rx="11.53"/><g id="Floor"><rect class="cls-2" x="29.17" y="55.54" width="25.03" height="14.42"/><polygon class="cls-3" points="36.09 53.06 36.09 51.49 30 51.49 30 53.06 30 53.66 30 55.54 31.67 55.54 31.67 53.94 51.7 53.94 51.7 55.54 53.37 55.54 53.37 53.06 36.09 53.06"/><rect class="cls-2" x="29.17" y="79.61" width="25.03" height="14.42"/><polygon class="cls-3" points="36.09 77.12 36.09 75.55 30 75.55 30 77.12 30 77.72 30 79.61 31.67 79.61 31.67 78 51.7 78 51.7 79.61 53.37 79.61 53.37 77.12 36.09 77.12"/><polygon class="cls-4" points="76.17 82.91 64.5 82.91 64.5 89.45 76.17 89.45 76.17 92.52 82.51 86.18 76.17 79.84 76.17 82.91"/><rect class="cls-2" x="29.17" y="103.67" width="25.03" height="14.42"/><polygon class="cls-3" points="36.09 101.18 36.09 99.61 30 99.61 30 101.18 30 101.79 30 103.67 31.67 103.67 31.67 102.07 51.7 102.07 51.7 103.67 53.37 103.67 53.37 101.18 36.09 101.18"/></g><rect class="cls-3" x="127.13" y="96.88" width="13.83" height="29.69"/><rect class="cls-3" x="185.82" y="89.16" width="13.83" height="37.41"/><rect class="cls-5" x="205.39" y="67.19" width="13.83" height="59.38"/><rect class="cls-3" x="109.23" y="114.79" width="13.83" height="12.59"/><rect class="cls-3" x="146.69" y="106.05" width="13.83" height="20.52"/><rect class="cls-3" x="166.26" y="101.34" width="13.83" height="25.23"/><path class="cls-2" d="M109.54,85.33l-1.12-1,2-2.25,1.12,1ZM112.6,82l-1.13-1,2-2.24,1.12,1Zm3.05-3.37-1.12-1,2-2.25,1.12,1Zm3.06-3.36-1.12-1,2-2.25,1.13,1Zm35.69-1.58L151.89,72l.85-1.25,2.51,1.7Zm2-1-1.12-1,2-2.25,1.13,1Zm-34.67-.76-1.12-1,2-2.24,1.12,1Zm28.88-.76-2.51-1.7.85-1.26,2.51,1.71Zm8.85-1.84-1.13-1,2-2.25,1.12,1Zm-12.61-.71-2.51-1.71.85-1.25,2.51,1.7Zm-22.06-.06-1.12-1,2-2.24,1.12,1ZM143.11,66l-2.5-1.7.85-1.26L144,64.74Zm19.43-.1-1.12-1,2-2.24,1.12,1Zm-34.66-.76-1.13-1,2-2.25,1.12,1Zm11.47-1.69-2.51-1.71.86-1.25,2.5,1.7ZM197,63.12,196,61.94,198.39,60l1,1.18Zm-2.08-.57-1.76-2.47,1.23-.88,1.76,2.47Zm-29.3,0-1.13-1,2-2.24,1.12,1Zm-34.67-.76-1.12-1,2-2.24,1.12,1Zm4.66-.88-2.51-1.7.85-1.26,2.51,1.71Zm64.93-.62-1-1.18,2.36-1.9.95,1.18Zm-31.87-1.11-1.12-1,2-2.25,1.12,1Zm23.61-.3-1.76-2.47,1.23-.88L193.49,58Zm11.8-1.44-.95-1.18,2.35-1.91,1,1.18Zm-32.35-1.62-1.12-1,2-2.25,1.13,1Zm17.91-.65-1.76-2.46,1.23-.88,1.76,2.46Zm18-.59-1-1.18,2.36-1.9.95,1.18Zm-32.84-2.13-1.12-1,2-2.24,1.12,1Zm36.37-.73-.95-1.18,2.36-1.9,1,1.18ZM187,51.44,185.22,49l1.23-.88,1.76,2.47Zm-9.16-2.39-1.12-1,2-2.24,1.12,1Zm6.52-1.31-1.76-2.47,1.23-.88,1.76,2.47Zm-3.46-2.05-1.13-1,1.75-1.93,1.18.07.25.35-.54.38.24.22Z"/><circle class="cls-4" cx="108.98" cy="84.82" r="3.15" transform="translate(1.39 171.4) rotate(-76.72)"/><path class="cls-4" d="M135.76,58.4a3.15,3.15,0,1,1-3.15-3.15A3.14,3.14,0,0,1,135.76,58.4Z"/><circle class="cls-4" cx="154.88" cy="72.82" r="3.15" transform="translate(48.42 206.83) rotate(-76.72)"/><circle class="cls-4" cx="182.07" cy="43.25" r="3.15" transform="translate(98.14 210.51) rotate(-76.72)"/><circle class="cls-4" cx="196.07" cy="62.52" r="3.15" transform="translate(90.17 238.98) rotate(-76.72)"/><path class="cls-6" d="M93.46,34.54V136.71m0,0H230.59"/><polygon class="cls-7" points="235.48 136.71 230.54 133.86 230.54 139.56 235.48 136.71"/><polygon class="cls-7" points="93.46 30.02 90.61 34.95 96.31 34.95 93.46 30.02"/><circle class="cls-5" cx="211.94" cy="49.89" r="6.76"/><path class="cls-8" d="M211.66,52.87v-.81a2.26,2.26,0,0,1-1.23-.35l.19-.54a2.27,2.27,0,0,0,1.16.34c.58,0,1-.33,1-.79s-.31-.72-.91-1c-.83-.33-1.34-.71-1.34-1.41A1.33,1.33,0,0,1,211.71,47v-.81h.51V47a2.1,2.1,0,0,1,1.05.28l-.2.54a1.9,1.9,0,0,0-1-.29c-.63,0-.86.38-.86.71s.3.62,1,.92,1.26.75,1.26,1.48A1.4,1.4,0,0,1,212.17,52v.84Z"/></g></g></svg>